<!DOCTYPE svg PUBLIC "-//W3C//DTD SVG 1.1//EN" "http://www.w3.org/Graphics/SVG/1.1/DTD/svg11.dtd">
<!-- Uploaded to: SVG Repo, www.svgrepo.com, Transformed by: SVG Repo Mixer Tools -->
<svg fill="#ffffff" width="800px" height="800px" viewBox="-9.6 -9.6 115.20 115.20" xmlns="http://www.w3.org/2000/svg" stroke="#ffffff">
<g id="SVGRepo_bgCarrier" stroke-width="0"/>
<g id="SVGRepo_tracerCarrier" stroke-linecap="round" stroke-linejoin="round"/>
<g id="SVGRepo_iconCarrier"> <title/> <g> <path d="M48,36a5.9966,5.9966,0,0,0,6-6V6A6,6,0,0,0,42,6V30A5.9966,5.9966,0,0,0,48,36Z"/> <path d="M76.0078,22.9746a6,6,0,0,0-8.0156,8.93A29.39,29.39,0,0,1,78,54a30,30,0,0,1-60,0A29.39,29.39,0,0,1,28.0078,31.9043a6,6,0,0,0-8.0156-8.93,42.0009,42.0009,0,1,0,56.0156,0Z"/> </g> </g>
</svg>