<svg width="249" height="249" viewBox="0 0 249 249" fill="none" xmlns="http://www.w3.org/2000/svg">
<path d="M144.046 33.3652C142.563 27.8305 136.874 24.546 131.34 26.029L41.1463 50.1962C35.6116 51.6792 32.327 57.3682 33.81 62.903L74.0888 213.225C75.5718 218.76 81.2608 222.044 86.7955 220.561L176.989 196.394C182.524 194.911 185.808 189.222 184.325 183.687L144.046 33.3652Z" fill="#FFBA35"/>
<path fill-rule="evenodd" clip-rule="evenodd" d="M129.997 21.0182L39.8038 45.1855C31.5017 47.41 26.5749 55.9435 28.7994 64.2455L69.0781 214.568C71.3026 222.87 79.8361 227.797 88.1382 225.572L178.332 201.405C186.634 199.18 191.56 190.647 189.336 182.345L149.057 32.0226C146.833 23.7205 138.299 18.7937 129.997 21.0182ZM131.34 26.029C136.874 24.5459 142.563 27.8305 144.046 33.3652L184.325 183.687C185.808 189.222 182.524 194.911 176.989 196.394L86.7956 220.561C81.2609 222.044 75.5719 218.76 74.0889 213.225L33.8101 62.9029C32.3271 57.3682 35.6117 51.6792 41.1464 50.1962L131.34 26.029Z" fill="#501D01"/>
<path fill-rule="evenodd" clip-rule="evenodd" d="M184.414 188.708C183.576 192.322 180.822 195.367 176.989 196.394L86.7954 220.561C81.2607 222.044 75.5717 218.76 74.0887 213.225L33.81 62.9026C32.327 57.3679 35.6115 51.6789 41.1462 50.1959L41.5019 50.1006C41.13 51.7043 41.1354 53.4201 41.5912 55.1214L81.8699 205.444C83.353 210.978 89.042 214.263 94.5767 212.78L184.414 188.708Z" fill="#FFDE9E"/>
<path d="M103.865 44.0449C104.594 38.3615 109.792 34.3449 115.475 35.0736L208.092 46.949C213.775 47.6777 217.792 52.8758 217.063 58.5592L197.271 212.921C196.542 218.604 191.344 222.621 185.661 221.892L93.0438 210.016C87.3604 209.288 83.3438 204.09 84.0726 198.406L103.865 44.0449Z" fill="#A6FF35"/>
<path fill-rule="evenodd" clip-rule="evenodd" d="M116.135 29.9283L208.752 41.8037C217.277 42.8968 223.302 50.6939 222.209 59.219L202.416 213.58C201.323 222.105 193.526 228.13 185.001 227.037L92.3841 215.162C83.859 214.069 77.8341 206.272 78.9272 197.747L98.7195 43.3852C99.8126 34.8601 107.61 28.8352 116.135 29.9283ZM115.475 35.0737C109.792 34.345 104.594 38.3615 103.865 44.045L84.0726 198.406C83.3439 204.09 87.3605 209.288 93.0439 210.016L185.661 221.892C191.344 222.621 196.542 218.604 197.271 212.921L217.063 58.5593C217.792 52.8759 213.775 47.6778 208.092 46.9491L115.475 35.0737Z" fill="#345E00"/>
<path fill-rule="evenodd" clip-rule="evenodd" d="M84.2502 202.054C85.1976 206.165 88.6145 209.448 93.0438 210.016L185.661 221.891C191.344 222.62 196.542 218.603 197.271 212.92L217.063 58.5587C217.748 53.2191 214.244 48.3078 209.104 47.1289C209.372 48.2929 209.443 49.5234 209.282 50.7775L189.49 205.139C188.761 210.822 183.563 214.839 177.879 214.11L85.2626 202.235C84.9188 202.191 84.5811 202.13 84.2502 202.054Z" fill="#6EC500"/>
<path d="M72.7554 61.0455C72.7554 55.3156 77.4004 50.6705 83.1304 50.6705H176.505C182.235 50.6705 186.88 55.3156 186.88 61.0455V216.671C186.88 222.4 182.235 227.046 176.505 227.046H83.1304C77.4004 227.046 72.7554 222.4 72.7554 216.671V61.0455Z" fill="#53C1FF"/>
<path fill-rule="evenodd" clip-rule="evenodd" d="M83.1304 45.483H176.505C185.1 45.483 192.068 52.4506 192.068 61.0455V216.671C192.068 225.265 185.1 232.233 176.505 232.233H83.1304C74.5354 232.233 67.5679 225.265 67.5679 216.671V61.0455C67.5679 52.4506 74.5354 45.483 83.1304 45.483ZM83.1304 50.6705C77.4004 50.6705 72.7554 55.3156 72.7554 61.0455V216.671C72.7554 222.4 77.4004 227.046 83.1304 227.046H176.505C182.235 227.046 186.88 222.4 186.88 216.671V61.0455C186.88 55.3156 182.235 50.6705 176.505 50.6705H83.1304Z" fill="#043E5F"/>
<path fill-rule="evenodd" clip-rule="evenodd" d="M73.6724 220.941C75.3003 224.541 78.9229 227.046 83.1305 227.046H176.505C182.235 227.046 186.88 222.4 186.88 216.671V61.0455C186.88 56.8379 184.376 53.2153 180.776 51.5874C181.365 52.8898 181.693 54.3356 181.693 55.858V216.671C181.693 219.535 179.37 221.858 176.505 221.858H77.943C76.4206 221.858 74.9748 221.53 73.6724 220.941Z" fill="#2387BF"/>
<path d="M176.505 50.6705H83.1304C77.4004 50.6705 72.7554 55.3156 72.7554 61.0455V195.921L186.88 97.358V61.0455C186.88 55.3156 182.235 50.6705 176.505 50.6705Z" fill="#81D1FF"/>
<path d="M72.7554 131.077L137.599 72.625L72.7554 118.108V131.077Z" fill="#53C1FF"/>
<path fill-rule="evenodd" clip-rule="evenodd" d="M75.3491 61.0455C75.3491 56.7481 78.8329 53.2643 83.1304 53.2643H171.318C172.75 53.2643 173.912 54.4255 173.912 55.858C173.912 57.2905 172.75 58.4518 171.318 58.4518H83.1304C81.6979 58.4518 80.5366 59.613 80.5366 61.0455V211.483C80.5366 212.916 79.3754 214.077 77.9429 214.077C76.5104 214.077 75.3491 212.916 75.3491 211.483V61.0455Z" fill="#BEE7FF"/>
<path fill-rule="evenodd" clip-rule="evenodd" d="M77.9429 71.4205C79.3754 71.4205 80.5366 72.5818 80.5366 74.0143V99.9518C80.5366 101.384 79.3754 102.546 77.9429 102.546C76.5104 102.546 75.3491 101.384 75.3491 99.9518V74.0143C75.3491 72.5818 76.5104 71.4205 77.9429 71.4205Z" fill="#FFFDFA"/>
<path d="M103.88 133.837L120.091 130.552L124.955 122.339L129.818 114.125L139.544 130.552L155.755 133.837L142.787 146.979L146.029 163.406L129.818 155.193L113.607 163.406L116.849 146.979L103.88 133.837Z" fill="#67DBFF"/>
<path fill-rule="evenodd" clip-rule="evenodd" d="M120.091 130.552L129.818 114.125L139.545 130.552L155.756 133.838L142.787 146.979L146.029 163.406L129.818 155.193L113.607 163.406L116.849 146.979L103.88 133.838L120.091 130.552ZM111.228 148.669L100.188 137.481C98.8504 136.126 98.363 134.146 98.9186 132.324C99.4743 130.502 100.983 129.132 102.85 128.753L116.802 125.926L125.354 111.482C126.288 109.905 127.985 108.938 129.818 108.938C131.651 108.938 133.348 109.905 134.282 111.482L142.834 125.926L156.786 128.753C158.653 129.132 160.162 130.502 160.717 132.324C161.273 134.146 160.786 136.126 159.448 137.481L148.408 148.669L151.118 162.402C151.502 164.348 150.743 166.343 149.162 167.541C147.58 168.739 145.454 168.93 143.684 168.034L129.818 161.008L115.952 168.034C114.182 168.93 112.056 168.739 110.474 167.541C108.893 166.343 108.134 164.348 108.518 162.402L111.228 148.669Z" fill="#2481B6"/>
<path fill-rule="evenodd" clip-rule="evenodd" d="M131.105 122.248C132.349 122.959 132.781 124.543 132.07 125.787L126.882 134.865C126.532 135.479 125.946 135.923 125.26 136.094L114.885 138.688C113.495 139.036 112.087 138.191 111.739 136.801C111.392 135.411 112.237 134.003 113.626 133.656L122.928 131.33L127.566 123.213C128.277 121.969 129.861 121.537 131.105 122.248Z" fill="#E5FDFF"/>
<path d="M145.38 201.016C145.38 203.164 143.638 204.906 141.49 204.906C139.341 204.906 137.599 203.164 137.599 201.016C137.599 198.867 139.341 197.125 141.49 197.125C143.638 197.125 145.38 198.867 145.38 201.016Z" fill="#3EABE9"/>
<path d="M171.318 204.906C171.318 207.771 168.995 210.094 166.13 210.094C163.265 210.094 160.943 207.771 160.943 204.906C160.943 202.041 163.265 199.719 166.13 199.719C168.995 199.719 171.318 202.041 171.318 204.906Z" fill="#3EABE9"/>
<path d="M168.724 186.75C168.724 188.182 167.563 189.344 166.13 189.344C164.698 189.344 163.537 188.182 163.537 186.75C163.537 185.318 164.698 184.156 166.13 184.156C167.563 184.156 168.724 185.318 168.724 186.75Z" fill="#3EABE9"/>
<path d="M155.755 212.687C155.755 214.12 154.594 215.281 153.162 215.281C151.729 215.281 150.568 214.12 150.568 212.687C150.568 211.255 151.729 210.094 153.162 210.094C154.594 210.094 155.755 211.255 155.755 212.687Z" fill="#3EABE9"/>
<path d="M124.63 215.281C124.63 216.714 123.469 217.875 122.037 217.875C120.604 217.875 119.443 216.714 119.443 215.281C119.443 213.849 120.604 212.688 122.037 212.688C123.469 212.688 124.63 213.849 124.63 215.281Z" fill="#3EABE9"/>
<path d="M137.599 212.687C137.599 214.12 136.438 215.281 135.005 215.281C133.573 215.281 132.412 214.12 132.412 212.687C132.412 211.255 133.573 210.094 135.005 210.094C136.438 210.094 137.599 211.255 137.599 212.687Z" fill="#3EABE9"/>
<path d="M158.349 199.719C158.349 201.151 157.188 202.312 155.755 202.312C154.323 202.312 153.162 201.151 153.162 199.719C153.162 198.286 154.323 197.125 155.755 197.125C157.188 197.125 158.349 198.286 158.349 199.719Z" fill="#3EABE9"/>
<path d="M155.755 188.047C155.755 188.763 155.175 189.344 154.458 189.344C153.742 189.344 153.162 188.763 153.162 188.047C153.162 187.331 153.742 186.75 154.458 186.75C155.175 186.75 155.755 187.331 155.755 188.047Z" fill="#3EABE9"/>
<path d="M150.568 195.828C150.568 196.544 149.987 197.125 149.271 197.125C148.555 197.125 147.974 196.544 147.974 195.828C147.974 195.112 148.555 194.531 149.271 194.531C149.987 194.531 150.568 195.112 150.568 195.828Z" fill="#3EABE9"/>
<path d="M129.818 203.609C129.818 204.326 129.237 204.906 128.521 204.906C127.805 204.906 127.224 204.326 127.224 203.609C127.224 202.893 127.805 202.312 128.521 202.312C129.237 202.312 129.818 202.893 129.818 203.609Z" fill="#3EABE9"/>
<path d="M160.943 177.672C160.943 178.388 160.362 178.969 159.646 178.969C158.93 178.969 158.349 178.388 158.349 177.672C158.349 176.956 158.93 176.375 159.646 176.375C160.362 176.375 160.943 176.956 160.943 177.672Z" fill="#3EABE9"/>
<path d="M176.505 180.266C176.505 180.982 175.925 181.562 175.208 181.562C174.492 181.562 173.912 180.982 173.912 180.266C173.912 179.549 174.492 178.969 175.208 178.969C175.925 178.969 176.505 179.549 176.505 180.266Z" fill="#3EABE9"/>
<path d="M173.912 167.297C173.912 168.013 173.331 168.594 172.615 168.594C171.899 168.594 171.318 168.013 171.318 167.297C171.318 166.581 171.899 166 172.615 166C173.331 166 173.912 166.581 173.912 167.297Z" fill="#3EABE9"/>
<path d="M176.505 206.203C176.505 206.919 175.925 207.5 175.208 207.5C174.492 207.5 173.912 206.919 173.912 206.203C173.912 205.487 174.492 204.906 175.208 204.906C175.925 204.906 176.505 205.487 176.505 206.203Z" fill="#3EABE9"/>
<path d="M168.724 216.578C168.724 217.294 168.143 217.875 167.427 217.875C166.711 217.875 166.13 217.294 166.13 216.578C166.13 215.862 166.711 215.281 167.427 215.281C168.143 215.281 168.724 215.862 168.724 216.578Z" fill="#3EABE9"/>
<path d="M150.568 206.203C150.568 206.919 149.987 207.5 149.271 207.5C148.555 207.5 147.974 206.919 147.974 206.203C147.974 205.487 148.555 204.906 149.271 204.906C149.987 204.906 150.568 205.487 150.568 206.203Z" fill="#3EABE9"/>
<path d="M145.38 213.984C145.38 214.701 144.8 215.281 144.083 215.281C143.367 215.281 142.787 214.701 142.787 213.984C142.787 213.268 143.367 212.688 144.083 212.688C144.8 212.688 145.38 213.268 145.38 213.984Z" fill="#3EABE9"/>
<path d="M119.443 206.203C119.443 206.919 118.862 207.5 118.146 207.5C117.43 207.5 116.849 206.919 116.849 206.203C116.849 205.487 117.43 204.906 118.146 204.906C118.862 204.906 119.443 205.487 119.443 206.203Z" fill="#3EABE9"/>
<path d="M171.318 175.078C171.318 175.794 170.737 176.375 170.021 176.375C169.305 176.375 168.724 175.794 168.724 175.078C168.724 174.362 169.305 173.781 170.021 173.781C170.737 173.781 171.318 174.362 171.318 175.078Z" fill="#3EABE9"/>
<path d="M176.505 191.937C176.505 193.37 175.344 194.531 173.912 194.531C172.479 194.531 171.318 193.37 171.318 191.937C171.318 190.505 172.479 189.344 173.912 189.344C175.344 189.344 176.505 190.505 176.505 191.937Z" fill="#3EABE9"/>
<path d="M85.7241 62.25C85.7241 63.6825 84.5629 64.8437 83.1304 64.8437C81.6979 64.8437 80.5366 63.6825 80.5366 62.25C80.5366 60.8175 81.6979 59.6562 83.1304 59.6562C84.5629 59.6562 85.7241 60.8175 85.7241 62.25Z" fill="#81D1FF"/>
<path fill-rule="evenodd" clip-rule="evenodd" d="M83.1304 59.6562C81.6979 59.6562 80.5366 60.8175 80.5366 62.25C80.5366 63.6825 81.6979 64.8438 83.1304 64.8438C84.5629 64.8438 85.7241 63.6825 85.7241 62.25C85.7241 60.8175 84.5629 59.6562 83.1304 59.6562ZM90.9116 62.25C90.9116 66.5475 87.4278 70.0312 83.1304 70.0312C78.8329 70.0312 75.3491 66.5475 75.3491 62.25C75.3491 57.9525 78.8329 54.4688 83.1304 54.4688C87.4278 54.4688 90.9116 57.9525 90.9116 62.25Z" fill="#4BB3EE"/>
<path d="M85.7241 215.281C85.7241 216.714 84.5629 217.875 83.1304 217.875C81.6979 217.875 80.5366 216.714 80.5366 215.281C80.5366 213.849 81.6979 212.688 83.1304 212.688C84.5629 212.688 85.7241 213.849 85.7241 215.281Z" fill="#53C1FF"/>
<path fill-rule="evenodd" clip-rule="evenodd" d="M83.1304 212.688C81.6979 212.688 80.5366 213.849 80.5366 215.281C80.5366 216.714 81.6979 217.875 83.1304 217.875C84.5629 217.875 85.7241 216.714 85.7241 215.281C85.7241 213.849 84.5629 212.688 83.1304 212.688ZM90.9116 215.281C90.9116 219.579 87.4278 223.062 83.1304 223.062C78.8329 223.062 75.3491 219.579 75.3491 215.281C75.3491 210.984 78.8329 207.5 83.1304 207.5C87.4278 207.5 90.9116 210.984 90.9116 215.281Z" fill="#2387BF"/>
<path d="M179.099 62.25C179.099 63.6825 177.938 64.8437 176.505 64.8437C175.073 64.8437 173.912 63.6825 173.912 62.25C173.912 60.8175 175.073 59.6562 176.505 59.6562C177.938 59.6562 179.099 60.8175 179.099 62.25Z" fill="#81D1FF"/>
<path fill-rule="evenodd" clip-rule="evenodd" d="M176.505 59.6562C175.073 59.6562 173.912 60.8175 173.912 62.25C173.912 63.6825 175.073 64.8438 176.505 64.8438C177.938 64.8438 179.099 63.6825 179.099 62.25C179.099 60.8175 177.938 59.6562 176.505 59.6562ZM184.287 62.25C184.287 66.5475 180.803 70.0312 176.505 70.0312C172.208 70.0312 168.724 66.5475 168.724 62.25C168.724 57.9525 172.208 54.4688 176.505 54.4688C180.803 54.4688 184.287 57.9525 184.287 62.25Z" fill="#4BB3EE"/>
<path d="M179.099 215.281C179.099 216.714 177.938 217.875 176.505 217.875C175.073 217.875 173.912 216.714 173.912 215.281C173.912 213.849 175.073 212.688 176.505 212.688C177.938 212.688 179.099 213.849 179.099 215.281Z" fill="#53C1FF"/>
<path fill-rule="evenodd" clip-rule="evenodd" d="M176.505 212.688C175.073 212.688 173.912 213.849 173.912 215.281C173.912 216.714 175.073 217.875 176.505 217.875C177.938 217.875 179.099 216.714 179.099 215.281C179.099 213.849 177.938 212.688 176.505 212.688ZM184.287 215.281C184.287 219.579 180.803 223.062 176.505 223.062C172.208 223.062 168.724 219.579 168.724 215.281C168.724 210.984 172.208 207.5 176.505 207.5C180.803 207.5 184.287 210.984 184.287 215.281Z" fill="#2387BF"/>
</svg>
