<svg width="591" height="370" viewBox="0 0 591 370" fill="none" xmlns="http://www.w3.org/2000/svg">
<path d="M163.83 15.0339L276.211 1.44134L285.259 238.191L213.555 246.864L163.83 15.0339Z" fill="url(#paint0_linear_24_1215)"/>
<path d="M425.709 12.3191L313.181 -0.000164364L306.814 236.837L378.611 244.697L425.709 12.3191Z" fill="url(#paint1_linear_24_1215)"/>
<path d="M149.845 51.7021L56.8151 79.9606L131.701 269.028L191.057 250.998L149.845 51.7021Z" fill="url(#paint2_linear_24_1215)"/>
<path d="M440.107 48.8269L533.452 76.0302L460.712 265.934L401.155 248.577L440.107 48.8269Z" fill="url(#paint3_linear_24_1215)"/>
<path d="M61.9463 140.639L0.312955 172.645L77.6165 295.622L116.941 275.201L61.9463 140.639Z" fill="url(#paint4_linear_24_1215)"/>
<path d="M529.008 136.764L591 168.07L515.093 291.914L475.54 271.94L529.008 136.764Z" fill="url(#paint5_linear_24_1215)"/>
<g filter="url(#filter0_d_24_1215)">
<path d="M22.0875 267.318C12.5938 254.303 7.84693 247.796 9.92083 242.649C11.9947 237.502 19.63 236.155 34.9004 233.463L104.915 221.117C114.2 219.48 118.843 218.662 122.236 221.037C125.629 223.413 126.447 228.056 128.084 237.341L144.045 327.856C145.682 337.141 146.5 341.784 144.125 345.177C141.749 348.57 137.106 349.388 127.822 351.025L58.0115 363.335C42.6774 366.039 35.0103 367.391 31.3014 363.274C27.5924 359.158 29.823 351.358 34.2842 335.756C38.3595 321.504 41.5492 306.378 39.7262 298.356C37.9617 290.593 30.2521 278.511 22.0875 267.318Z" fill="url(#paint6_linear_24_1215)"/>
</g>
<g filter="url(#filter1_d_24_1215)">
<path d="M567.972 267.318C577.465 254.303 582.212 247.796 580.138 242.649C578.064 237.502 570.429 236.155 555.159 233.463L485.144 221.117C475.859 219.48 471.217 218.662 467.824 221.037C464.43 223.413 463.612 228.056 461.975 237.341L446.014 327.856C444.377 337.141 443.559 341.784 445.934 345.177C448.31 348.57 452.953 349.388 462.238 351.025L532.048 363.335C547.382 366.039 555.049 367.391 558.758 363.274C562.467 359.158 560.236 351.358 555.775 335.756C551.7 321.504 548.51 306.378 550.333 298.356C552.097 290.593 559.807 278.511 567.972 267.318Z" fill="url(#paint7_linear_24_1215)"/>
</g>
<g filter="url(#filter2_d_24_1215)">
<path d="M74.707 227.988C74.707 212.569 74.707 204.86 79.5105 199.246C84.314 193.632 91.6363 192.486 106.281 190.193C143.105 184.428 209.857 176.333 294.351 176.333C378.845 176.333 445.597 184.428 482.421 190.193C497.065 192.486 504.388 193.632 509.191 199.246C513.995 204.86 513.995 212.569 513.995 227.988V298.67C513.995 319.061 513.995 329.256 507.581 335.193C501.166 341.13 490.956 340.34 470.534 338.761C420.702 334.906 340.027 329.27 294.351 329.27C248.675 329.27 168 334.906 118.168 338.761C97.7462 340.34 87.5353 341.13 81.1212 335.193C74.707 329.256 74.707 319.061 74.707 298.67V227.988Z" fill="url(#paint8_linear_24_1215)"/>
</g>
<path d="M125.525 278.299C122.837 278.299 120.341 277.883 118.037 277.051C115.765 276.187 113.781 274.971 112.085 273.403C110.421 271.835 109.125 269.979 108.197 267.835C107.269 265.691 106.805 263.323 106.805 260.731C106.805 258.139 107.269 255.771 108.197 253.627C109.125 251.483 110.421 249.627 112.085 248.059C113.781 246.491 115.765 245.291 118.037 244.459C120.341 243.595 122.837 243.163 125.525 243.163C128.821 243.163 131.733 243.739 134.261 244.891C136.821 246.043 138.933 247.707 140.597 249.883L133.445 256.267C132.453 255.019 131.349 254.059 130.133 253.387C128.949 252.683 127.605 252.331 126.101 252.331C124.917 252.331 123.845 252.523 122.885 252.907C121.925 253.291 121.093 253.851 120.389 254.587C119.717 255.323 119.189 256.219 118.805 257.275C118.421 258.299 118.229 259.451 118.229 260.731C118.229 262.011 118.421 263.179 118.805 264.235C119.189 265.259 119.717 266.139 120.389 266.875C121.093 267.611 121.925 268.171 122.885 268.555C123.845 268.939 124.917 269.131 126.101 269.131C127.605 269.131 128.949 268.795 130.133 268.123C131.349 267.419 132.453 266.443 133.445 265.195L140.597 271.579C138.933 273.723 136.821 275.387 134.261 276.571C131.733 277.723 128.821 278.299 125.525 278.299ZM161.741 278.299C159.021 278.299 156.493 277.867 154.157 277.003C151.853 276.139 149.853 274.923 148.157 273.355C146.461 271.755 145.133 269.883 144.173 267.739C143.245 265.595 142.781 263.259 142.781 260.731C142.781 258.171 143.245 255.835 144.173 253.723C145.133 251.579 146.461 249.723 148.157 248.155C149.853 246.555 151.853 245.323 154.157 244.459C156.493 243.595 159.021 243.163 161.741 243.163C164.493 243.163 167.021 243.595 169.325 244.459C171.629 245.323 173.629 246.555 175.325 248.155C177.021 249.723 178.333 251.579 179.261 253.723C180.221 255.835 180.701 258.171 180.701 260.731C180.701 263.259 180.221 265.595 179.261 267.739C178.333 269.883 177.021 271.755 175.325 273.355C173.629 274.923 171.629 276.139 169.325 277.003C167.021 277.867 164.493 278.299 161.741 278.299ZM161.741 269.131C162.797 269.131 163.773 268.939 164.669 268.555C165.597 268.171 166.397 267.627 167.069 266.923C167.773 266.187 168.317 265.307 168.701 264.283C169.085 263.227 169.277 262.043 169.277 260.731C169.277 259.419 169.085 258.251 168.701 257.227C168.317 256.171 167.773 255.291 167.069 254.587C166.397 253.851 165.597 253.291 164.669 252.907C163.773 252.523 162.797 252.331 161.741 252.331C160.685 252.331 159.693 252.523 158.765 252.907C157.869 253.291 157.069 253.851 156.365 254.587C155.693 255.291 155.165 256.171 154.781 257.227C154.397 258.251 154.205 259.419 154.205 260.731C154.205 262.043 154.397 263.227 154.781 264.283C155.165 265.307 155.693 266.187 156.365 266.923C157.069 267.627 157.869 268.171 158.765 268.555C159.693 268.939 160.685 269.131 161.741 269.131ZM185.773 277.531V243.931H195.085L208.525 265.867H203.629L216.685 243.931H225.997L226.093 277.531H215.773L215.677 259.483H217.309L208.381 274.507H203.389L194.077 259.483H196.093V277.531H185.773ZM232.529 277.531V243.931H248.705C251.841 243.931 254.545 244.443 256.817 245.467C259.121 246.491 260.897 247.963 262.145 249.883C263.393 251.771 264.017 254.011 264.017 256.603C264.017 259.195 263.393 261.435 262.145 263.323C260.897 265.211 259.121 266.683 256.817 267.739C254.545 268.763 251.841 269.275 248.705 269.275H238.817L243.857 264.427V277.531H232.529ZM243.857 265.675L238.817 260.539H247.985C249.553 260.539 250.705 260.187 251.441 259.483C252.209 258.779 252.593 257.819 252.593 256.603C252.593 255.387 252.209 254.427 251.441 253.723C250.705 253.019 249.553 252.667 247.985 252.667H238.817L243.857 247.531V265.675ZM268.693 277.531V243.931H280.021V268.747H295.189V277.531H268.693ZM309.646 256.411H324.622V264.571H309.646V256.411ZM310.414 268.987H327.214V277.531H299.278V243.931H326.59V252.475H310.414V268.987ZM339.83 277.531V252.715H329.99V243.931H360.998V252.715H351.158V277.531H339.83ZM359.565 277.531L374.253 243.931H385.389L400.077 277.531H388.365L377.517 249.307H381.933L371.085 277.531H359.565ZM368.301 271.675L371.181 263.515H386.637L389.517 271.675H368.301ZM402.845 277.531V243.931H419.405C423.149 243.931 426.445 244.619 429.293 245.995C432.141 247.339 434.365 249.259 435.965 251.755C437.565 254.251 438.365 257.227 438.365 260.683C438.365 264.171 437.565 267.179 435.965 269.707C434.365 272.203 432.141 274.139 429.293 275.515C426.445 276.859 423.149 277.531 419.405 277.531H402.845ZM414.173 268.699H418.925C420.525 268.699 421.917 268.395 423.101 267.787C424.317 267.179 425.261 266.283 425.933 265.099C426.605 263.883 426.941 262.411 426.941 260.683C426.941 258.987 426.605 257.547 425.933 256.363C425.261 255.179 424.317 254.283 423.101 253.675C421.917 253.067 420.525 252.763 418.925 252.763H414.173V268.699ZM461.077 278.299C458.357 278.299 455.829 277.867 453.493 277.003C451.189 276.139 449.189 274.923 447.493 273.355C445.797 271.755 444.469 269.883 443.509 267.739C442.581 265.595 442.117 263.259 442.117 260.731C442.117 258.171 442.581 255.835 443.509 253.723C444.469 251.579 445.797 249.723 447.493 248.155C449.189 246.555 451.189 245.323 453.493 244.459C455.829 243.595 458.357 243.163 461.077 243.163C463.829 243.163 466.357 243.595 468.661 244.459C470.965 245.323 472.965 246.555 474.661 248.155C476.357 249.723 477.669 251.579 478.597 253.723C479.557 255.835 480.037 258.171 480.037 260.731C480.037 263.259 479.557 265.595 478.597 267.739C477.669 269.883 476.357 271.755 474.661 273.355C472.965 274.923 470.965 276.139 468.661 277.003C466.357 277.867 463.829 278.299 461.077 278.299ZM461.077 269.131C462.133 269.131 463.109 268.939 464.005 268.555C464.933 268.171 465.733 267.627 466.405 266.923C467.109 266.187 467.653 265.307 468.037 264.283C468.421 263.227 468.613 262.043 468.613 260.731C468.613 259.419 468.421 258.251 468.037 257.227C467.653 256.171 467.109 255.291 466.405 254.587C465.733 253.851 464.933 253.291 464.005 252.907C463.109 252.523 462.133 252.331 461.077 252.331C460.021 252.331 459.029 252.523 458.101 252.907C457.205 253.291 456.405 253.851 455.701 254.587C455.029 255.291 454.501 256.171 454.117 257.227C453.733 258.251 453.541 259.419 453.541 260.731C453.541 262.043 453.733 263.227 454.117 264.283C454.501 265.307 455.029 266.187 455.701 266.923C456.405 267.627 457.205 268.171 458.101 268.555C459.029 268.939 460.021 269.131 461.077 269.131Z" fill="white"/>
<g filter="url(#filter3_d_24_1215)">
<path d="M283.898 81.4162C287.962 68.9062 289.995 62.6512 293.763 62.6512C297.531 62.6512 299.563 68.9062 303.628 81.4162L311.327 105.11C312.45 108.567 313.012 110.296 314.375 111.287C315.739 112.277 317.556 112.277 321.192 112.277H346.105C359.259 112.277 365.836 112.277 367 115.861C368.165 119.445 362.844 123.311 352.202 131.042L332.047 145.686C329.106 147.823 327.635 148.891 327.114 150.494C326.594 152.097 327.155 153.826 328.279 157.283L335.977 180.977C340.042 193.487 342.075 199.742 339.026 201.957C335.977 204.172 330.657 200.306 320.015 192.574L299.86 177.931C296.919 175.794 295.448 174.725 293.763 174.725C292.078 174.725 290.607 175.794 287.666 177.931L267.511 192.574C256.869 200.306 251.548 204.172 248.5 201.957C245.451 199.742 247.484 193.487 251.548 180.977L259.247 157.283C260.37 153.826 260.932 152.097 260.411 150.494C259.89 148.891 258.42 147.823 255.479 145.686L235.324 131.042C224.682 123.311 219.361 119.445 220.526 115.861C221.69 112.277 228.267 112.277 241.421 112.277H266.334C269.969 112.277 271.787 112.277 273.15 111.287C274.514 110.296 275.076 108.567 276.199 105.11L283.898 81.4162Z" fill="url(#paint9_linear_24_1215)"/>
</g>
<g filter="url(#filter4_d_24_1215)">
<path d="M406.637 126.232C410.9 118.213 413.032 114.203 415.595 114.655C418.157 115.107 418.789 119.604 420.053 128.598L422.021 142.596C422.37 145.082 422.545 146.325 423.353 147.162C424.161 147.999 425.397 148.217 427.869 148.653L441.791 151.108C450.735 152.685 455.208 153.473 455.57 156.05C455.932 158.627 451.85 160.617 443.687 164.599L430.981 170.796C428.725 171.896 427.597 172.446 427.051 173.474C426.504 174.501 426.679 175.744 427.029 178.23L428.996 192.229C430.26 201.223 430.892 205.72 428.553 206.86C426.215 208.001 423.06 204.734 416.751 198.201L406.931 188.032C405.187 186.226 404.315 185.323 403.17 185.121C402.024 184.919 400.896 185.47 398.639 186.57L385.934 192.767C377.77 196.748 373.689 198.739 371.881 196.868C370.074 194.996 372.206 190.986 376.47 182.967L383.106 170.485C384.285 168.269 384.874 167.161 384.712 166.008C384.55 164.856 383.678 163.953 381.935 162.147L372.115 151.979C365.806 145.445 362.651 142.179 363.873 139.881C365.094 137.584 369.566 138.373 378.511 139.95L392.432 142.404C394.904 142.84 396.14 143.058 397.186 142.548C398.232 142.038 398.821 140.93 400 138.713L406.637 126.232Z" fill="url(#paint10_linear_24_1215)"/>
</g>
<g filter="url(#filter5_d_24_1215)">
<path d="M181.824 126.232C177.56 118.213 175.429 114.203 172.866 114.655C170.304 115.107 169.672 119.604 168.408 128.598L166.44 142.596C166.091 145.082 165.916 146.325 165.108 147.162C164.3 147.999 163.064 148.217 160.591 148.653L146.67 151.108C137.726 152.685 133.253 153.473 132.891 156.05C132.529 158.627 136.611 160.617 144.774 164.599L157.48 170.796C159.736 171.896 160.864 172.446 161.41 173.474C161.956 174.501 161.782 175.744 161.432 178.23L159.465 192.229C158.201 201.223 157.569 205.72 159.908 206.86C162.246 208.001 165.401 204.734 171.71 198.201L181.53 188.032C183.274 186.226 184.145 185.323 185.291 185.121C186.437 184.919 187.565 185.47 189.822 186.57L202.527 192.767C210.69 196.748 214.772 198.739 216.58 196.868C218.387 194.996 216.255 190.986 211.991 182.967L205.354 170.485C204.176 168.269 203.587 167.161 203.749 166.008C203.911 164.856 204.782 163.953 206.526 162.147L216.346 151.979C222.655 145.445 225.81 142.179 224.588 139.881C223.367 137.584 218.895 138.373 209.95 139.95L196.029 142.404C193.557 142.84 192.32 143.058 191.275 142.548C190.229 142.038 189.64 140.93 188.461 138.713L181.824 126.232Z" fill="url(#paint11_linear_24_1215)"/>
</g>
<defs>
<filter id="filter0_d_24_1215" x="9.44043" y="219.554" width="136.167" height="150.331" filterUnits="userSpaceOnUse" color-interpolation-filters="sRGB">
<feFlood flood-opacity="0" result="BackgroundImageFix"/>
<feColorMatrix in="SourceAlpha" type="matrix" values="0 0 0 0 0 0 0 0 0 0 0 0 0 0 0 0 0 0 127 0" result="hardAlpha"/>
<feOffset dy="4"/>
<feComposite in2="hardAlpha" operator="out"/>
<feColorMatrix type="matrix" values="0 0 0 0 0.886275 0 0 0 0 0.419608 0 0 0 0 0.117647 0 0 0 1 0"/>
<feBlend mode="normal" in2="BackgroundImageFix" result="effect1_dropShadow_24_1215"/>
<feBlend mode="normal" in="SourceGraphic" in2="effect1_dropShadow_24_1215" result="shape"/>
</filter>
<filter id="filter1_d_24_1215" x="444.451" y="219.554" width="136.167" height="150.331" filterUnits="userSpaceOnUse" color-interpolation-filters="sRGB">
<feFlood flood-opacity="0" result="BackgroundImageFix"/>
<feColorMatrix in="SourceAlpha" type="matrix" values="0 0 0 0 0 0 0 0 0 0 0 0 0 0 0 0 0 0 127 0" result="hardAlpha"/>
<feOffset dy="4"/>
<feComposite in2="hardAlpha" operator="out"/>
<feColorMatrix type="matrix" values="0 0 0 0 0.886275 0 0 0 0 0.419608 0 0 0 0 0.117647 0 0 0 1 0"/>
<feBlend mode="normal" in2="BackgroundImageFix" result="effect1_dropShadow_24_1215"/>
<feBlend mode="normal" in="SourceGraphic" in2="effect1_dropShadow_24_1215" result="shape"/>
</filter>
<filter id="filter2_d_24_1215" x="74.707" y="176.333" width="439.288" height="167.565" filterUnits="userSpaceOnUse" color-interpolation-filters="sRGB">
<feFlood flood-opacity="0" result="BackgroundImageFix"/>
<feColorMatrix in="SourceAlpha" type="matrix" values="0 0 0 0 0 0 0 0 0 0 0 0 0 0 0 0 0 0 127 0" result="hardAlpha"/>
<feOffset dy="4"/>
<feComposite in2="hardAlpha" operator="out"/>
<feColorMatrix type="matrix" values="0 0 0 0 0.886275 0 0 0 0 0.419608 0 0 0 0 0.117647 0 0 0 1 0"/>
<feBlend mode="normal" in2="BackgroundImageFix" result="effect1_dropShadow_24_1215"/>
<feBlend mode="normal" in="SourceGraphic" in2="effect1_dropShadow_24_1215" result="shape"/>
</filter>
<filter id="filter3_d_24_1215" x="220.368" y="62.6511" width="146.79" height="143.925" filterUnits="userSpaceOnUse" color-interpolation-filters="sRGB">
<feFlood flood-opacity="0" result="BackgroundImageFix"/>
<feColorMatrix in="SourceAlpha" type="matrix" values="0 0 0 0 0 0 0 0 0 0 0 0 0 0 0 0 0 0 127 0" result="hardAlpha"/>
<feOffset dy="4"/>
<feComposite in2="hardAlpha" operator="out"/>
<feColorMatrix type="matrix" values="0 0 0 0 1 0 0 0 0 0.720277 0 0 0 0 0.000989556 0 0 0 1 0"/>
<feBlend mode="normal" in2="BackgroundImageFix" result="effect1_dropShadow_24_1215"/>
<feBlend mode="normal" in="SourceGraphic" in2="effect1_dropShadow_24_1215" result="shape"/>
</filter>
<filter id="filter4_d_24_1215" x="363.613" y="114.62" width="91.9785" height="96.4639" filterUnits="userSpaceOnUse" color-interpolation-filters="sRGB">
<feFlood flood-opacity="0" result="BackgroundImageFix"/>
<feColorMatrix in="SourceAlpha" type="matrix" values="0 0 0 0 0 0 0 0 0 0 0 0 0 0 0 0 0 0 127 0" result="hardAlpha"/>
<feOffset dy="4"/>
<feComposite in2="hardAlpha" operator="out"/>
<feColorMatrix type="matrix" values="0 0 0 0 1 0 0 0 0 0.720277 0 0 0 0 0.000989556 0 0 0 1 0"/>
<feBlend mode="normal" in2="BackgroundImageFix" result="effect1_dropShadow_24_1215"/>
<feBlend mode="normal" in="SourceGraphic" in2="effect1_dropShadow_24_1215" result="shape"/>
</filter>
<filter id="filter5_d_24_1215" x="132.869" y="114.62" width="91.9785" height="96.4639" filterUnits="userSpaceOnUse" color-interpolation-filters="sRGB">
<feFlood flood-opacity="0" result="BackgroundImageFix"/>
<feColorMatrix in="SourceAlpha" type="matrix" values="0 0 0 0 0 0 0 0 0 0 0 0 0 0 0 0 0 0 127 0" result="hardAlpha"/>
<feOffset dy="4"/>
<feComposite in2="hardAlpha" operator="out"/>
<feColorMatrix type="matrix" values="0 0 0 0 1 0 0 0 0 0.720277 0 0 0 0 0.000989556 0 0 0 1 0"/>
<feBlend mode="normal" in2="BackgroundImageFix" result="effect1_dropShadow_24_1215"/>
<feBlend mode="normal" in="SourceGraphic" in2="effect1_dropShadow_24_1215" result="shape"/>
</filter>
<linearGradient id="paint0_linear_24_1215" x1="220.02" y1="8.23764" x2="248.373" y2="242.653" gradientUnits="userSpaceOnUse">
<stop stop-color="#FFEDAD" stop-opacity="0"/>
<stop offset="1" stop-color="#FFEFB8" stop-opacity="0.5"/>
</linearGradient>
<linearGradient id="paint1_linear_24_1215" x1="369.445" y1="6.15946" x2="343.748" y2="240.881" gradientUnits="userSpaceOnUse">
<stop stop-color="#FFEDAD" stop-opacity="0"/>
<stop offset="1" stop-color="#FFEFB8" stop-opacity="0.5"/>
</linearGradient>
<linearGradient id="paint2_linear_24_1215" x1="103.33" y1="65.8314" x2="162.235" y2="259.753" gradientUnits="userSpaceOnUse">
<stop stop-color="#FFEDAD" stop-opacity="0"/>
<stop offset="1" stop-color="#FFEFB8" stop-opacity="0.5"/>
</linearGradient>
<linearGradient id="paint3_linear_24_1215" x1="486.779" y1="62.4285" x2="430.074" y2="257.005" gradientUnits="userSpaceOnUse">
<stop stop-color="#FFEDAD" stop-opacity="0"/>
<stop offset="1" stop-color="#FFEFB8" stop-opacity="0.5"/>
</linearGradient>
<linearGradient id="paint4_linear_24_1215" x1="31.1296" y1="156.642" x2="97.8458" y2="285.117" gradientUnits="userSpaceOnUse">
<stop stop-color="#FFEDAD" stop-opacity="0"/>
<stop offset="1" stop-color="#FFEFB8" stop-opacity="0.5"/>
</linearGradient>
<linearGradient id="paint5_linear_24_1215" x1="560.004" y1="152.417" x2="494.746" y2="281.639" gradientUnits="userSpaceOnUse">
<stop stop-color="#FFEDAD" stop-opacity="0"/>
<stop offset="1" stop-color="#FFEFB8" stop-opacity="0.5"/>
</linearGradient>
<linearGradient id="paint6_linear_24_1215" x1="46.2342" y1="154.368" x2="73.0796" y2="293.475" gradientUnits="userSpaceOnUse">
<stop stop-color="#FFCF25"/>
<stop offset="1" stop-color="#FD8C43"/>
</linearGradient>
<linearGradient id="paint7_linear_24_1215" x1="543.825" y1="154.368" x2="516.98" y2="293.475" gradientUnits="userSpaceOnUse">
<stop stop-color="#FFCF25"/>
<stop offset="1" stop-color="#FD8C43"/>
</linearGradient>
<linearGradient id="paint8_linear_24_1215" x1="294.351" y1="90.102" x2="294.351" y2="264.19" gradientUnits="userSpaceOnUse">
<stop stop-color="#FFCF25"/>
<stop offset="1" stop-color="#FD8C43"/>
</linearGradient>
<linearGradient id="paint9_linear_24_1215" x1="293.763" y1="76.1888" x2="293.763" y2="176.729" gradientUnits="userSpaceOnUse">
<stop stop-color="#FFF2C2"/>
<stop offset="1" stop-color="#FFCF25"/>
</linearGradient>
<linearGradient id="paint10_linear_24_1215" x1="414.179" y1="122.681" x2="402.956" y2="186.333" gradientUnits="userSpaceOnUse">
<stop stop-color="#FFF2C2"/>
<stop offset="1" stop-color="#FFCF25"/>
</linearGradient>
<linearGradient id="paint11_linear_24_1215" x1="174.282" y1="122.681" x2="185.505" y2="186.333" gradientUnits="userSpaceOnUse">
<stop stop-color="#FFF2C2"/>
<stop offset="1" stop-color="#FFCF25"/>
</linearGradient>
</defs>
</svg>
