<svg width="27" height="35" viewBox="0 0 27 35" fill="none" xmlns="http://www.w3.org/2000/svg">
<path d="M10.6737 1.19324C10.3698 0.970638 9.96655 0.937739 9.63056 1.10813C9.29456 1.27852 9.08284 1.62327 9.08284 2C9.08284 5.04175 8.33019 10.3087 4.79458 13.8228C1.02987 17.5646 0.167579 22.0984 1.75814 25.9525C3.33399 29.771 7.22764 32.709 12.5446 33.535C12.6421 33.5502 12.7414 33.5508 12.8391 33.5369C15.6512 33.1364 19.6618 32.1133 22.3469 28.9887C25.0876 25.7994 26.2221 20.7032 23.876 12.6847C23.7639 12.3016 23.4346 12.0218 23.0383 11.973C22.6421 11.9243 22.2548 12.1159 22.0531 12.4605C21.9823 12.5816 21.9104 12.7059 21.8374 12.8324C21.411 13.5704 20.9425 14.3816 20.3686 15.0626C19.9797 15.5242 19.6004 15.8547 19.2241 16.0527C18.8887 14.2321 18.116 11.7882 16.9482 9.34286C15.5162 6.34418 13.4273 3.20998 10.6737 1.19324Z" fill="#D24940" stroke="#60050F" stroke-width="2" stroke-linejoin="round"/>
<path d="M5.49953 14.5321C9.31969 10.7351 10.0828 5.13301 10.0828 2C10.8365 2.55199 11.5413 3.19797 12.1963 3.90918C12.6558 8.49121 9.4459 13.9897 6.77305 16.1279C4.86386 17.6553 3.1456 19.5645 3.1456 22.6192C3.1456 28.1267 8.69077 31.6302 11.9107 32.4062C12.1689 32.4585 12.4314 32.5055 12.6981 32.5469C12.457 32.5213 12.1928 32.4742 11.9107 32.4062C2.40344 30.4816 -1.34136 21.3314 5.49953 14.5321Z" fill="#E95D54"/>
<path fill-rule="evenodd" clip-rule="evenodd" d="M2.01853 21.5762C1.68781 26.7137 5.80442 31.4761 12.6981 32.5471C18.1982 31.7638 27.4996 28.6308 22.9162 12.9657C22.8506 13.0779 22.7824 13.1961 22.7115 13.3189C22.6664 13.3971 22.6203 13.4772 22.573 13.5587C26.0595 27.4376 17.4727 30.2895 12.3292 31.0197C6.17734 30.067 2.31602 26.0791 2.01853 21.5762ZM18.5596 17.268C18.503 17.2717 18.4458 17.2736 18.388 17.2736C18.1201 14.2982 15.8843 7.69113 11.8785 3.57349C15.4896 7.80079 17.4046 14.6885 17.6554 17.4645C17.9594 17.4645 18.2625 17.3941 18.5596 17.268Z" fill="#AB3028"/>
<path d="M12.6915 32.5469C2.19091 31.2105 7.53658 17.4644 13.0732 12.8823C12.1186 19.7554 17.4142 19.3405 18.0371 25.6738C18.4189 29.5558 16.8916 32.1651 12.6915 32.5469Z" fill="#FF784E"/>
<path d="M12.6915 32.5469C4.71897 30.9347 8.15549 21.2615 11.7793 18.0371C11.7794 23.6798 16.128 22.8737 16.128 27.7103C16.128 30.9347 14.6007 32.356 12.6915 32.5469Z" fill="#FFB45C"/>
<path d="M12.7309 32.5469C17.0796 31.6984 14.6006 27.0103 12.5004 24.9102C12.6914 28.1558 10.9732 27.9648 10.7822 30.0649C10.6554 31.4593 11.8084 32.4055 12.7309 32.5469Z" fill="#F5992D"/>
<path d="M12.6915 32.5469C14.9825 32.165 13.8369 29.6831 12.6914 28.3467C12.5005 29.874 11.6513 30.0268 11.551 31.1818C11.4844 31.9487 12.2069 32.4691 12.6915 32.5469Z" fill="#E27F0A"/>
<path d="M12.4484 32.4944C4.78988 30.7358 8.19287 21.2282 11.7793 18.0371C11.7793 19.3563 12.0171 20.323 12.3813 21.0918C11.6574 21.7918 10.095 24.0701 9.63684 27.583C9.20903 30.8629 11.2434 32.1789 12.4484 32.4944C12.5283 32.5128 12.6093 32.5303 12.6915 32.5469C12.6155 32.5342 12.534 32.5169 12.4484 32.4944Z" fill="#FFC46A"/>
<path d="M22.4282 15.1733C21.9191 15.8734 20.5572 17.388 19.1826 17.8462" stroke="#FF766D" stroke-width="2" stroke-linecap="round" stroke-linejoin="round"/>
<path d="M22.4282 15.1733C22.1681 15.5311 21.6852 16.1015 21.0918 16.635" stroke="#FFD2CF" stroke-width="2" stroke-linecap="round" stroke-linejoin="round"/>
<path d="M10.7825 3.90918C10.5916 6.96387 9.63696 10.5913 7.9187 12.8823" stroke="#FF766D" stroke-width="2" stroke-linecap="round" stroke-linejoin="round"/>
<path d="M10.7823 3.90918C10.7135 5.01009 10.5455 6.18538 10.2783 7.34571" stroke="#FFD2CF" stroke-width="2" stroke-linecap="round" stroke-linejoin="round"/>
<path d="M11.1641 19.9463C10.2095 21.0918 9.06396 23.3828 8.87305 25.6738" stroke="#FFDEC0" stroke-width="2" stroke-linecap="round" stroke-linejoin="round"/>
<circle cx="18.8008" cy="21.0918" r="0.381836" fill="#F44F44"/>
<circle cx="17.8462" cy="22.0464" r="0.190918" fill="#F44F44"/>
<circle cx="19.7554" cy="20.1372" r="0.190918" fill="#F44F44"/>
<circle cx="20.1372" cy="21.6646" r="0.190918" fill="#F44F44"/>
<circle cx="18.9917" cy="22.8099" r="0.190918" fill="#F44F44"/>
<circle cx="18.6099" cy="24.7192" r="0.190918" fill="#F44F44"/>
<circle cx="16.7007" cy="18.6097" r="0.190918" fill="#F44F44"/>
<circle cx="16.3188" cy="15.5551" r="0.190918" fill="#F44F44"/>
<circle cx="16.3188" cy="17.0825" r="0.190918" fill="#F44F44"/>
<circle cx="15.5552" cy="18.6097" r="0.190918" fill="#F44F44"/>
<circle cx="6.77295" cy="20.9009" r="0.190918" fill="#F44F44"/>
<circle cx="6.00928" cy="18.9916" r="0.190918" fill="#F44F44"/>
<circle cx="8.30029" cy="17.8462" r="0.190918" fill="#F44F44"/>
<circle cx="6.77295" cy="17.8462" r="0.190918" fill="#F44F44"/>
<circle cx="8.68213" cy="16.3188" r="0.190918" fill="#F44F44"/>
<circle cx="6.39111" cy="22.0464" r="0.190918" fill="#F44F44"/>
<circle cx="5.24561" cy="21.6646" r="0.190918" fill="#F44F44"/>
<circle cx="4.48193" cy="23.1918" r="0.190918" fill="#F44F44"/>
<circle cx="5.62744" cy="23.9556" r="0.190918" fill="#F44F44"/>
<circle cx="5.62744" cy="25.4829" r="0.190918" fill="#F44F44"/>
<circle cx="14.0278" cy="15.1732" r="0.190918" fill="#F44F44"/>
<circle cx="15.1733" cy="15.9369" r="0.190918" fill="#F44F44"/>
<circle cx="14.4097" cy="13.646" r="0.190918" fill="#F44F44"/>
<circle cx="16.8916" cy="20.3281" r="0.381836" fill="#F44F44"/>
<circle cx="5.05469" cy="20.3281" r="0.381836" fill="#F44F44"/>
<circle cx="14.9824" cy="17.2734" r="0.381836" fill="#F44F44"/>
<circle cx="7.3457" cy="19.1825" r="0.381836" fill="#F44F44"/>
<circle cx="5.81836" cy="23.0009" r="0.381836" fill="#F44F44"/>
<circle cx="18.228" cy="19.3734" r="0.572754" fill="#F44F44"/>
</svg>
