<svg width="605" height="373" viewBox="0 0 605 373" fill="none" xmlns="http://www.w3.org/2000/svg">
<path d="M163.83 15.0339L276.211 1.44134L285.259 238.191L213.555 246.864L163.83 15.0339Z" fill="url(#paint0_linear_24_1215)"/>
<path d="M425.709 12.3191L313.181 -0.000164137L306.814 236.837L378.611 244.697L425.709 12.3191Z" fill="url(#paint1_linear_24_1215)"/>
<path d="M149.845 51.7021L56.8151 79.9606L131.701 269.028L191.057 250.998L149.845 51.7021Z" fill="url(#paint2_linear_24_1215)"/>
<path d="M440.107 48.8269L533.452 76.0302L460.712 265.934L401.155 248.577L440.107 48.8269Z" fill="url(#paint3_linear_24_1215)"/>
<path d="M61.9463 140.639L0.312957 172.645L77.6165 295.622L116.941 275.201L61.9463 140.639Z" fill="url(#paint4_linear_24_1215)"/>
<path d="M529.008 136.764L591 168.07L515.093 291.914L475.54 271.94L529.008 136.764Z" fill="url(#paint5_linear_24_1215)"/>
<g filter="url(#filter0_d_24_1215)">
<path d="M22.0875 267.318C12.5938 254.303 7.84693 247.796 9.92083 242.649C11.9947 237.501 19.63 236.155 34.9004 233.463L104.915 221.117C114.2 219.48 118.843 218.661 122.236 221.037C125.629 223.413 126.447 228.055 128.084 237.34L144.045 327.856C145.682 337.141 146.5 341.783 144.125 345.176C141.749 348.569 137.106 349.388 127.822 351.025L58.0115 363.335C42.6774 366.038 35.0103 367.39 31.3014 363.274C27.5924 359.158 29.823 351.357 34.2842 335.756C38.3595 321.504 41.5492 306.377 39.7262 298.356C37.9617 290.592 30.2521 278.51 22.0875 267.318Z" fill="url(#paint6_linear_24_1215)"/>
</g>
<g filter="url(#filter1_d_24_1215)">
<path d="M579.382 270.343C589.901 257.063 595.16 250.423 593.142 245.114C591.125 239.805 583.115 238.392 567.096 235.568L485.144 221.117C475.859 219.48 471.217 218.662 467.824 221.037C464.431 223.413 463.612 228.056 461.975 237.341L446.015 327.856C444.377 337.141 443.559 341.784 445.935 345.177C448.31 348.57 452.953 349.388 462.238 351.025L543.955 365.435C560.045 368.271 568.089 369.69 571.801 365.405C575.513 361.119 572.847 353.01 567.514 336.791C562.894 322.741 559.305 308.069 561.125 300.259C562.884 292.71 570.81 281.165 579.382 270.343Z" fill="url(#paint7_linear_24_1215)"/>
</g>
<g filter="url(#filter2_d_24_1215)">
<path d="M74.7065 227.988C74.7065 212.569 74.7065 204.86 79.51 199.246C84.3135 193.632 91.6358 192.486 106.281 190.193C143.105 184.428 209.857 176.332 294.35 176.332C378.844 176.332 445.596 184.428 482.42 190.193C497.065 192.486 504.387 193.632 509.191 199.246C513.994 204.86 513.994 212.569 513.994 227.988V298.67C513.994 319.06 513.994 329.256 507.58 335.193C501.166 341.13 490.955 340.34 470.533 338.761C420.701 334.906 340.027 329.27 294.35 329.27C248.674 329.27 167.999 334.906 118.167 338.761C97.7457 340.34 87.5348 341.13 81.1207 335.193C74.7065 329.256 74.7065 319.061 74.7065 298.67V227.988Z" fill="url(#paint8_linear_24_1215)"/>
</g>
<path d="M123.308 263.371L125.108 280.691H114.308L116.108 263.371H123.308ZM119.708 252.251C121.281 252.251 122.548 252.718 123.508 253.651C124.495 254.584 124.988 255.718 124.988 257.051C124.988 258.384 124.495 259.504 123.508 260.411C122.548 261.318 121.281 261.771 119.708 261.771C118.161 261.771 116.895 261.318 115.908 260.411C114.921 259.504 114.428 258.384 114.428 257.051C114.428 255.718 114.921 254.584 115.908 253.651C116.895 252.718 118.161 252.251 119.708 252.251ZM129.086 274.531V246.531H144.046C147.913 246.531 150.766 247.224 152.606 248.611C154.446 249.971 155.366 251.718 155.366 253.851C155.366 255.264 154.966 256.531 154.166 257.651C153.393 258.744 152.259 259.611 150.766 260.251C149.273 260.891 147.433 261.211 145.246 261.211L146.046 259.051C148.233 259.051 150.113 259.358 151.686 259.971C153.286 260.584 154.513 261.478 155.366 262.651C156.246 263.798 156.686 265.184 156.686 266.811C156.686 269.238 155.673 271.131 153.646 272.491C151.646 273.851 148.713 274.531 144.846 274.531H129.086ZM138.366 267.931H144.046C145.086 267.931 145.859 267.744 146.366 267.371C146.899 266.998 147.166 266.451 147.166 265.731C147.166 265.011 146.899 264.464 146.366 264.091C145.859 263.718 145.086 263.531 144.046 263.531H137.726V257.291H142.766C143.833 257.291 144.606 257.118 145.086 256.771C145.593 256.398 145.846 255.878 145.846 255.211C145.846 254.518 145.593 253.998 145.086 253.651C144.606 253.304 143.833 253.131 142.766 253.131H138.366V267.931ZM174.224 275.171C169.93 275.171 166.584 274.011 164.184 271.691C161.784 269.371 160.584 266.118 160.584 261.931V246.531H170.024V261.651C170.024 263.784 170.41 265.304 171.184 266.211C171.957 267.091 172.997 267.531 174.304 267.531C175.637 267.531 176.677 267.091 177.424 266.211C178.197 265.304 178.584 263.784 178.584 261.651V246.531H187.864V261.931C187.864 266.118 186.664 269.371 184.264 271.691C181.864 274.011 178.517 275.171 174.224 275.171ZM201.631 256.931H214.111V263.731H201.631V256.931ZM202.271 267.411H216.271V274.531H192.991V246.531H215.751V253.651H202.271V267.411ZM220.705 274.531V246.531H228.465L242.705 263.571H239.105V246.531H248.305V274.531H240.545L226.305 257.491H229.905V274.531H220.705ZM266.445 274.531V246.531H275.885V274.531H266.445ZM281.23 274.531V246.531H288.99L303.23 263.571H299.63V246.531H308.83V274.531H301.07L286.83 257.491H290.43V274.531H281.23ZM320.258 274.531V253.851H312.058V246.531H337.898V253.851H329.698V274.531H320.258ZM349.79 256.931H362.27V263.731H349.79V256.931ZM350.43 267.411H364.43V274.531H341.15V246.531H363.91V253.651H350.43V267.411ZM368.864 274.531V246.531H376.624L390.864 263.571H387.264V246.531H396.464V274.531H388.704L374.464 257.491H378.064V274.531H368.864ZM407.893 274.531V253.851H399.693V246.531H425.533V253.851H417.333V274.531H407.893ZM443.074 275.171C440.807 275.171 438.701 274.811 436.754 274.091C434.834 273.371 433.167 272.358 431.754 271.051C430.341 269.718 429.234 268.158 428.434 266.371C427.661 264.584 427.274 262.638 427.274 260.531C427.274 258.398 427.661 256.451 428.434 254.691C429.234 252.904 430.341 251.358 431.754 250.051C433.167 248.718 434.834 247.691 436.754 246.971C438.701 246.251 440.807 245.891 443.074 245.891C445.367 245.891 447.474 246.251 449.394 246.971C451.314 247.691 452.981 248.718 454.394 250.051C455.807 251.358 456.901 252.904 457.674 254.691C458.474 256.451 458.874 258.398 458.874 260.531C458.874 262.638 458.474 264.584 457.674 266.371C456.901 268.158 455.807 269.718 454.394 271.051C452.981 272.358 451.314 273.371 449.394 274.091C447.474 274.811 445.367 275.171 443.074 275.171ZM443.074 267.531C443.954 267.531 444.767 267.371 445.514 267.051C446.287 266.731 446.954 266.278 447.514 265.691C448.101 265.078 448.554 264.344 448.874 263.491C449.194 262.611 449.354 261.624 449.354 260.531C449.354 259.438 449.194 258.464 448.874 257.611C448.554 256.731 448.101 255.998 447.514 255.411C446.954 254.798 446.287 254.331 445.514 254.011C444.767 253.691 443.954 253.531 443.074 253.531C442.194 253.531 441.367 253.691 440.594 254.011C439.847 254.331 439.181 254.798 438.594 255.411C438.034 255.998 437.594 256.731 437.274 257.611C436.954 258.464 436.794 259.438 436.794 260.531C436.794 261.624 436.954 262.611 437.274 263.491C437.594 264.344 438.034 265.078 438.594 265.691C439.181 266.278 439.847 266.731 440.594 267.051C441.367 267.371 442.194 267.531 443.074 267.531ZM463.5 263.811L461.7 246.531H472.5L470.7 263.811H463.5ZM467.1 274.931C465.553 274.931 464.287 274.464 463.3 273.531C462.313 272.571 461.82 271.438 461.82 270.131C461.82 268.798 462.313 267.678 463.3 266.771C464.287 265.864 465.553 265.411 467.1 265.411C468.673 265.411 469.94 265.864 470.9 266.771C471.887 267.678 472.38 268.798 472.38 270.131C472.38 271.438 471.887 272.571 470.9 273.531C469.94 274.464 468.673 274.931 467.1 274.931Z" fill="white"/>
<defs>
<filter id="filter0_d_24_1215" x="9.44043" y="219.554" width="136.167" height="150.331" filterUnits="userSpaceOnUse" color-interpolation-filters="sRGB">
<feFlood flood-opacity="0" result="BackgroundImageFix"/>
<feColorMatrix in="SourceAlpha" type="matrix" values="0 0 0 0 0 0 0 0 0 0 0 0 0 0 0 0 0 0 127 0" result="hardAlpha"/>
<feOffset dy="4"/>
<feComposite in2="hardAlpha" operator="out"/>
<feColorMatrix type="matrix" values="0 0 0 0 0.886275 0 0 0 0 0.419608 0 0 0 0 0.117647 0 0 0 1 0"/>
<feBlend mode="normal" in2="BackgroundImageFix" result="effect1_dropShadow_24_1215"/>
<feBlend mode="normal" in="SourceGraphic" in2="effect1_dropShadow_24_1215" result="shape"/>
</filter>
<filter id="filter1_d_24_1215" x="444.451" y="219.554" width="149.116" height="152.561" filterUnits="userSpaceOnUse" color-interpolation-filters="sRGB">
<feFlood flood-opacity="0" result="BackgroundImageFix"/>
<feColorMatrix in="SourceAlpha" type="matrix" values="0 0 0 0 0 0 0 0 0 0 0 0 0 0 0 0 0 0 127 0" result="hardAlpha"/>
<feOffset dy="4"/>
<feComposite in2="hardAlpha" operator="out"/>
<feColorMatrix type="matrix" values="0 0 0 0 0.886275 0 0 0 0 0.419608 0 0 0 0 0.117647 0 0 0 1 0"/>
<feBlend mode="normal" in2="BackgroundImageFix" result="effect1_dropShadow_24_1215"/>
<feBlend mode="normal" in="SourceGraphic" in2="effect1_dropShadow_24_1215" result="shape"/>
</filter>
<filter id="filter2_d_24_1215" x="74.7065" y="176.332" width="439.288" height="167.565" filterUnits="userSpaceOnUse" color-interpolation-filters="sRGB">
<feFlood flood-opacity="0" result="BackgroundImageFix"/>
<feColorMatrix in="SourceAlpha" type="matrix" values="0 0 0 0 0 0 0 0 0 0 0 0 0 0 0 0 0 0 127 0" result="hardAlpha"/>
<feOffset dy="4"/>
<feComposite in2="hardAlpha" operator="out"/>
<feColorMatrix type="matrix" values="0 0 0 0 0.886275 0 0 0 0 0.419608 0 0 0 0 0.117647 0 0 0 1 0"/>
<feBlend mode="normal" in2="BackgroundImageFix" result="effect1_dropShadow_24_1215"/>
<feBlend mode="normal" in="SourceGraphic" in2="effect1_dropShadow_24_1215" result="shape"/>
</filter>
<linearGradient id="paint0_linear_24_1215" x1="220.02" y1="8.23764" x2="248.373" y2="242.653" gradientUnits="userSpaceOnUse">
<stop stop-color="#B91818" stop-opacity="0"/>
<stop offset="1" stop-color="#FFEFB8" stop-opacity="0.5"/>
</linearGradient>
<linearGradient id="paint1_linear_24_1215" x1="369.445" y1="6.15946" x2="343.748" y2="240.881" gradientUnits="userSpaceOnUse">
<stop stop-color="#B91818" stop-opacity="0"/>
<stop offset="1" stop-color="#FFEFB8" stop-opacity="0.5"/>
</linearGradient>
<linearGradient id="paint2_linear_24_1215" x1="103.33" y1="65.8314" x2="162.235" y2="259.753" gradientUnits="userSpaceOnUse">
<stop stop-color="#B91818" stop-opacity="0"/>
<stop offset="1" stop-color="#FFEFB8" stop-opacity="0.5"/>
</linearGradient>
<linearGradient id="paint3_linear_24_1215" x1="486.779" y1="62.4285" x2="430.074" y2="257.005" gradientUnits="userSpaceOnUse">
<stop stop-color="#B91818" stop-opacity="0"/>
<stop offset="1" stop-color="#FFEFB8" stop-opacity="0.5"/>
</linearGradient>
<linearGradient id="paint4_linear_24_1215" x1="31.1296" y1="156.642" x2="97.8458" y2="285.117" gradientUnits="userSpaceOnUse">
<stop stop-color="#B91818" stop-opacity="0"/>
<stop offset="1" stop-color="#FFEFB8" stop-opacity="0.5"/>
</linearGradient>
<linearGradient id="paint5_linear_24_1215" x1="560.004" y1="152.417" x2="494.746" y2="281.639" gradientUnits="userSpaceOnUse">
<stop stop-color="#B91818" stop-opacity="0"/>
<stop offset="1" stop-color="#FFEFB8" stop-opacity="0.5"/>
</linearGradient>
<linearGradient id="paint6_linear_24_1215" x1="46.2342" y1="154.367" x2="73.0796" y2="293.475" gradientUnits="userSpaceOnUse">
<stop stop-color="#FFCF25"/>
<stop offset="1" stop-color="#FD6843"/>
</linearGradient>
<linearGradient id="paint7_linear_24_1215" x1="551.144" y1="155.658" x2="524.524" y2="294.813" gradientUnits="userSpaceOnUse">
<stop stop-color="#FFCF25"/>
<stop offset="1" stop-color="#FD6843"/>
</linearGradient>
<linearGradient id="paint8_linear_24_1215" x1="294.35" y1="90.1017" x2="294.35" y2="264.19" gradientUnits="userSpaceOnUse">
<stop stop-color="#FFCF25"/>
<stop offset="1" stop-color="#FD6843"/>
</linearGradient>
</defs>
</svg>
