<svg width="119" height="89" viewBox="0 0 119 89" fill="none" xmlns="http://www.w3.org/2000/svg">
<g opacity="0.8">
<mask id="mask0_20_315" style="mask-type:luminance" maskUnits="userSpaceOnUse" x="0" y="0" width="119" height="89">
<path d="M0 5C0 2.23858 2.23858 0 5 0H113.667C116.428 0 118.667 2.23858 118.667 5V84C118.667 86.7614 116.428 89 113.667 89H5C2.23858 89 0 86.7614 0 84V5Z" fill="white"/>
</mask>
<g mask="url(#mask0_20_315)">
<path fill-rule="evenodd" clip-rule="evenodd" d="M5 0C2.23858 0 0 2.23858 0 5V84C0 86.7614 2.23858 89 5 89H113.667C116.428 89 118.667 86.7614 118.667 84V5C118.667 2.23858 116.428 0 113.667 0H5Z" fill="#FFB400"/>
<mask id="mask1_20_315" style="mask-type:luminance" maskUnits="userSpaceOnUse" x="0" y="0" width="119" height="89">
<path fill-rule="evenodd" clip-rule="evenodd" d="M5 0C2.23858 0 0 2.23858 0 5V84C0 86.7614 2.23858 89 5 89H113.667C116.428 89 118.667 86.7614 118.667 84V5C118.667 2.23858 116.428 0 113.667 0H5Z" fill="white"/>
</mask>
<g mask="url(#mask1_20_315)">
<path fill-rule="evenodd" clip-rule="evenodd" d="M5 0C2.23858 0 0 2.23858 0 5V17.25C0 20.0114 2.23858 22.25 5 22.25H113.667C116.428 22.25 118.667 20.0114 118.667 17.25V5C118.667 2.23858 116.428 0 113.667 0H5Z" fill="#C51918"/>
<path fill-rule="evenodd" clip-rule="evenodd" d="M5 66.75C2.23858 66.75 0 68.9886 0 71.75V84C0 86.7614 2.23858 89 5 89H113.667C116.428 89 118.667 86.7614 118.667 84V71.75C118.667 68.9886 116.428 66.75 113.667 66.75H5Z" fill="#C51918"/>
<path d="M18.5715 40.1683C18.5715 39.0214 19.5013 38.0917 20.6482 38.0917C21.7951 38.0917 22.7249 39.0214 22.7249 40.1683V57.6123C22.7249 58.7593 21.7951 59.689 20.6482 59.689C19.5013 59.689 18.5715 58.7593 18.5715 57.6123V40.1683Z" fill="#F1F9FF"/>
<path fill-rule="evenodd" clip-rule="evenodd" d="M24.3862 35.3918C24.3862 34.8184 23.9213 34.3535 23.3478 34.3535H17.9485C17.375 34.3535 16.9102 34.8184 16.9102 35.3918V35.8072C16.9102 36.1513 17.1891 36.4302 17.5332 36.4302C17.8772 36.4302 18.1562 36.7091 18.1562 37.0532V37.2608C18.1562 37.7196 18.528 38.0914 18.9868 38.0914H22.3095C22.7683 38.0914 23.1402 37.7196 23.1402 37.2608V37.0532C23.1402 36.7091 23.4191 36.4302 23.7632 36.4302C24.1072 36.4302 24.3862 36.1513 24.3862 35.8072V35.3918Z" fill="#C88A02"/>
<path fill-rule="evenodd" clip-rule="evenodd" d="M23.1402 60.3117C23.1402 60.6558 23.4191 60.9347 23.7632 60.9347C24.1072 60.9347 24.3862 61.2136 24.3862 61.5577V61.973C24.3862 62.5465 23.9213 63.0114 23.3478 63.0114H17.9485C17.375 63.0114 16.9102 62.5465 16.9102 61.973V61.5577C16.9102 61.2136 17.1891 60.9347 17.5332 60.9347C17.8772 60.9347 18.1562 60.6558 18.1562 60.3117V60.104C18.1562 59.6453 18.5281 59.2734 18.9868 59.2734H22.3095C22.7683 59.2734 23.1402 59.6453 23.1402 60.104V60.3117Z" fill="#C88A02"/>
<path fill-rule="evenodd" clip-rule="evenodd" d="M20.6483 34.7686C21.5521 34.7686 21.644 34.4282 22.1772 33.9199C22.5913 33.5252 23.5556 33.0357 23.5556 32.4842C23.5556 31.2226 22.254 30.1999 20.6483 30.1999C19.0426 30.1999 17.741 31.2226 17.741 32.4842C17.741 33.0986 18.4051 33.5094 18.9072 33.9199C19.4362 34.3524 19.8245 34.7686 20.6483 34.7686Z" fill="#AD1619"/>
<path fill-rule="evenodd" clip-rule="evenodd" d="M16.9102 64.3203C16.9102 63.5975 17.4961 63.0115 18.2189 63.0115H23.0774C23.8002 63.0115 24.3862 63.5975 24.3862 64.3203V64.408C24.3862 65.3139 23.423 65.9189 22.5172 65.9189C21.2909 65.9189 20.0055 65.9189 18.7792 65.9189C17.8733 65.9189 16.9102 65.3139 16.9102 64.408V64.3203Z" fill="#005BBF"/>
<mask id="mask2_20_315" style="mask-type:luminance" maskUnits="userSpaceOnUse" x="16" y="63" width="9" height="3">
<path fill-rule="evenodd" clip-rule="evenodd" d="M16.9102 64.3203C16.9102 63.5975 17.4961 63.0115 18.2189 63.0115H23.0774C23.8002 63.0115 24.3862 63.5975 24.3862 64.3203V64.408C24.3862 65.3139 23.423 65.9189 22.5172 65.9189C21.2909 65.9189 20.0055 65.9189 18.7792 65.9189C17.8733 65.9189 16.9102 65.3139 16.9102 64.408V64.3203Z" fill="white"/>
</mask>
<g mask="url(#mask2_20_315)">
<path d="M17.0467 65.5961C16.934 65.6407 16.8046 65.5892 16.7587 65.4771C16.7145 65.3695 16.7638 65.246 16.8716 65.2026C17.4813 64.9572 18.0929 64.8342 18.7053 64.8342C19.1426 64.8342 19.3709 64.895 19.7591 65.0678C20.1 65.2195 20.2767 65.2666 20.6496 65.2666C21.0225 65.2666 21.1992 65.2195 21.5402 65.0678C21.9283 64.895 22.1567 64.8342 22.5939 64.8342C23.2063 64.8342 23.8179 64.9572 24.4276 65.2026C24.5355 65.246 24.5847 65.3695 24.5406 65.4771C24.4946 65.5892 24.3652 65.6407 24.2525 65.5961C23.6982 65.3763 23.1457 65.2666 22.5939 65.2666C22.221 65.2666 22.0443 65.314 21.7033 65.4657C21.3152 65.6385 21.0869 65.6993 20.6496 65.6993C20.2124 65.6993 19.984 65.6385 19.5959 65.4657C19.255 65.314 19.0782 65.2666 18.7053 65.2666C18.1536 65.2666 17.601 65.3763 17.0467 65.5961Z" fill="white"/>
<path d="M17.0467 64.3498C16.9341 64.3945 16.8046 64.343 16.7586 64.2309C16.7145 64.1234 16.7638 63.9998 16.8716 63.9564C17.4813 63.7109 18.0929 63.5876 18.7053 63.5876C19.1426 63.5876 19.3709 63.6488 19.7591 63.8213C20.1 63.9733 20.2767 64.0204 20.6496 64.0204C21.0225 64.0204 21.1992 63.9733 21.5402 63.8213C21.9283 63.6488 22.1567 63.5876 22.5939 63.5876C23.2063 63.5876 23.8179 63.7109 24.4277 63.9564C24.5355 63.9998 24.5847 64.1234 24.5406 64.2309C24.4946 64.343 24.3652 64.3945 24.2525 64.3498C23.6982 64.1299 23.1457 64.0204 22.5939 64.0204C22.221 64.0204 22.0443 64.0675 21.7033 64.2192C21.3152 64.392 21.0869 64.4532 20.6496 64.4532C20.2124 64.4532 19.984 64.392 19.5959 64.2192C19.255 64.0675 19.0782 64.0204 18.7053 64.0204C18.1536 64.0204 17.601 64.1299 17.0467 64.3498Z" fill="white"/>
</g>
<path d="M59.2732 40.1683C59.2732 39.0214 60.2029 38.0917 61.3499 38.0917C62.4968 38.0917 63.4265 39.0214 63.4265 40.1683V57.6123C63.4265 58.7593 62.4968 59.689 61.3499 59.689C60.2029 59.689 59.2732 58.7593 59.2732 57.6123V40.1683Z" fill="#F1F9FF"/>
<path fill-rule="evenodd" clip-rule="evenodd" d="M65.0883 35.3918C65.0883 34.8184 64.6234 34.3535 64.05 34.3535H58.6506C58.0772 34.3535 57.6123 34.8184 57.6123 35.3918V35.8072C57.6123 36.1513 57.8912 36.4302 58.2353 36.4302C58.5794 36.4302 58.8583 36.7091 58.8583 37.0532V37.2608C58.8583 37.7196 59.2302 38.0914 59.6889 38.0914H63.0117C63.4704 38.0914 63.8423 37.7196 63.8423 37.2608V37.0532C63.8423 36.7091 64.1212 36.4302 64.4653 36.4302C64.8094 36.4302 65.0883 36.1513 65.0883 35.8072V35.3918Z" fill="#C88A02"/>
<path fill-rule="evenodd" clip-rule="evenodd" d="M63.8423 60.3117C63.8423 60.6558 64.1212 60.9347 64.4653 60.9347C64.8094 60.9347 65.0883 61.2136 65.0883 61.5577V61.973C65.0883 62.5465 64.6234 63.0114 64.05 63.0114H58.6506C58.0772 63.0114 57.6123 62.5465 57.6123 61.973V61.5577C57.6123 61.2136 57.8912 60.9347 58.2353 60.9347C58.5794 60.9347 58.8583 60.6558 58.8583 60.3117V60.104C58.8583 59.6453 59.2302 59.2734 59.689 59.2734H63.0116C63.4704 59.2734 63.8423 59.6453 63.8423 60.104V60.3117Z" fill="#C88A02"/>
<path fill-rule="evenodd" clip-rule="evenodd" d="M61.3502 34.7686C62.2539 34.7686 62.3459 34.4282 62.8792 33.9199C63.2934 33.5252 64.2575 33.0357 64.2575 32.4842C64.2575 31.2226 62.9559 30.1999 61.3502 30.1999C59.7445 30.1999 58.4429 31.2226 58.4429 32.4842C58.4429 33.0986 59.107 33.5094 59.6091 33.9199C60.1379 34.3524 60.5266 34.7686 61.3502 34.7686Z" fill="#AD1619"/>
<path fill-rule="evenodd" clip-rule="evenodd" d="M57.6123 64.3203C57.6123 63.5975 58.1983 63.0115 58.9211 63.0115H63.7795C64.5023 63.0115 65.0883 63.5975 65.0883 64.3203V64.408C65.0883 65.3139 64.1252 65.9189 63.2193 65.9189C61.993 65.9189 60.7076 65.9189 59.4813 65.9189C58.5754 65.9189 57.6123 65.3139 57.6123 64.408V64.3203Z" fill="#005BBF"/>
<mask id="mask3_20_315" style="mask-type:luminance" maskUnits="userSpaceOnUse" x="57" y="63" width="9" height="3">
<path fill-rule="evenodd" clip-rule="evenodd" d="M57.6123 64.3203C57.6123 63.5975 58.1983 63.0115 58.9211 63.0115H63.7795C64.5023 63.0115 65.0883 63.5975 65.0883 64.3203V64.408C65.0883 65.3139 64.1252 65.9189 63.2193 65.9189C61.993 65.9189 60.7076 65.9189 59.4813 65.9189C58.5754 65.9189 57.6123 65.3139 57.6123 64.408V64.3203Z" fill="white"/>
</mask>
<g mask="url(#mask3_20_315)">
<path d="M57.7488 65.596C57.6362 65.6407 57.5067 65.5892 57.4608 65.4771C57.4167 65.3695 57.4659 65.246 57.5737 65.2026C58.1833 64.9572 58.7951 64.8342 59.4075 64.8342C59.8447 64.8342 60.0727 64.895 60.461 65.0678C60.8022 65.2195 60.9787 65.2666 61.3517 65.2666C61.7244 65.2666 61.9013 65.2195 62.2421 65.0678C62.6304 64.895 62.8588 64.8342 63.296 64.8342C63.9084 64.8342 64.5199 64.9572 65.1297 65.2026C65.2375 65.246 65.2868 65.3695 65.2427 65.4771C65.1967 65.5892 65.0673 65.6407 64.9546 65.5961C64.4002 65.3763 63.8477 65.2666 63.296 65.2666C62.923 65.2666 62.7464 65.314 62.4053 65.4657C62.017 65.6385 61.7889 65.6993 61.3517 65.6993C60.9145 65.6993 60.6861 65.6385 60.2978 65.4657C59.957 65.314 59.7801 65.2666 59.4075 65.2666C58.8555 65.2666 58.303 65.3763 57.7488 65.596Z" fill="white"/>
<path d="M57.7489 64.3498C57.6362 64.3945 57.5067 64.343 57.4607 64.2309C57.4167 64.1233 57.4659 63.9998 57.5737 63.9564C58.1832 63.7109 58.795 63.5876 59.4075 63.5876C59.8447 63.5876 60.0727 63.6488 60.461 63.8213C60.8022 63.9733 60.9787 64.0204 61.3517 64.0204C61.7244 64.0204 61.9013 63.9733 62.2421 63.8213C62.6304 63.6488 62.8588 63.5876 63.296 63.5876C63.9084 63.5876 64.52 63.7109 65.1298 63.9564C65.2376 63.9998 65.2868 64.1234 65.2427 64.2309C65.1967 64.343 65.0673 64.3945 64.9546 64.3498C64.4002 64.1299 63.8477 64.0204 63.296 64.0204C62.923 64.0204 62.7464 64.0675 62.4053 64.2192C62.017 64.392 61.7889 64.4532 61.3517 64.4532C60.9145 64.4532 60.6861 64.392 60.2978 64.2192C59.957 64.0675 59.7801 64.0204 59.4075 64.0204C58.8555 64.0204 58.303 64.1299 57.7489 64.3498Z" fill="white"/>
</g>
<path fill-rule="evenodd" clip-rule="evenodd" d="M16.3702 56.3914C17.545 57.3605 19.5708 57.2172 19.6603 55.6968C19.6634 55.6431 19.665 55.5892 19.665 55.5351C19.665 55.0025 19.5122 54.5397 19.2433 54.1574C19.2275 54.1349 19.2357 54.1034 19.2608 54.0922C19.2563 54.0944 20.0822 53.7343 20.3698 53.5964C20.9044 53.3401 21.3753 53.0687 21.8345 52.7346C22.1276 52.5213 22.5204 52.2892 23.1192 51.9677C23.2226 51.9121 23.5031 51.7634 23.6819 51.6684L23.8337 51.588C24.1248 51.4326 24.3414 51.3135 24.5428 51.1967C25.1701 50.8329 25.5847 50.5322 25.9018 50.1298C26.6528 49.1775 26.4968 47.8867 25.4444 47.1702C24.9288 46.819 24.233 46.6177 23.2131 46.4593L23.0022 46.4267C22.6538 46.3726 21.9844 46.2691 21.7545 46.2331C21.5025 46.1935 21.5076 45.8772 21.7618 45.8562C23.6044 45.7041 25.6948 45.8052 27.164 46.1848C27.7807 46.3441 28.483 46.1177 28.7752 45.5517L29.0083 45.1002C29.4292 44.2849 29.1048 43.2827 28.2209 43.0366C24.5559 42.0162 18.6756 42.3705 16.2735 44.0244C14.2332 45.4299 14.507 47.5537 16.6298 48.4685C17.3523 48.7796 18.2533 49.0055 19.7188 49.2644C20.085 49.3291 20.1811 49.8288 19.8802 50.0475C19.5993 50.2518 19.2983 50.4254 18.9332 50.6004C18.7587 50.6839 18.2417 50.9108 18.0047 51.015L17.8854 51.0677C16.1563 51.8538 15.3171 52.9415 15.5679 54.9051L15.6789 55.7748C15.694 55.8923 15.7765 55.9902 15.8898 56.0249C15.9276 56.0364 15.9628 56.0554 15.9934 56.0806L16.3702 56.3914ZM16.36 55.3994L16.3548 55.4146L16.3588 55.4038L16.36 55.3994ZM61.9517 55.5351C61.9517 55.589 61.9533 55.6427 61.9564 55.6962C62.0455 57.2169 64.0717 57.3604 65.2468 56.3912L65.6235 56.0805C65.654 56.0554 65.6891 56.0364 65.7269 56.0249C65.8402 55.9902 65.9226 55.8924 65.9376 55.7749L66.0487 54.9051C66.2997 52.9415 65.4605 51.8538 63.7313 51.0677L63.6123 51.015C63.3753 50.9112 62.858 50.6839 62.6833 50.6004C62.3184 50.4254 62.0173 50.2518 61.7366 50.0475C61.4357 49.8288 61.5318 49.3291 61.898 49.2644C63.3634 49.0055 64.2646 48.7796 64.987 48.4685C67.1096 47.5537 67.3833 45.4299 65.343 44.0244C62.9411 42.3706 57.0608 42.0162 53.3958 43.0366C52.5118 43.2827 52.1874 44.2849 52.6084 45.1003L52.8415 45.5517C53.1337 46.1177 53.836 46.3441 54.4527 46.1848C55.9218 45.8052 58.0121 45.7041 59.8547 45.8562C60.109 45.8772 60.1141 46.1935 59.862 46.2331C59.6325 46.2691 58.9631 46.3726 58.6146 46.4263L58.4036 46.4593C57.3838 46.6177 56.6877 46.819 56.1722 47.1702C55.1198 47.8867 54.9641 49.1775 55.715 50.1298C56.0321 50.5322 56.4467 50.8329 57.0737 51.1967C57.2751 51.3135 57.492 51.4326 57.7828 51.588L57.9341 51.6681C58.1128 51.763 58.3939 51.9121 58.4974 51.9677C59.0963 52.2892 59.489 52.5213 59.7823 52.7346C60.2414 53.0687 60.7124 53.3401 61.2467 53.5964C61.5345 53.7343 62.3603 54.0944 62.3559 54.0922C62.3809 54.1034 62.3891 54.1349 62.3733 54.1573C62.1045 54.5396 61.9517 55.0024 61.9517 55.5351Z" fill="#AD1619"/>
<path d="M21.8261 45.9827C21.9191 45.9827 22.0118 45.9922 22.1029 46.011C22.7371 46.1422 23.1919 46.7008 23.1919 47.3484V47.3846C23.1919 47.8136 22.9985 48.2213 22.6451 48.4645C22.2274 48.7521 21.728 49.0645 21.2243 49.3659C20.0388 50.0754 18.5715 49.1974 18.5715 47.8158C18.5715 46.8034 19.3923 45.9827 20.4047 45.9827H21.8261Z" fill="#F1F9FF"/>
<path d="M60.639 45.9827C60.546 45.9827 60.4533 45.9922 60.3623 46.011C59.728 46.1422 59.2732 46.7008 59.2732 47.3484V47.3846C59.2732 47.8136 59.4666 48.2213 59.82 48.4645C60.2377 48.7521 60.7372 49.0646 61.241 49.366C62.4265 50.0755 63.8938 49.1975 63.8938 47.8158C63.8938 46.8034 63.073 45.9827 62.0606 45.9827H60.639Z" fill="#F1F9FF"/>
<path fill-rule="evenodd" clip-rule="evenodd" d="M54.6036 26.914C54.7261 26.7909 54.7949 26.6244 54.7949 26.4507C54.7949 26.2392 54.6934 26.0397 54.5188 25.9202C52.7824 24.7323 50.9797 24.0469 49.1109 23.8639C48.4357 23.7978 47.7668 23.6614 47.1294 23.429C45.2008 22.7259 43.2521 22.469 41.2832 22.6583C41.2801 22.6586 41.2776 22.6561 41.2779 22.653C41.2782 22.6504 41.2762 22.648 41.2736 22.6477C38.9365 22.4203 36.588 23.0358 35.3154 23.4568C34.6677 23.6711 33.9922 23.7959 33.3149 23.8774C30.833 24.1757 28.6623 25.4459 27.9134 25.9276C27.7355 26.042 27.6353 26.2392 27.6353 26.4507C27.6353 26.6244 27.704 26.7909 27.8266 26.914L30.9237 30.0246C31.5146 30.6181 31.9362 31.3805 32.4914 32.0077C33.4861 33.1314 35.8576 34.6484 41.2559 34.0275C41.2587 34.0271 41.2613 34.0293 41.2613 34.0322C41.2613 34.0349 41.2602 34.0371 41.2629 34.0371C41.3677 34.0342 46.7323 33.8866 47.1127 33.7601C47.2651 33.7094 47.4235 33.6633 47.5848 33.6161C48.4473 33.3643 49.4081 33.0838 50.1295 31.9304C50.5174 31.3103 50.8734 30.6605 51.3895 30.1421L54.6036 26.914ZM41.2613 22.8449C40.9922 26.0027 41.2613 26.0141 41.2613 22.8449V22.8449Z" fill="#AD1619"/>
<path fill-rule="evenodd" clip-rule="evenodd" d="M30.8382 30.2239C30.8337 30.2229 30.8308 30.2185 30.8318 30.2139C30.8324 30.2111 30.8315 30.2081 30.8293 30.2061L28.037 27.5789C27.9535 27.5003 27.9494 27.3689 28.028 27.2854C28.1066 27.2019 28.238 27.1979 28.3216 27.2764L30.7808 29.5901C30.849 29.6543 30.961 29.6195 30.9809 29.528C30.995 29.4631 31.0592 29.422 31.1243 29.4352C31.3946 29.49 31.6164 29.5205 31.7856 29.5281C31.8975 29.5331 31.9823 29.4395 31.9823 29.3275C31.9823 29.1616 32.1596 29.056 32.3055 29.135L32.5953 29.2918C32.8968 29.455 33.3286 29.4989 33.8974 29.4063C34.3151 29.3383 34.597 28.8532 34.6891 27.8194C34.7295 27.3665 35.3638 27.2985 35.4993 27.7326C35.7817 28.6377 36.2125 29.0367 36.8259 29.0367C37.4251 29.0367 37.6658 28.817 37.6925 28.2634C37.7129 27.8375 38.2853 27.7153 38.4779 28.0958C38.7334 28.601 39.0865 28.8302 39.5878 28.8302C40.302 28.8302 40.7799 28.2378 40.7845 27.3072C40.7845 27.2999 40.7905 27.2938 40.7979 27.2938H41.6152C41.6226 27.2938 41.6285 27.2999 41.6286 27.3072C41.6331 28.2378 42.1115 28.8302 42.8252 28.8302C43.3269 28.8302 43.6796 28.601 43.9355 28.0958C44.1281 27.7153 44.7004 27.8375 44.7209 28.2634C44.7472 28.817 44.9883 29.0367 45.5872 29.0367C46.2005 29.0367 46.6314 28.6377 46.9136 27.7326C47.0491 27.2985 47.6835 27.3664 47.7239 27.8194C47.8163 28.8532 48.0981 29.3383 48.5156 29.4063C49.0845 29.4989 49.5162 29.455 49.8176 29.2918L50.1075 29.135C50.2533 29.056 50.4306 29.1616 50.4306 29.3275C50.4306 29.4395 50.5155 29.5331 50.6273 29.5281C50.775 29.5215 50.9627 29.4974 51.1877 29.455C51.3089 29.4321 51.4279 29.5081 51.4541 29.6287C51.491 29.7984 51.6989 29.8629 51.8254 29.7439L54.4479 27.2764C54.5315 27.1978 54.6629 27.2018 54.7415 27.2853C54.8202 27.3689 54.8162 27.5004 54.7326 27.579L51.6012 30.5251C51.2522 30.8535 50.9531 31.2333 50.7393 31.6621C50.4061 32.3301 50.2385 32.7836 50.2385 33.0007C50.2385 33.4288 49.1246 33.683 46.9507 33.944C45.2475 34.1485 43.2376 34.2857 41.5933 34.3062L41.3849 34.3083L41.1765 34.3089C39.5322 34.2884 37.5223 34.1485 35.819 33.944C33.6449 33.683 32.531 33.4288 32.531 33.0007C32.531 32.8662 32.455 32.7463 32.3874 32.63C32.2708 32.4298 32.1764 32.181 32.1013 31.9306C32.0461 31.7463 31.9894 31.5784 31.9009 31.4076C31.7721 31.1593 31.5915 30.9231 31.3877 30.7314L30.8547 30.23C30.8525 30.2278 30.8497 30.2264 30.8467 30.2257L30.8382 30.2239ZM50.7766 30.7306C50.9158 30.5997 50.7972 30.3567 50.6063 30.3637C50.3546 30.3729 50.1464 30.3487 49.986 30.2843C49.8701 30.2378 49.7427 30.2079 49.6203 30.2323C49.2573 30.3048 48.8441 30.3013 48.3821 30.2262C47.8908 30.1462 47.5251 29.8581 47.276 29.3843C47.2122 29.2631 47.0302 29.2462 46.9312 29.3407C46.7857 29.4795 46.8683 29.9798 47.0666 30.0134C48.84 30.3144 50.0923 30.6439 50.3932 30.7259C50.4341 30.7371 50.4671 30.7113 50.4619 30.7534C50.4493 30.8563 50.6221 30.9841 50.6713 30.8929C50.6879 30.8622 50.7047 30.8312 50.7217 30.7999C50.7242 30.7953 50.727 30.7909 50.7302 30.7868L50.7561 30.7532C50.7624 30.7451 50.7692 30.7376 50.7766 30.7306ZM44.0729 29.618C44.1954 29.6294 44.2887 29.3897 44.2142 29.292C44.1729 29.2378 44.0937 29.2258 44.0397 29.2674C44.0233 29.28 44.0068 29.2923 43.99 29.3043C43.8885 29.3773 43.9278 29.6045 44.0524 29.6161C44.0592 29.6167 44.0661 29.6174 44.0729 29.618ZM41.3256 29.4688C41.4746 29.4705 41.5569 29.2041 41.4528 29.0975C41.4198 29.0638 41.388 29.0287 41.3573 28.9924C41.2803 28.9013 41.1327 28.9014 41.0558 28.9924C41.0046 29.053 40.9502 29.1101 40.8928 29.1634C40.7986 29.2508 40.8641 29.4721 40.9925 29.4707L41.1591 29.4693L41.3256 29.4688ZM32.0551 30.691C32.0041 30.7045 31.9505 30.6907 31.9121 30.6545C31.8064 30.555 31.888 30.3704 32.033 30.3622C32.2034 30.3525 32.3477 30.3222 32.4641 30.2683C32.5544 30.2265 32.6559 30.2029 32.7532 30.2241C33.1258 30.3049 33.5523 30.3041 34.0308 30.2262C34.5203 30.1466 34.885 29.8604 35.1341 29.39C35.1995 29.2665 35.3852 29.2491 35.4867 29.3452C35.6341 29.485 35.5532 29.9629 35.3528 29.9964C33.7194 30.2696 32.5117 30.5706 32.0551 30.691ZM38.4143 29.2979C38.5157 29.3718 38.4756 29.597 38.3506 29.6083C38.3457 29.6088 38.3408 29.6092 38.3358 29.6097C38.2131 29.6208 38.1229 29.3914 38.1978 29.2935C38.2398 29.2387 38.3203 29.2264 38.375 29.2685C38.388 29.2785 38.4011 29.2883 38.4143 29.2979ZM49.1468 33.0088C49.3803 33.1182 49.5768 33.0521 49.7407 32.8867C49.7686 32.8586 49.8301 32.8882 49.8267 32.9277C49.8257 32.939 49.8199 32.9475 49.81 32.9533C49.7863 32.9671 49.7542 32.9829 49.7146 32.9996C49.5777 33.0571 49.3689 33.1184 49.0971 33.1804C48.5627 33.3023 47.8025 33.4234 46.901 33.5316C45.1411 33.7429 43.0484 33.882 41.3849 33.8929C39.721 33.882 37.6283 33.7429 35.8685 33.5316C34.9672 33.4234 34.2068 33.3023 33.6726 33.1804C33.4697 33.1341 33.3018 33.0882 33.1728 33.044C33.1569 33.0385 33.1566 33.0159 33.1718 33.0088C34.0791 32.5842 40.0788 32.1858 41.1591 32.1171C42.2397 32.1858 48.2394 32.5842 49.1468 33.0088Z" fill="#C88A02"/>
<path fill-rule="evenodd" clip-rule="evenodd" d="M41.2077 19.829C41.8956 19.829 42.4537 19.2712 42.4537 18.583C42.4537 17.8949 41.8956 17.337 41.2077 17.337C40.5194 17.337 39.9617 17.8949 39.9617 18.583C39.9617 19.2712 40.5194 19.829 41.2077 19.829Z" fill="#005BBF"/>
<path fill-rule="evenodd" clip-rule="evenodd" d="M40.3981 25.9469C40.4255 26.0891 40.2767 26.25 40.1326 26.2357C40.077 26.2302 40.0199 26.2273 39.9616 26.2273C39.3883 26.2273 38.9233 26.5063 38.9233 26.8503C38.9233 27.1944 39.3883 27.4733 39.9616 27.4733C40.5349 27.4733 41 27.1944 41 26.8503C41 27.1944 41.465 27.4733 42.0383 27.4733C42.6116 27.4733 43.0766 27.1944 43.0766 26.8503C43.0766 26.5063 42.6116 26.2273 42.0383 26.2273C41.8457 26.2273 41.6635 26.0592 41.6444 25.8675C41.6392 25.8154 41.6315 25.7625 41.6211 25.7092C41.5117 25.1462 41.1491 24.7431 40.8112 24.8088C40.4738 24.8744 40.2883 25.384 40.3981 25.9469ZM33.9025 26.651C34.0467 26.6654 34.1956 26.5045 34.1679 26.3622C34.0585 25.7993 34.2436 25.2897 34.5814 25.2241C34.9191 25.1584 35.2816 25.5616 35.391 26.1245C35.4014 26.1779 35.4092 26.2308 35.4144 26.2829C35.4335 26.4745 35.6158 26.6427 35.8083 26.6427C36.3817 26.6427 36.8466 26.9216 36.8466 27.2657C36.8466 27.6097 36.3817 27.8887 35.8083 27.8887C35.2348 27.8887 34.7699 27.6097 34.7699 27.2657C34.7699 27.6097 34.3051 27.8887 33.7316 27.8887C33.1581 27.8887 32.6933 27.6097 32.6933 27.2657C32.6933 26.9216 33.1581 26.6427 33.7316 26.6427C33.7898 26.6427 33.8469 26.6455 33.9025 26.651ZM47.2964 27.1194C47.2485 27.4601 46.7494 27.6716 46.1816 27.5918C45.6135 27.512 45.1922 27.1711 45.2401 26.8304C45.2879 26.4897 45.7871 26.2782 46.3548 26.358C46.4125 26.3661 46.4687 26.3768 46.5229 26.39C46.6637 26.4243 46.8335 26.2856 46.8261 26.141C46.7961 25.5683 47.0501 25.0895 47.3939 25.0715C47.7373 25.0534 48.0402 25.5031 48.0703 26.0758C48.0731 26.1301 48.0734 26.1835 48.0713 26.2358C48.0635 26.4283 48.2207 26.6202 48.4114 26.647C48.9792 26.7268 49.4008 27.0677 49.353 27.4084C49.3052 27.7491 48.806 27.9607 48.2379 27.8809C47.6702 27.801 47.2485 27.4601 47.2964 27.1194ZM51.2509 28.7669C51.7575 29.0361 52.2989 29.008 52.4602 28.7042C52.4644 28.696 52.4755 28.6943 52.4821 28.7008C52.5292 28.7466 52.5837 28.7803 52.6453 28.799C52.9742 28.8997 53.3769 28.5366 53.5445 27.9882C53.7121 27.4398 53.5812 26.9137 53.2523 26.8131C52.9234 26.7125 52.5207 27.0755 52.353 27.6239C52.3106 27.7626 52.1037 27.8347 51.983 27.7543C51.9365 27.7233 51.8875 27.694 51.8361 27.6667C51.3295 27.3975 50.7881 27.4255 50.6268 27.7293C50.4651 28.0331 50.7447 28.4976 51.2509 28.7669ZM30.8718 28.8941C30.3655 29.1633 29.8241 29.1353 29.6626 28.8315C29.6582 28.8234 29.6472 28.8216 29.6407 28.828C29.5937 28.8738 29.5392 28.9075 29.4777 28.9263C29.1487 29.0268 28.746 28.6638 28.5784 28.1155C28.4107 27.5671 28.5416 27.0409 28.8706 26.9404C29.1997 26.8397 29.6023 27.2028 29.77 27.7511C29.8123 27.8898 30.0193 27.9619 30.14 27.8815C30.1865 27.8506 30.2355 27.8213 30.2869 27.7939C30.7932 27.5247 31.3346 27.5528 31.4961 27.8565C31.6577 28.1603 31.3781 28.6249 30.8718 28.8941Z" fill="#C88A02"/>
<path fill-rule="evenodd" clip-rule="evenodd" d="M40.7429 15.3912C40.7429 15.2403 40.8652 15.1179 41.0162 15.1179H41.3347C41.4857 15.1179 41.608 15.2403 41.608 15.3912C41.608 15.5422 41.7304 15.6645 41.8813 15.6645H41.8908C42.047 15.6645 42.1736 15.7911 42.1736 15.9473V16.247C42.1736 16.4032 42.047 16.5298 41.8908 16.5298C41.7346 16.5298 41.608 16.6564 41.608 16.8126V17.9776C41.608 18.1338 41.7346 18.2604 41.8908 18.2604C42.047 18.2604 42.1736 18.387 42.1736 18.5431V18.693C42.1736 18.9319 41.9799 19.1256 41.7409 19.1256H40.6011C40.3622 19.1256 40.1685 18.9319 40.1685 18.693V18.5476C40.1685 18.389 40.297 18.2604 40.4557 18.2604C40.6143 18.2604 40.7429 18.1318 40.7429 17.9732V16.817C40.7429 16.6584 40.6143 16.5298 40.4557 16.5298C40.297 16.5298 40.1685 16.4012 40.1685 16.2426V15.9517C40.1685 15.7931 40.297 15.6645 40.4557 15.6645H40.4696C40.6205 15.6645 40.7429 15.5422 40.7429 15.3912Z" fill="#C88A02"/>
<path d="M40.5847 20.6478C40.5847 20.189 40.9566 19.8171 41.4154 19.8171C41.8741 19.8171 42.2461 20.189 42.2461 20.6478V24.3858C42.2461 24.8446 41.8741 25.2165 41.4154 25.2165C40.9566 25.2165 40.5847 24.8446 40.5847 24.3858V20.6478Z" fill="#C88A02"/>
<path d="M33.6882 20.7186C33.8029 20.72 33.8954 20.8146 33.8934 20.9293C33.8914 21.044 33.7957 21.1352 33.681 21.1339C30.1271 21.0933 28.0844 21.6305 27.5583 22.6812C27.0258 23.745 27.0999 25.029 27.7951 26.5459C27.8429 26.6502 27.8002 26.7746 27.6971 26.8247C27.5939 26.8748 27.4693 26.8317 27.4215 26.7275C26.6741 25.1005 26.5911 23.6856 27.187 22.4953C27.8122 21.2465 29.9774 20.6757 33.6882 20.7186Z" fill="white"/>
<path d="M34.4366 24.289C34.5288 24.3572 34.5618 24.4838 34.503 24.5823C34.4442 24.6808 34.316 24.7136 34.2226 24.647C33.5365 24.1573 33.1931 23.3799 33.1931 22.3383C33.1931 20.7197 34.0269 19.7705 35.8712 19.121C37.0105 18.7197 38.5535 18.866 40.504 19.5475C40.6123 19.5854 40.6681 19.7046 40.6289 19.8125C40.5898 19.9203 40.4707 19.9758 40.3624 19.938C38.4952 19.2863 37.0429 19.1487 36.0092 19.5127C34.3175 20.1085 33.6085 20.9157 33.6085 22.3383C33.6085 23.2372 33.8843 23.8801 34.4366 24.289Z" fill="white"/>
<path d="M28.2766 25.7019C28.3444 25.921 28.2318 26.1583 28.0154 26.2343C27.799 26.3103 27.5608 26.1964 27.4928 25.9773C26.8411 23.8776 27.123 22.445 28.4321 21.806C29.5834 21.244 31.2298 20.9954 33.3789 21.047C33.6082 21.0525 33.7866 21.2462 33.7773 21.4754C33.768 21.7046 33.5747 21.8825 33.3454 21.8771C31.3254 21.8299 29.8067 22.0593 28.7964 22.5525C27.9462 22.9675 27.7428 23.9766 28.2766 25.7019Z" fill="#C88A02"/>
<path d="M37.5633 20.1683C35.6641 20.1683 34.8842 20.6309 34.4386 21.9966C34.1913 22.7547 34.3684 23.4161 35.0082 24.0323C35.1735 24.1914 35.209 24.45 35.0683 24.6312C34.9276 24.8124 34.6648 24.8468 34.4966 24.6908C33.5856 23.8458 33.2888 22.8428 33.649 21.739C34.2168 19.9985 35.331 19.3376 37.5633 19.3376C39.0266 19.3376 40.1661 19.7221 40.9597 20.5044C41.039 20.5824 41.0836 20.689 41.0836 20.8002V24.2159C41.0836 24.4453 40.8976 24.6312 40.6682 24.6312C40.4389 24.6312 40.2529 24.4453 40.2529 24.2159V22.1243C40.2529 21.3983 39.9503 20.6604 39.2649 20.4209C38.7849 20.2531 38.2187 20.1683 37.5633 20.1683Z" fill="#C88A02"/>
<path d="M48.5995 21.1335C48.4848 21.1348 48.3923 21.2295 48.3943 21.3442C48.3964 21.4589 48.492 21.5501 48.6067 21.5488C52.1607 21.5082 54.2036 22.0453 54.7297 23.0961C55.2622 24.1598 55.1881 25.4439 54.4928 26.9609C54.445 27.0651 54.4876 27.1895 54.5907 27.2396C54.6939 27.2897 54.8184 27.2466 54.8663 27.1424C55.6137 25.5154 55.6966 24.1004 55.1009 22.9101C54.4758 21.6613 52.3106 21.0905 48.5995 21.1335Z" fill="white"/>
<path d="M47.2625 24.3751C47.1704 24.4433 47.1373 24.5699 47.1961 24.6683C47.2549 24.7668 47.3831 24.7997 47.4765 24.7331C48.1627 24.2433 48.5059 23.466 48.5059 22.4244C48.5059 20.8058 47.6723 19.8566 45.8278 19.207C44.6886 18.8058 43.1458 18.9521 41.1952 19.6336C41.087 19.6715 41.0312 19.7907 41.0704 19.8986C41.1095 20.0064 41.2286 20.0619 41.3369 20.0241C43.2038 19.3724 44.6562 19.2347 45.6898 19.5988C47.3816 20.1945 48.0906 21.0018 48.0906 22.4244C48.0906 23.3233 47.8148 23.9662 47.2625 24.3751Z" fill="white"/>
<path d="M54.2699 26.1174C54.202 26.3366 54.3147 26.5739 54.5312 26.6499C54.7476 26.7259 54.9858 26.612 55.0538 26.3929C55.7055 24.2931 55.4234 22.8606 54.1143 22.2216C52.9633 21.6596 51.3168 21.411 49.1678 21.4626C48.9384 21.4681 48.76 21.6619 48.7693 21.8911C48.7786 22.1203 48.972 22.2981 49.2013 22.2927C51.2211 22.2455 52.7399 22.4749 53.7502 22.968C54.6002 23.3831 54.8038 24.3922 54.2699 26.1174Z" fill="#C88A02"/>
<path d="M44.9361 20.2326C46.8355 20.2326 47.6154 20.6952 48.0607 22.0609C48.3082 22.8191 48.131 23.4804 47.4911 24.0966C47.3259 24.2558 47.2904 24.5144 47.4311 24.6956C47.5718 24.8768 47.8346 24.9112 48.0028 24.7552C48.9139 23.9102 49.2107 22.9071 48.8506 21.8033C48.2825 20.0628 47.1685 19.402 44.9361 19.402C43.4732 19.402 42.3332 19.7864 41.5396 20.5687C41.4604 20.6467 41.4158 20.7533 41.4158 20.8646V24.2803C41.4158 24.5096 41.6017 24.6956 41.8311 24.6956C42.0605 24.6956 42.2464 24.5096 42.2464 24.2803V22.189C42.2464 21.4628 42.5493 20.7247 43.2348 20.4851C43.7148 20.3175 44.2807 20.2326 44.9361 20.2326Z" fill="#C88A02"/>
<path opacity="0.3" fill-rule="evenodd" clip-rule="evenodd" d="M27.709 39.3535C27.709 36.5921 29.9476 34.3535 32.709 34.3535H49.7055C52.4669 34.3535 54.7055 36.5921 54.7055 39.3535V58.0022C54.7055 58.4052 54.6594 58.8055 54.5153 59.1818C53.8055 61.0353 50.8364 66.7494 41.2071 66.7494C31.534 66.7494 28.5818 60.8307 27.8895 58.9566C27.7533 58.5878 27.709 58.196 27.709 57.8029V39.3535Z" fill="#E1E5E8"/>
<mask id="mask4_20_315" style="mask-type:luminance" maskUnits="userSpaceOnUse" x="27" y="34" width="28" height="33">
<path fill-rule="evenodd" clip-rule="evenodd" d="M27.709 39.3535C27.709 36.5921 29.9476 34.3535 32.709 34.3535H49.7055C52.4669 34.3535 54.7055 36.5921 54.7055 39.3535V58.0022C54.7055 58.4052 54.6594 58.8055 54.5153 59.1818C53.8055 61.0353 50.8364 66.7494 41.2071 66.7494C31.534 66.7494 28.5818 60.8307 27.8895 58.9566C27.7533 58.5878 27.709 58.196 27.709 57.8029V39.3535Z" fill="white"/>
</mask>
<g mask="url(#mask4_20_315)">
<path d="M27.709 54.3055C27.709 51.5441 29.9476 49.3055 32.709 49.3055H36.415C39.1764 49.3055 41.415 51.5441 41.415 54.3055V60.5035C41.415 63.265 39.1764 65.5035 36.415 65.5035H32.709C29.9476 65.5035 27.709 63.265 27.709 60.5035V54.3055Z" fill="#FFC034"/>
<path d="M29.3706 50.9667C29.3706 50.5079 29.7425 50.136 30.2013 50.136C30.66 50.136 31.0319 50.5079 31.0319 50.9667V64.6727C31.0319 65.1315 30.66 65.5034 30.2013 65.5034C29.7425 65.5034 29.3706 65.1315 29.3706 64.6727V50.9667Z" fill="#AD1619"/>
<path d="M35.1848 50.9667C35.1848 50.5079 35.5567 50.136 36.0155 50.136C36.4742 50.136 36.8461 50.5079 36.8461 50.9667V64.6727C36.8461 65.1315 36.4742 65.5034 36.0155 65.5034C35.5567 65.5034 35.1848 65.1315 35.1848 64.6727V50.9667Z" fill="#AD1619"/>
<path d="M32.2773 50.9667C32.2773 50.5079 32.6492 50.136 33.108 50.136C33.5668 50.136 33.9387 50.5079 33.9387 50.9667V64.6727C33.9387 65.1315 33.5668 65.5034 33.108 65.5034C32.6492 65.5034 32.2773 65.1315 32.2773 64.6727V50.9667Z" fill="#AD1619"/>
<path d="M38.093 50.9667C38.093 50.5079 38.4649 50.136 38.9237 50.136C39.3824 50.136 39.7544 50.5079 39.7544 50.9667V64.6727C39.7544 65.1315 39.3824 65.5034 38.9237 65.5034C38.4649 65.5034 38.093 65.1315 38.093 64.6727V50.9667Z" fill="#AD1619"/>
<path d="M27.709 38.9382C27.709 36.1768 29.9476 33.9382 32.709 33.9382H36.415C39.1764 33.9382 41.415 36.1768 41.415 38.9382V44.7209C41.415 47.4823 39.1764 49.7209 36.415 49.7209H32.709C29.9476 49.7209 27.709 47.4823 27.709 44.7209V38.9382Z" fill="#AD1619"/>
<path d="M40.9995 53.891C40.9995 51.1296 43.2381 48.8911 45.9995 48.8911H49.7055C52.4669 48.8911 54.7055 51.1296 54.7055 53.8911V59.6737C54.7055 62.4352 52.4669 64.6737 49.7055 64.6737H45.9995C43.2381 64.6737 40.9995 62.4351 40.9995 59.6737V53.891Z" fill="#AD1619"/>
<path d="M40.9995 39.3535C40.9995 36.5921 43.2381 34.3535 45.9995 34.3535H50.5362C53.2976 34.3535 55.5362 36.5921 55.5362 39.3535V44.7209C55.5362 47.4823 53.2976 49.7209 50.5362 49.7209H45.9995C43.2381 49.7209 40.9995 47.4823 40.9995 44.7209V39.3535Z" fill="#F1F9FF"/>
<path fill-rule="evenodd" clip-rule="evenodd" d="M33.524 36.2227C33.524 35.8786 33.803 35.5997 34.147 35.5997C34.4911 35.5997 34.77 35.8786 34.77 36.2227V38.6302C34.77 38.8596 34.956 39.0455 35.1854 39.0455C35.4147 39.0455 35.6007 38.8596 35.6007 38.6302V37.9456C35.6007 37.6016 35.8796 37.3226 36.2237 37.3226C36.5678 37.3226 36.8467 37.6016 36.8467 37.9456V38.4225C36.8467 38.7666 37.1256 39.0455 37.4697 39.0455C37.8138 39.0455 38.0927 39.3245 38.0927 39.6685V40.576C38.0927 40.92 37.8138 41.199 37.4697 41.199C37.1256 41.199 36.8467 41.4779 36.8467 41.822V44.4523C36.8467 44.7964 37.1256 45.0753 37.4697 45.0753C37.8138 45.0753 38.0927 45.3542 38.0927 45.6983V46.1522C38.0927 46.7469 37.6106 47.2291 37.0158 47.2291H31.6936C31.0988 47.2291 30.6167 46.7469 30.6167 46.1522V45.6983C30.6167 45.3542 30.8956 45.0753 31.2397 45.0753C31.5838 45.0753 31.8627 44.7964 31.8627 44.4523V41.822C31.8627 41.4779 31.5838 41.199 31.2397 41.199C30.8956 41.199 30.6167 40.92 30.6167 40.576V39.4609C30.6167 39.2315 30.8027 39.0455 31.032 39.0455C31.2614 39.0455 31.4474 38.8596 31.4474 38.6302V37.9456C31.4474 37.6016 31.7263 37.3226 32.0704 37.3226C32.4144 37.3226 32.6934 37.6016 32.6934 37.9456V38.6302C32.6934 38.8596 32.8793 39.0455 33.1087 39.0455C33.3381 39.0455 33.524 38.8596 33.524 38.6302V36.2227Z" fill="#C88A02"/>
<path d="M48.586 36.748C48.3346 36.5132 48.3212 36.1191 48.556 35.8677C48.7908 35.6162 49.185 35.6027 49.4365 35.8376L50.3117 36.6551C50.5632 36.89 50.5767 37.2843 50.3417 37.5357C50.1068 37.7872 49.7126 37.8006 49.4612 37.5657L48.586 36.748Z" fill="#C88A02"/>
<path fill-rule="evenodd" clip-rule="evenodd" d="M53.2355 59.9245C53.2471 59.8767 53.253 59.8277 53.253 59.7785V55.7597C53.253 52.9983 51.0144 50.7597 48.253 50.7597H47.8696C45.1082 50.7597 42.8696 52.9983 42.8696 55.7597V59.7046C42.8696 59.7524 42.8751 59.8 42.8859 59.8466C43.4114 62.0864 45.2014 63.2197 48.0613 63.2197C50.9178 63.2197 52.7078 62.1157 53.2355 59.9245ZM48.0613 61.9737C46.074 61.9737 44.868 61.3939 44.3219 60.2177C44.1475 59.8419 44.1156 59.4201 44.1156 59.0058V55.9514C44.1156 53.7722 45.8822 52.0057 48.0613 52.0057C50.2404 52.0057 52.007 53.7722 52.007 55.9514V59.0588C52.007 59.4858 51.9742 59.9219 51.7846 60.3046C51.2314 61.4206 50.0296 61.9737 48.0613 61.9737Z" fill="#FFC034"/>
<path fill-rule="evenodd" clip-rule="evenodd" d="M48.4896 51.952C48.4896 51.7131 48.296 51.5195 48.0571 51.5195C47.8182 51.5195 47.6245 51.7131 47.6245 51.952V52.6758C47.6245 53.7296 46.3301 54.2342 45.6169 53.4585L44.4946 52.2379C44.3394 52.0691 44.0767 52.058 43.9078 52.2133C43.7389 52.3685 43.7279 52.6313 43.8832 52.8001L45.3721 54.4195C45.8746 54.9661 45.4869 55.8493 44.7444 55.8493H44.5147C44.1706 55.8493 43.8917 56.1282 43.8917 56.4723C43.8917 56.8164 44.1706 57.0953 44.5147 57.0953H46.0388C46.3124 57.0953 46.4553 57.4208 46.2701 57.6222L43.8831 60.2187C43.7279 60.3875 43.7389 60.6503 43.9078 60.8055C44.0767 60.9608 44.3394 60.9497 44.4947 60.7809L45.2779 59.929C46.1115 59.0223 47.6245 59.6121 47.6245 60.8438V61.7628C47.6245 62.0017 47.8182 62.1954 48.0571 62.1954C48.296 62.1954 48.4896 62.0017 48.4896 61.7628V60.9654C48.4896 59.8445 49.8665 59.3078 50.6251 60.1329L51.2208 60.7809C51.3761 60.9497 51.6388 60.9608 51.8077 60.8055C51.9765 60.6503 51.9876 60.3875 51.8323 60.2187L50.6158 58.8956C49.983 58.2074 50.4712 57.0953 51.4062 57.0953H51.8568C52.2009 57.0953 52.4798 56.8164 52.4798 56.4723C52.4798 56.1282 52.2009 55.8493 51.8568 55.8493H51.427C50.5102 55.8493 50.0314 54.7588 50.652 54.0839L51.8323 52.8001C51.9876 52.6313 51.9765 52.3685 51.8077 52.2133C51.6388 52.058 51.3761 52.0691 51.2208 52.2379L50.2861 53.2546C49.6479 53.9487 48.4896 53.4972 48.4896 52.5542V51.952Z" fill="#FFC034"/>
<path fill-rule="evenodd" clip-rule="evenodd" d="M49.9993 64.7857C49.9993 64.7304 50.0523 64.6791 49.9971 64.6832C49.8721 64.6927 32.2777 64.681 32.1523 64.6821C32.1121 64.6825 32.0719 64.6827 32.0314 64.6829C31.9784 64.6831 31.9329 64.726 31.9329 64.7789V66.9225C31.9329 68.1594 32.9355 69.162 34.1723 69.162H47.8477C49.036 69.162 49.9993 68.1987 49.9993 67.0104V64.7857Z" fill="#F1F9FF"/>
<path fill-rule="evenodd" clip-rule="evenodd" d="M41.208 52.628C42.9283 52.628 44.323 51.1402 44.323 49.3053C44.323 47.4704 42.9283 45.9827 41.208 45.9827C39.4877 45.9827 38.093 47.4704 38.093 49.3053C38.093 51.1402 39.4877 52.628 41.208 52.628Z" fill="#005BBF" stroke="#AD1619" stroke-width="1.41175"/>
</g>
</g>
</g>
</g>
</svg>
