<svg width="34" height="34" viewBox="0 0 34 34" fill="none" xmlns="http://www.w3.org/2000/svg">
<path fill-rule="evenodd" clip-rule="evenodd" d="M22.0167 5.3276L23.8834 6.35639L26.1624 7.61246C26.505 7.80129 26.6297 8.2321 26.4409 8.57472L25.3221 10.6048C25.1332 10.9474 24.7024 11.0721 24.3598 10.8832L22.6657 9.94957C22.3253 9.76196 21.8973 9.88371 21.7066 10.2224L16.6246 19.2481C16.4631 19.535 16.5237 19.8925 16.746 20.1354C17.7835 21.2693 18.4165 22.7795 18.4165 24.4376C18.4165 27.9584 15.5623 30.8126 12.0415 30.8126C8.52069 30.8126 5.6665 27.9584 5.6665 24.4376C5.6665 20.9168 8.52069 18.0626 12.0415 18.0626C12.4856 18.0626 12.9192 18.108 13.3377 18.1945C13.6626 18.2616 14.0036 18.1285 14.1664 17.8394L21.0576 5.60043C21.2483 5.26174 21.6763 5.13999 22.0167 5.3276ZM12.0415 27.6252C13.8019 27.6252 15.229 26.1981 15.229 24.4377C15.229 22.6772 13.8019 21.2502 12.0415 21.2502C10.2811 21.2502 8.854 22.6772 8.854 24.4377C8.854 26.1981 10.2811 27.6252 12.0415 27.6252Z" fill="#F7B307"/>
<path fill-rule="evenodd" clip-rule="evenodd" d="M22.3586 4.70721L26.5044 6.99207C27.1896 7.36972 27.439 8.23135 27.0613 8.91658L25.9425 10.9466C25.5648 11.6319 24.7032 11.8812 24.018 11.5036L22.3239 10.5699L17.2421 19.5954C17.2421 19.5954 17.2421 19.5954 17.2421 19.5954C17.2419 19.5962 17.2415 19.5996 17.2424 19.6058C17.2443 19.6193 17.2519 19.639 17.2686 19.6572C18.421 20.9165 19.1249 22.5957 19.1249 24.4376C19.1249 28.3496 15.9536 31.5209 12.0416 31.5209C8.12957 31.5209 4.95825 28.3496 4.95825 24.4376C4.95825 20.5256 8.12957 17.3543 12.0416 17.3543C12.5341 17.3543 13.0157 17.4046 13.4811 17.5008C13.5058 17.5059 13.5271 17.5022 13.5401 17.4968C13.546 17.4943 13.5487 17.4921 13.5494 17.4916C13.5493 17.4916 13.5494 17.4916 13.5494 17.4916L20.4404 5.25287C20.8218 4.57549 21.6778 4.33199 22.3586 4.70721ZM12.0416 26.9168C13.4108 26.9168 14.5208 25.8068 14.5208 24.4376C14.5208 23.0684 13.4108 21.9584 12.0416 21.9584C10.6724 21.9584 9.56242 23.0684 9.56242 24.4376C9.56242 25.8068 10.6724 26.9168 12.0416 26.9168ZM22.0168 5.32757C21.6763 5.13995 21.2483 5.2617 21.0576 5.60039L14.1665 17.8393C14.0037 18.1284 13.6627 18.2616 13.3378 18.1944C12.9192 18.108 12.4857 18.0626 12.0416 18.0626C8.52077 18.0626 5.66659 20.9168 5.66659 24.4376C5.66659 27.9584 8.52077 30.8126 12.0416 30.8126C15.5624 30.8126 18.4166 27.9584 18.4166 24.4376C18.4166 22.7795 17.7836 21.2693 16.746 20.1353C16.5238 19.8925 16.4632 19.5349 16.6247 19.2481L21.7067 10.2224C21.8974 9.88368 22.3254 9.76192 22.6658 9.94954L24.3599 10.8832C24.7025 11.072 25.1333 10.9474 25.3221 10.6047L26.441 8.57468C26.6298 8.23207 26.5051 7.80125 26.1625 7.61242L22.0168 5.32757ZM15.2291 24.4376C15.2291 26.198 13.802 27.6251 12.0416 27.6251C10.2812 27.6251 8.85409 26.198 8.85409 24.4376C8.85409 22.6772 10.2812 21.2501 12.0416 21.2501C13.802 21.2501 15.2291 22.6772 15.2291 24.4376Z" fill="#5B3303"/>
<path fill-rule="evenodd" clip-rule="evenodd" d="M7.1936 28.5775C8.36286 29.9454 10.101 30.8126 12.0416 30.8126C15.5624 30.8126 18.4166 27.9584 18.4166 24.4376C18.4166 22.7795 17.7836 21.2692 16.7461 20.1353C16.5239 19.8925 16.4632 19.5349 16.6247 19.2481L21.7067 10.2224C21.8974 9.88366 22.3254 9.76191 22.6658 9.94952L24.3599 10.8832C24.7025 11.072 25.1333 10.9473 25.3222 10.6047L26.441 8.57466C26.6298 8.23205 26.5052 7.80123 26.1625 7.61241L25.8128 7.41968C25.8351 7.56809 25.8106 7.72473 25.7326 7.86632L24.6138 9.89638C24.425 10.239 23.9941 10.3637 23.6515 10.1748L21.9574 9.24117C21.617 9.05356 21.189 9.17531 20.9983 9.514L15.9163 18.5397C15.7548 18.8266 15.8155 19.1841 16.0377 19.427C17.0752 20.5609 17.7082 22.0711 17.7082 23.7292C17.7082 27.25 14.854 30.1042 11.3332 30.1042C9.7532 30.1042 8.30742 29.5294 7.1936 28.5775ZM9.46143 26.3096C9.07943 25.7839 8.85412 25.1371 8.85412 24.4376C8.85412 22.6772 10.2812 21.2501 12.0416 21.2501C12.741 21.2501 13.3878 21.4754 13.9134 21.8573C13.334 21.0601 12.3942 20.5418 11.3332 20.5418C9.57282 20.5418 8.14573 21.9688 8.14573 23.7293C8.14573 24.7902 8.66412 25.7302 9.46143 26.3096Z" fill="#DC9E00"/>
<path fill-rule="evenodd" clip-rule="evenodd" d="M7.35986 28.7645C8.52446 30.024 10.1909 30.8125 12.0416 30.8125C15.5624 30.8125 18.4166 27.9583 18.4166 24.4375C18.4166 22.7794 17.7836 21.2692 16.746 20.1353C16.5238 19.8924 16.4632 19.5349 16.6247 19.248L21.7067 10.2223C21.8974 9.88362 22.3254 9.76187 22.6658 9.94949L24.3599 10.8832C24.7025 11.072 25.1333 10.9473 25.3221 10.6047L26.441 8.57463C26.6298 8.23202 26.5051 7.8012 26.1625 7.61237L26.1105 7.58374C26.2005 7.78069 26.1993 8.0162 26.0868 8.22039L24.9679 10.2505C24.7791 10.5931 24.3483 10.7177 24.0057 10.5289L22.3116 9.59525C21.9712 9.40763 21.5432 9.52938 21.3525 9.86807L16.2705 18.8938C16.109 19.1806 16.1696 19.5382 16.3918 19.7811C17.4294 20.915 18.0624 22.4252 18.0624 24.0833C18.0624 27.6041 15.2082 30.4583 11.6874 30.4583C10.0169 30.4583 8.49656 29.8158 7.35986 28.7645ZM9.61736 26.5073C9.14144 25.9504 8.85407 25.2275 8.85407 24.4376C8.85407 22.6772 10.2812 21.2501 12.0416 21.2501C12.8317 21.2501 13.5546 21.5375 14.1116 22.0136C13.5269 21.3295 12.6578 20.8958 11.6874 20.8958C9.92696 20.8958 8.49987 22.3229 8.49987 24.0833C8.49987 25.0536 8.93341 25.9227 9.61736 26.5073Z" fill="#B97D08"/>
<path d="M16.5263 25.7457C16.5401 25.9837 16.3593 26.1877 16.1226 26.2013C15.886 26.215 15.6829 26.0332 15.6692 25.7952C15.6554 25.5572 15.8362 25.3532 16.0729 25.3395C16.3096 25.3258 16.5126 25.5077 16.5263 25.7457Z" fill="#D99D03"/>
<path d="M16.9507 24.4379C16.9587 24.5757 16.854 24.6939 16.717 24.7018C16.5799 24.7097 16.4623 24.6044 16.4544 24.4666C16.4464 24.3288 16.5511 24.2106 16.6881 24.2027C16.8252 24.1948 16.9428 24.3001 16.9507 24.4379Z" fill="#D99D03"/>
<path d="M17.3604 25.6774C17.3684 25.8152 17.2637 25.9334 17.1266 25.9413C16.9896 25.9492 16.872 25.8439 16.864 25.7061C16.8561 25.5683 16.9607 25.4501 17.0978 25.4422C17.2349 25.4343 17.3524 25.5396 17.3604 25.6774Z" fill="#D99D03"/>
<path d="M15.1578 26.8285C15.1657 26.9664 15.0611 27.0845 14.924 27.0924C14.7869 27.1003 14.6694 26.995 14.6614 26.8572C14.6534 26.7194 14.7581 26.6012 14.8952 26.5933C15.0322 26.5854 15.1498 26.6907 15.1578 26.8285Z" fill="#D99D03"/>
<path d="M15.293 28.3329C15.2978 28.4162 15.2346 28.4876 15.1517 28.4923C15.0689 28.4971 14.9979 28.4335 14.9931 28.3502C14.9883 28.267 15.0515 28.1956 15.1343 28.1908C15.2171 28.186 15.2882 28.2496 15.293 28.3329Z" fill="#D99D03"/>
<path d="M14.4751 28.13C14.4799 28.2133 14.4167 28.2847 14.3339 28.2895C14.2511 28.2942 14.18 28.2306 14.1752 28.1474C14.1704 28.0641 14.2336 27.9927 14.3165 27.9879C14.3993 27.9831 14.4703 28.0468 14.4751 28.13Z" fill="#D99D03"/>
<path d="M16.9544 26.7133C16.9592 26.7966 16.8959 26.8679 16.8131 26.8727C16.7303 26.8775 16.6593 26.8139 16.6545 26.7306C16.6497 26.6473 16.7129 26.576 16.7957 26.5712C16.8785 26.5664 16.9496 26.63 16.9544 26.7133Z" fill="#D99D03"/>
<path d="M16.2461 26.7133C16.2509 26.7966 16.1877 26.8679 16.1049 26.8727C16.0221 26.8775 15.951 26.8139 15.9462 26.7306C15.9414 26.6473 16.0046 26.576 16.0875 26.5712C16.1703 26.5664 16.2413 26.63 16.2461 26.7133Z" fill="#D99D03"/>
<path d="M12.7044 28.8383C12.7092 28.9216 12.6459 28.9929 12.5631 28.9977C12.4803 29.0025 12.4093 28.9389 12.4045 28.8556C12.3997 28.7723 12.4629 28.701 12.5457 28.6962C12.6285 28.6914 12.6996 28.755 12.7044 28.8383Z" fill="#D99D03"/>
<path d="M17.6626 24.5883C17.6674 24.6716 17.6042 24.7429 17.5214 24.7477C17.4386 24.7525 17.3675 24.6889 17.3627 24.6056C17.3579 24.5223 17.4211 24.451 17.504 24.4462C17.5868 24.4414 17.6578 24.505 17.6626 24.5883Z" fill="#D99D03"/>
<path d="M16.6001 23.5258C16.6049 23.6091 16.5417 23.6804 16.4589 23.6852C16.3761 23.69 16.305 23.6264 16.3002 23.5431C16.2954 23.4598 16.3586 23.3885 16.4415 23.3837C16.5243 23.3789 16.5953 23.4425 16.6001 23.5258Z" fill="#D99D03"/>
<path d="M16.0101 27.4704C16.018 27.6082 15.9134 27.7263 15.7763 27.7343C15.6392 27.7422 15.5216 27.6369 15.5137 27.4991C15.5057 27.3612 15.6104 27.2431 15.7475 27.2352C15.8845 27.2273 16.0021 27.3326 16.0101 27.4704Z" fill="#D99D03"/>
<path d="M13.9515 28.9203C13.9594 29.0582 13.8548 29.1763 13.7177 29.1842C13.5806 29.1921 13.4631 29.0868 13.4551 28.949C13.4471 28.8112 13.5518 28.693 13.6889 28.6851C13.8259 28.6772 13.9435 28.7825 13.9515 28.9203Z" fill="#D99D03"/>
<path fill-rule="evenodd" clip-rule="evenodd" d="M15.9043 24.0669C16.0999 24.0669 16.2585 24.2255 16.2585 24.4211C16.2585 26.7591 14.3631 28.6545 12.0251 28.6545C11.8295 28.6545 11.6709 28.4959 11.6709 28.3003C11.6709 28.1047 11.8295 27.9461 12.0251 27.9461C13.9719 27.9461 15.5501 26.3679 15.5501 24.4211C15.5501 24.2255 15.7087 24.0669 15.9043 24.0669Z" fill="#FFE195"/>
<path fill-rule="evenodd" clip-rule="evenodd" d="M11.8645 19.1251C9.02829 19.1251 6.72909 21.4243 6.72909 24.2605C6.72909 24.4561 6.57052 24.6147 6.37492 24.6147C6.17932 24.6147 6.02075 24.4561 6.02075 24.2605C6.02075 21.0331 8.63709 18.4167 11.8645 18.4167C12.0601 18.4167 12.2187 18.5753 12.2187 18.7709C12.2187 18.9665 12.0601 19.1251 11.8645 19.1251Z" fill="#FFE195"/>
<path fill-rule="evenodd" clip-rule="evenodd" d="M8.66359 19.7861C8.78749 19.9374 8.76523 20.1606 8.61387 20.2845C8.0151 20.7746 7.52919 21.3972 7.20084 22.107C7.11872 22.2846 6.90824 22.3619 6.73071 22.2798C6.55318 22.1977 6.47584 21.9872 6.55796 21.8097C6.93178 21.0015 7.48453 20.2936 8.1652 19.7364C8.31655 19.6125 8.53969 19.6347 8.66359 19.7861Z" fill="#FFF6E0"/>
<path fill-rule="evenodd" clip-rule="evenodd" d="M21.7797 5.71347C21.9495 5.81052 22.0085 6.02686 21.9115 6.19669L15.5365 17.3529C15.4394 17.5228 15.2231 17.5818 15.0533 17.4847C14.8834 17.3877 14.8244 17.1713 14.9215 17.0015L21.2965 5.84526C21.3935 5.67543 21.6099 5.61643 21.7797 5.71347Z" fill="#FFE195"/>
<path fill-rule="evenodd" clip-rule="evenodd" d="M20.5403 7.88266C20.7101 7.97971 20.7691 8.19605 20.6721 8.36588L19.4325 10.5352C19.3354 10.705 19.1191 10.764 18.9493 10.6669C18.7794 10.5699 18.7204 10.3535 18.8175 10.1837L20.0571 8.01445C20.1541 7.84462 20.3704 7.78562 20.5403 7.88266Z" fill="#FFF6E0"/>
<path fill-rule="evenodd" clip-rule="evenodd" d="M23.0691 8.67577C23.1676 8.50681 23.3845 8.44975 23.5534 8.5483L25.6784 9.78789C25.8474 9.88644 25.9045 10.1033 25.8059 10.2723C25.7073 10.4412 25.4905 10.4983 25.3215 10.3997L23.1965 9.16015C23.0276 9.06159 22.9705 8.84473 23.0691 8.67577Z" fill="#5B3303"/>
<path fill-rule="evenodd" clip-rule="evenodd" d="M24.4819 7.97398C24.5769 7.80299 24.7925 7.74139 24.9635 7.83638L26.5572 8.7218C26.7282 8.81679 26.7898 9.03241 26.6948 9.20339C26.5998 9.37438 26.3842 9.43599 26.2132 9.34099L24.6195 8.45558C24.4485 8.36058 24.3869 8.14497 24.4819 7.97398Z" fill="#5B3303"/>
</svg>
