<svg width="102" height="102" viewBox="0 0 102 102" fill="none" xmlns="http://www.w3.org/2000/svg">
<path d="M83.0688 21.9359L62.4247 48.4435C61.4399 49.708 62.1561 51.5659 63.7347 51.8423L78.3782 54.4065C80.3197 54.7464 80.7924 57.3171 79.0989 58.3254L30.1509 87.4703C28.4169 88.5028 26.3552 86.7635 27.0809 84.8804L37.5161 57.8015C37.9974 56.5526 37.2181 55.1751 35.8997 54.9443L19.653 52.0994C18.2653 51.8564 17.4939 50.3549 18.1044 49.0853L35.9009 12.079C36.3133 11.2215 37.2453 10.7427 38.1825 10.9068L81.7587 18.5371C83.3374 18.8135 84.0535 20.6715 83.0688 21.9359Z" fill="#FFB547"/>
<path fill-rule="evenodd" clip-rule="evenodd" d="M84.7454 23.2416L64.1013 49.7491L78.7448 52.3132C82.6278 52.9931 83.5732 58.1345 80.1861 60.1512L31.2382 89.2961C27.7702 91.361 23.6468 87.8824 25.0981 84.1162L35.5333 57.0373L19.2865 54.1925C16.5112 53.7065 14.9683 50.7035 16.1895 48.1643L33.986 11.1579C34.8107 9.44305 36.6748 8.48535 38.5491 8.81356L82.1254 16.4439C85.2827 16.9967 86.7149 20.7126 84.7454 23.2416ZM62.4248 48.4434L83.0689 21.9359C84.0536 20.6714 83.3375 18.8135 81.7588 18.537L38.1826 10.9067C37.2454 10.7426 36.3134 11.2215 35.901 12.0789L18.1045 49.0852C17.494 50.3548 18.2654 51.8564 19.6531 52.0993L35.8998 54.9442C37.2182 55.175 37.9975 56.5525 37.5162 57.8015L27.081 84.8803C26.3553 86.7634 28.417 88.5027 30.151 87.4703L79.099 58.3254C80.7925 57.317 80.3198 54.7463 78.3783 54.4064L63.7348 51.8423C62.1562 51.5658 61.44 49.7079 62.4248 48.4434Z" fill="#604104"/>
<path d="M35.901 12.0792C36.3134 11.2217 37.2454 10.7429 38.1826 10.907L55.5387 13.9461L42.0351 42.6328L22.9155 39.0814L35.901 12.0792Z" fill="#FFC369"/>
<path fill-rule="evenodd" clip-rule="evenodd" d="M39.8431 57.3857C40.3872 57.6055 40.6501 58.2248 40.4303 58.7689L29.6724 85.3978C29.4526 85.9419 28.8334 86.2047 28.2893 85.9849C27.7452 85.7651 27.4823 85.1459 27.7021 84.6018L38.46 57.9729C38.6798 57.4288 39.299 57.1659 39.8431 57.3857Z" fill="#FFE7A9"/>
<path d="M79.0988 58.3255L30.1509 87.4704L69.0757 54.7876L67.9998 52.627L78.3782 54.4065C80.3196 54.7465 80.7924 57.3172 79.0988 58.3255Z" fill="#C87719"/>
<path d="M83.069 21.9359L62.4249 48.4435C61.4441 49.7028 62.1505 51.5509 63.7159 51.8389L53.125 49.9375L73.3126 17.0581L81.7589 18.5371C83.3376 18.8135 84.0537 20.6715 83.069 21.9359Z" fill="#C87719"/>
<path fill-rule="evenodd" clip-rule="evenodd" d="M31.5253 89.0912C31.4355 89.1674 31.3394 89.236 31.2382 89.2963C27.7702 91.3612 23.6468 87.8826 25.0981 84.1163L35.5333 57.0375L19.2866 54.1927C16.5112 53.7067 14.9683 50.7037 16.1895 48.1644L33.986 11.1581C34.8107 9.44322 36.6748 8.48552 38.5491 8.81373L70.598 14.4256C73.5539 14.9432 75.057 18.2783 73.4868 20.8356L56.5611 48.4022L66.6135 50.2299C70.1448 50.872 71.3394 55.3317 68.6018 57.6529L31.5253 89.0912ZM66.2333 52.3207C67.999 52.6417 68.5963 54.8715 67.2275 56.0322L30.151 87.4704C28.417 88.5029 26.3553 86.7636 27.081 84.8805L37.5162 57.8016C37.9975 56.5527 37.2182 55.1752 35.8998 54.9444L19.6531 52.0995C18.2654 51.8565 17.494 50.355 18.1045 49.0854L35.9011 12.0791C36.3134 11.2216 37.2454 10.7428 38.1826 10.9069L70.2315 16.5187C71.7095 16.7775 72.461 18.4451 71.6759 19.7237L53.125 49.9373L66.2333 52.3207Z" fill="#604104"/>
<path d="M53.125 49.9375L71.6759 19.724C72.461 18.4453 71.7095 16.7777 70.2315 16.5189L66.4062 15.8491L49.4062 48.8748L53.125 49.9375Z" fill="#E78F28"/>
<path fill-rule="evenodd" clip-rule="evenodd" d="M37.651 12.8564C38.1791 13.1125 38.3996 13.748 38.1436 14.276L21.1436 49.3385C20.8875 49.8666 20.252 50.0871 19.724 49.8311C19.1959 49.575 18.9754 48.9395 19.2314 48.4115L36.2314 13.349C36.4875 12.8209 37.123 12.6004 37.651 12.8564Z" fill="#FFE7A9"/>
<path fill-rule="evenodd" clip-rule="evenodd" d="M25.4323 38.0576C25.9603 38.3136 26.1808 38.9492 25.9248 39.4772L21.1436 49.3385C20.8875 49.8666 20.252 50.0871 19.724 49.8311C19.1959 49.575 18.9754 48.9395 19.2314 48.4115L24.0127 38.5501C24.2687 38.0221 24.9043 37.8016 25.4323 38.0576Z" fill="#FFF5DB"/>
<path d="M70.5856 34.4438C70.3707 34.9203 69.8713 35.1598 69.4701 34.9789C69.0689 34.798 68.9179 34.2651 69.1327 33.7887C69.3476 33.3122 69.847 33.0727 70.2482 33.2536C70.6493 33.4345 70.8004 33.9674 70.5856 34.4438Z" fill="#AD6209"/>
<path d="M67.611 40.0168C67.3961 40.4933 66.8967 40.7328 66.4955 40.5519C66.0943 40.371 65.9433 39.8381 66.1581 39.3617C66.373 38.8852 66.8724 38.6457 67.2735 38.8266C67.6747 39.0075 67.8258 39.5404 67.611 40.0168Z" fill="#AD6209"/>
<path d="M68.213 36.729C67.9198 37.3791 67.2383 37.706 66.6908 37.4591C66.1433 37.2122 65.9372 36.485 66.2304 35.8349C66.5236 35.1848 67.2051 34.8579 67.7525 35.1048C68.3 35.3516 68.5062 36.0788 68.213 36.729Z" fill="#AD6209"/>
<path d="M74.6031 30.227C74.3883 30.7035 73.8889 30.943 73.4877 30.7621C73.0865 30.5812 72.9354 30.0483 73.1503 29.5719C73.3651 29.0954 73.8645 28.8559 74.2657 29.0368C74.6669 29.2177 74.818 29.7506 74.6031 30.227Z" fill="#AD6209"/>
<path d="M71.8487 30.9413C71.6949 31.2822 71.3376 31.4537 71.0505 31.3242C70.7634 31.1947 70.6553 30.8134 70.809 30.4725C70.9628 30.1316 71.3201 29.9602 71.6072 30.0896C71.8943 30.2191 72.0024 30.6004 71.8487 30.9413Z" fill="#AD6209"/>
<path d="M72.8882 33.499C72.7345 33.8399 72.3771 34.0113 72.09 33.8818C71.8029 33.7523 71.6948 33.371 71.8486 33.0301C72.0023 32.6892 72.3597 32.5178 72.6468 32.6473C72.9339 32.7767 73.0419 33.158 72.8882 33.499Z" fill="#AD6209"/>
<path d="M69.6399 37.8818C69.4862 38.2227 69.1288 38.3941 68.8417 38.2646C68.5546 38.1352 68.4466 37.7538 68.6003 37.4129C68.754 37.072 69.1114 36.9006 69.3985 37.0301C69.6856 37.1595 69.7937 37.5409 69.6399 37.8818Z" fill="#AD6209"/>
<path d="M64.5266 41.4963C64.3729 41.8372 64.0155 42.0086 63.7285 41.8791C63.4414 41.7497 63.3333 41.3683 63.487 41.0274C63.6408 40.6865 63.9981 40.5151 64.2852 40.6446C64.5723 40.774 64.6804 41.1554 64.5266 41.4963Z" fill="#AD6209"/>
<path d="M69.6399 31.4098C69.4862 31.7508 69.1288 31.9222 68.8417 31.7927C68.5546 31.6632 68.4466 31.2819 68.6003 30.941C68.754 30.6001 69.1114 30.4287 69.3985 30.5581C69.6856 30.6876 69.7937 31.0689 69.6399 31.4098Z" fill="#AD6209"/>
<path d="M72.8882 26.0973C72.7345 26.4383 72.3771 26.6097 72.09 26.4802C71.8029 26.3507 71.6948 25.9694 71.8486 25.6285C72.0023 25.2876 72.3597 25.1162 72.6468 25.2456C72.9339 25.3751 73.0419 25.7564 72.8882 26.0973Z" fill="#AD6209"/>
<path d="M77.0054 26.7614C76.8517 27.1023 76.4943 27.2737 76.2072 27.1443C75.9201 27.0148 75.812 26.6335 75.9658 26.2926C76.1195 25.9517 76.4769 25.7802 76.764 25.9097C77.051 26.0392 77.1591 26.4205 77.0054 26.7614Z" fill="#AD6209"/>
<path fill-rule="evenodd" clip-rule="evenodd" d="M65.9383 53.8467C66.3282 54.2852 66.2888 54.9568 65.8503 55.3467L45.4636 73.4756C45.0251 73.8656 44.3535 73.8262 43.9636 73.3877C43.5737 72.9492 43.613 72.2776 44.0515 71.8877L64.4383 53.7588C64.8768 53.3688 65.5483 53.4082 65.9383 53.8467Z" fill="#F0A637"/>
<path fill-rule="evenodd" clip-rule="evenodd" d="M63.6965 16.1174C64.2206 16.3813 64.4316 17.0201 64.1677 17.5442L49.6912 46.2981C49.4273 46.8222 48.7885 47.0332 48.2644 46.7693C47.7403 46.5054 47.5293 45.8666 47.7932 45.3425L62.2697 16.5886C62.5336 16.0645 63.1724 15.8535 63.6965 16.1174Z" fill="#F0A637"/>
<path d="M58.0553 54.7994C57.8994 55.3651 57.3717 55.7131 56.8767 55.5767C56.3817 55.4402 56.1069 54.871 56.2628 54.3053C56.4187 53.7396 56.9464 53.3916 57.4414 53.5281C57.9364 53.6645 58.2113 54.2337 58.0553 54.7994Z" fill="#FFC670"/>
<path d="M54.7632 58.7874C54.6571 59.1721 54.2982 59.4088 53.9616 59.316C53.6249 59.2232 53.438 58.836 53.544 58.4513C53.6501 58.0665 54.009 57.8299 54.3457 57.9227C54.6823 58.0155 54.8692 58.4026 54.7632 58.7874Z" fill="#FFC670"/>
<path d="M50.5498 60.7642C50.4437 61.1489 50.0848 61.3856 49.7482 61.2928C49.4115 61.2 49.2246 60.8129 49.3307 60.4281C49.4367 60.0433 49.7956 59.8067 50.1323 59.8995C50.4689 59.9923 50.6559 60.3794 50.5498 60.7642Z" fill="#FFC670"/>
<path d="M54.7632 54.7544C54.6571 55.1392 54.2982 55.3758 53.9616 55.283C53.6249 55.1902 53.438 54.8031 53.544 54.4183C53.6501 54.0336 54.009 53.7969 54.3457 53.8897C54.6823 53.9825 54.8692 54.3697 54.7632 54.7544Z" fill="#FFC670"/>
<path d="M61.8022 53.9776C61.6962 54.3623 61.3373 54.599 61.0006 54.5062C60.664 54.4134 60.477 54.0262 60.5831 53.6415C60.6892 53.2567 61.0481 53.0201 61.3847 53.1129C61.7214 53.2057 61.9083 53.5928 61.8022 53.9776Z" fill="#FFC670"/>
<path d="M58.7646 56.8713C58.6903 57.1408 58.4389 57.3066 58.2031 57.2416C57.9673 57.1766 57.8364 56.9054 57.9107 56.6359C57.9849 56.3664 58.2363 56.2006 58.4721 56.2657C58.7079 56.3307 58.8389 56.6018 58.7646 56.8713Z" fill="#FFC670"/>
<path d="M52.4892 62.1838C52.4149 62.4533 52.1635 62.6191 51.9277 62.5541C51.6919 62.4891 51.561 62.2179 51.6353 61.9484C51.7096 61.6789 51.9609 61.5131 52.1967 61.5782C52.4325 61.6432 52.5635 61.9143 52.4892 62.1838Z" fill="#FFC670"/>
<path d="M53.4865 52.3303C53.4122 52.5998 53.1608 52.7656 52.925 52.7006C52.6892 52.6356 52.5583 52.3644 52.6326 52.0949C52.7069 51.8254 52.9582 51.6596 53.1941 51.7246C53.4299 51.7896 53.5608 52.0608 53.4865 52.3303Z" fill="#FFC670"/>
<path d="M59.6186 53.063C59.5443 53.3325 59.2929 53.4982 59.0571 53.4332C58.8213 53.3682 58.6904 53.0971 58.7647 52.8276C58.8389 52.5581 59.0903 52.3923 59.3261 52.4573C59.5619 52.5223 59.6929 52.7935 59.6186 53.063Z" fill="#FFC670"/>
<path d="M56.9689 57.7129C56.8946 57.9824 56.6433 58.1481 56.4074 58.0831C56.1716 58.0181 56.0407 57.747 56.115 57.4775C56.1893 57.208 56.4407 57.0422 56.6765 57.1072C56.9123 57.1722 57.0432 57.4434 56.9689 57.7129Z" fill="#FFC670"/>
<path d="M52.4892 55.3974C52.4149 55.6669 52.1635 55.8327 51.9277 55.7677C51.6919 55.7027 51.561 55.4315 51.6353 55.162C51.7096 54.8925 51.9609 54.7268 52.1967 54.7918C52.4325 54.8568 52.5635 55.1279 52.4892 55.3974Z" fill="#FFC670"/>
<path d="M53.2175 57.1069C53.1432 57.3764 52.8918 57.5422 52.656 57.4772C52.4202 57.4122 52.2892 57.141 52.3635 56.8715C52.4378 56.602 52.6892 56.4362 52.925 56.5012C53.1608 56.5663 53.2918 56.8374 53.2175 57.1069Z" fill="#FFC670"/>
<path d="M48.8766 64.9428C48.8023 65.2123 48.551 65.3781 48.3152 65.3131C48.0794 65.2481 47.9484 64.9769 48.0227 64.7074C48.097 64.438 48.3484 64.2722 48.5842 64.3372C48.82 64.4022 48.9509 64.6734 48.8766 64.9428Z" fill="#FFC670"/>
</svg>
