<svg width="74" height="74" viewBox="0 0 74 74" fill="none" xmlns="http://www.w3.org/2000/svg">
<g clip-path="url(#clip0_24_2441)">
<path fill-rule="evenodd" clip-rule="evenodd" d="M22.6279 63.6205C22.2329 63.5147 21.8962 63.2563 21.6918 62.9022L9.99702 42.6463C9.79259 42.2922 9.73719 41.8714 9.84301 41.4764L14.5911 23.7565C14.6969 23.3615 14.9553 23.0248 15.3094 22.8204L35.5653 11.1256C35.9194 10.9212 36.3402 10.8658 36.7351 10.9716L54.4551 15.7196C54.85 15.8255 55.1868 16.0838 55.3912 16.4379L67.0859 36.6939C67.2904 37.0479 67.3458 37.4688 67.24 37.8637L62.4919 55.5837C62.3861 55.9786 62.1277 56.3153 61.7736 56.5198L41.5177 68.2145C41.1636 68.419 40.7428 68.4744 40.3479 68.3685L22.6279 63.6205ZM45.8644 52.3537C52.8694 48.3094 55.2695 39.3521 51.2251 32.3471C47.1808 25.3422 38.2236 22.9421 31.2186 26.9864C24.2136 31.0307 21.8135 39.988 25.8578 46.993C29.9022 53.998 38.8594 56.3981 45.8644 52.3537Z" fill="#68848F"/>
<path fill-rule="evenodd" clip-rule="evenodd" d="M20.3562 63.6731L8.66141 43.4172C8.25254 42.709 8.14173 41.8674 8.35338 41.0775L13.1014 23.3575C13.3131 22.5676 13.8298 21.8942 14.538 21.4853L34.7939 9.79056C35.5021 9.38169 36.3438 9.27089 37.1336 9.48254L54.8536 14.2306C55.6435 14.4422 56.3169 14.959 56.7258 15.6672L68.4206 35.9231C68.8294 36.6313 68.9403 37.4729 68.7286 38.2628L63.9806 55.9828C63.7689 56.7726 63.2521 57.4461 62.5439 57.855L42.288 69.5497C41.5798 69.9586 40.7382 70.0694 39.9483 69.8578L22.2284 65.1097C21.4385 64.8981 20.765 64.3813 20.3562 63.6731ZM45.0931 51.0187C51.3607 47.4001 53.5081 39.3857 49.8895 33.1181C46.2709 26.8504 38.2565 24.703 31.9889 28.3216C25.7213 31.9402 23.5738 39.9546 27.1925 46.2222C30.8111 52.4899 38.8255 54.6373 45.0931 51.0187ZM21.6913 62.9023C21.8957 63.2564 22.2325 63.5147 22.6274 63.6206L40.3474 68.3686C40.7423 68.4744 41.1631 68.419 41.5172 68.2146L61.7731 56.5198C62.1272 56.3154 62.3856 55.9787 62.4914 55.5837L67.2395 37.8638C67.3453 37.4688 67.2899 37.048 67.0855 36.6939L55.3907 16.438C55.1863 16.0839 54.8495 15.8255 54.4546 15.7197L36.7346 10.9717C36.3397 10.8658 35.9189 10.9212 35.5648 11.1257L15.3089 22.8204C14.9548 23.0249 14.6964 23.3616 14.5906 23.7565L9.84252 41.4765C9.7367 41.8715 9.7921 42.2923 9.99653 42.6464L21.6913 62.9023ZM51.2247 32.3472C55.269 39.3522 52.8689 48.3095 45.8639 52.3538C38.8589 56.3981 29.9017 53.9981 25.8573 46.9931C21.813 39.9881 24.2131 31.0308 31.2181 26.9865C38.2231 22.9421 47.1803 25.3422 51.2247 32.3472Z" fill="#1B343E"/>
<path d="M9.84301 41.4764L14.5911 23.7565C14.6969 23.3615 14.9553 23.0248 15.3094 22.8204L25.4373 16.973L31.2186 26.9864C24.2136 31.0307 21.8135 39.988 25.8578 46.993L9.99702 42.6463C9.79258 42.2922 9.73718 41.8714 9.84301 41.4764Z" fill="#44626D"/>
<path d="M22.0111 63.4552L18.9277 58.1147L37.8813 63.1933L40.9647 68.5338L22.0111 63.4552Z" fill="#A7C2CD"/>
<path d="M55.3907 16.4382L67.0854 36.6941C67.2899 37.0482 67.3453 37.469 67.2394 37.8639L62.4914 55.5839L53.1881 39.47C53.1571 37.046 52.5229 34.5961 51.2246 32.3474L55.3907 16.4382Z" fill="#44626D"/>
<path fill-rule="evenodd" clip-rule="evenodd" d="M19.5439 58.2799C19.149 58.1741 18.8122 57.9157 18.6078 57.5616L6.91304 37.3057C6.7086 36.9516 6.6532 36.5308 6.75903 36.1359L11.5071 18.4159C11.6129 18.0209 11.8713 17.6842 12.2254 17.4798L32.4813 5.78503C32.8354 5.58059 33.2562 5.52519 33.6511 5.63101L51.3711 10.3791C51.766 10.4849 52.1028 10.7433 52.3072 11.0974L64.002 31.3533C64.2064 31.7074 64.2618 32.1282 64.156 32.5231L59.4079 50.2431C59.3021 50.638 59.0437 50.9748 58.6896 51.1792L38.4337 62.8739C38.0796 63.0784 37.6588 63.1338 37.2639 63.028L19.5439 58.2799ZM42.7804 47.0131C49.7854 42.9688 52.1855 34.0116 48.1412 27.0066C44.0968 20.0016 35.1396 17.6015 28.1346 21.6458C21.1296 25.6902 18.7295 34.6474 22.7738 41.6524C26.8182 48.6574 35.7754 51.0575 42.7804 47.0131Z" fill="#A7C2CD"/>
<path fill-rule="evenodd" clip-rule="evenodd" d="M17.2732 58.3325L5.5784 38.0766C5.16953 37.3684 5.05873 36.5268 5.27038 35.7369L10.0184 18.017C10.2301 17.2271 10.7468 16.5536 11.455 16.1447L31.7109 4.44999C32.4191 4.04111 33.2607 3.93031 34.0506 4.14196L51.7706 8.89001C52.5605 9.10166 53.2339 9.61842 53.6428 10.3266L65.3376 30.5825C65.7464 31.2907 65.8572 32.1323 65.6456 32.9222L60.8975 50.6422C60.6859 51.4321 60.1691 52.1055 59.4609 52.5144L39.205 64.2092C38.4968 64.618 37.6552 64.7288 36.8653 64.5172L19.1454 59.7691C18.3555 59.5575 17.682 59.0407 17.2732 58.3325ZM42.0101 45.6781C48.2777 42.0595 50.4251 34.0451 46.8065 27.7775C43.1879 21.5099 35.1735 19.3624 28.9059 22.981C22.6383 26.5996 20.4908 34.614 24.1094 40.8816C27.7281 47.1493 35.7424 49.2967 42.0101 45.6781ZM18.6083 57.5617C18.8127 57.9158 19.1494 58.1742 19.5444 58.28L37.2644 63.028C37.6593 63.1339 38.0801 63.0785 38.4342 62.874L58.6901 51.1793C59.0442 50.9748 59.3026 50.6381 59.4084 50.2432L64.1565 32.5232C64.2623 32.1283 64.2069 31.7075 64.0024 31.3534L52.3077 11.0974C52.1033 10.7433 51.7665 10.485 51.3716 10.3791L33.6516 5.6311C33.2567 5.52527 32.8359 5.58067 32.4818 5.78511L12.2259 17.4799C11.8718 17.6843 11.6134 18.021 11.5076 18.416L6.75951 36.1359C6.65369 36.5309 6.70909 36.9517 6.91352 37.3058L18.6083 57.5617ZM48.1416 27.0066C52.186 34.0116 49.7859 42.9689 42.7809 47.0132C35.7759 51.0576 26.8187 48.6575 22.7743 41.6525C18.73 34.6475 21.1301 25.6902 28.1351 21.6459C35.1401 17.6016 44.0973 20.0017 48.1416 27.0066Z" fill="#1B343E"/>
<path d="M18.6078 57.5616L6.91304 37.3057C6.7086 36.9516 6.6532 36.5308 6.75902 36.1359L11.5071 18.4159C11.6129 18.0209 11.8713 17.6842 12.2254 17.4798L32.4813 5.78503L28.1346 21.6458C21.1296 25.6902 18.7295 34.6474 22.7738 41.6524L18.6078 57.5616Z" fill="#B9D4DF"/>
<path d="M22.533 16.0842C22.7459 16.4529 22.6196 16.9243 22.2509 17.1372C21.8822 17.3501 21.4108 17.2237 21.1979 16.8551C20.9851 16.4864 21.1114 16.0149 21.4801 15.8021C21.8487 15.5892 22.3202 15.7155 22.533 16.0842Z" fill="#D0EBF7"/>
<path d="M24.8455 13.7717C25.0584 14.1404 24.9321 14.6118 24.5634 14.8247C24.1947 15.0376 23.7233 14.9112 23.5104 14.5426C23.2976 14.1739 23.4239 13.7024 23.7926 13.4896C24.1612 13.2767 24.6327 13.403 24.8455 13.7717Z" fill="#D0EBF7"/>
<path d="M28.2689 12.0632C28.4286 12.3397 28.3338 12.6933 28.0573 12.8529C27.7808 13.0125 27.4272 12.9178 27.2676 12.6413C27.1079 12.3648 27.2027 12.0112 27.4792 11.8516C27.7557 11.6919 28.1093 11.7867 28.2689 12.0632Z" fill="#D0EBF7"/>
<path d="M22.1029 14.3757C22.2625 14.6522 22.1678 15.0058 21.8913 15.1654C21.6148 15.325 21.2612 15.2303 21.1016 14.9538C20.9419 14.6773 21.0367 14.3237 21.3132 14.1641C21.5897 14.0044 21.9433 14.0992 22.1029 14.3757Z" fill="#D0EBF7"/>
<path d="M25.5927 17.2791C25.6428 17.466 25.5319 17.6582 25.345 17.7082C25.1581 17.7583 24.966 17.6474 24.9159 17.4605C24.8658 17.2736 24.9767 17.0815 25.1636 17.0314C25.3505 16.9813 25.5427 17.0922 25.5927 17.2791Z" fill="#D0EBF7"/>
<path d="M24.6631 15.755C24.7131 15.9419 24.6022 16.134 24.4153 16.1841C24.2284 16.2342 24.0363 16.1232 23.9862 15.9363C23.9361 15.7494 24.047 15.5573 24.2339 15.5072C24.4208 15.4571 24.613 15.5681 24.6631 15.755Z" fill="#D0EBF7"/>
<path d="M18.4961 16.526C18.5461 16.7129 18.4352 16.905 18.2483 16.9551C18.0614 17.0052 17.8693 16.8942 17.8192 16.7073C17.7691 16.5204 17.88 16.3283 18.0669 16.2782C18.2539 16.2281 18.446 16.3391 18.4961 16.526Z" fill="#D0EBF7"/>
<path d="M20.0381 16.526C20.0881 16.7129 19.9772 16.905 19.7903 16.9551C19.6034 17.0052 19.4113 16.8942 19.3612 16.7073C19.3111 16.5204 19.422 16.3283 19.6089 16.2782C19.7958 16.2281 19.988 16.3391 20.0381 16.526Z" fill="#D0EBF7"/>
<path d="M19.2675 18.0675C19.3176 18.2544 19.2067 18.4465 19.0198 18.4966C18.8329 18.5467 18.6408 18.4357 18.5907 18.2488C18.5406 18.0619 18.6515 17.8698 18.8384 17.8197C19.0253 17.7696 19.2175 17.8806 19.2675 18.0675Z" fill="#D0EBF7"/>
<path d="M16.955 17.2967C17.0051 17.4836 16.8942 17.6757 16.7073 17.7258C16.5204 17.7759 16.3283 17.665 16.2782 17.4781C16.2281 17.2912 16.339 17.099 16.5259 17.049C16.7128 16.9989 16.905 17.1098 16.955 17.2967Z" fill="#D0EBF7"/>
<path d="M21.58 18.8385C21.6301 19.0254 21.5192 19.2175 21.3323 19.2676C21.1454 19.3177 20.9533 19.2067 20.9032 19.0198C20.8531 18.8329 20.964 18.6408 21.1509 18.5907C21.3378 18.5406 21.53 18.6516 21.58 18.8385Z" fill="#D0EBF7"/>
<path d="M23.8925 17.2967C23.9426 17.4836 23.8317 17.6757 23.6448 17.7258C23.4579 17.7759 23.2658 17.665 23.2157 17.4781C23.1656 17.2912 23.2765 17.099 23.4634 17.049C23.6503 16.9989 23.8425 17.1098 23.8925 17.2967Z" fill="#D0EBF7"/>
<path d="M26.205 11.13C26.2551 11.3169 26.1442 11.509 25.9573 11.5591C25.7704 11.6092 25.5783 11.4982 25.5282 11.3113C25.4781 11.1244 25.589 10.9323 25.7759 10.8822C25.9628 10.8321 26.155 10.9431 26.205 11.13Z" fill="#D0EBF7"/>
<path d="M28.5175 9.58846C28.5676 9.77537 28.4567 9.96749 28.2698 10.0176C28.0829 10.0677 27.8908 9.95674 27.8407 9.76983C27.7906 9.58292 27.9015 9.3908 28.0884 9.34071C28.2753 9.29063 28.4675 9.40155 28.5175 9.58846Z" fill="#D0EBF7"/>
<path d="M26.9756 14.9842C27.0256 15.1711 26.9147 15.3632 26.7278 15.4133C26.5409 15.4634 26.3488 15.3525 26.2987 15.1656C26.2486 14.9787 26.3595 14.7865 26.5464 14.7365C26.7333 14.6864 26.9255 14.7973 26.9756 14.9842Z" fill="#D0EBF7"/>
<path d="M26.205 12.6717C26.2551 12.8586 26.1442 13.0507 25.9573 13.1008C25.7704 13.1509 25.5783 13.04 25.5282 12.8531C25.4781 12.6662 25.589 12.474 25.7759 12.424C25.9628 12.3739 26.155 12.4848 26.205 12.6717Z" fill="#D0EBF7"/>
<path fill-rule="evenodd" clip-rule="evenodd" d="M57.8878 49.6017C57.4766 49.4916 57.2326 49.0689 57.3428 48.6577L61.7744 32.1184L50.757 13.0357C50.5441 12.667 50.6705 12.1956 51.0391 11.9827C51.4078 11.7698 51.8793 11.8962 52.0921 12.2648L63.2692 31.6241C63.3714 31.8012 63.3991 32.0116 63.3462 32.209L58.8319 49.0567C58.7217 49.4679 58.299 49.7119 57.8878 49.6017Z" fill="#91ACB7"/>
<path fill-rule="evenodd" clip-rule="evenodd" d="M13.0282 19.0572C13.4394 19.1674 13.6834 19.5901 13.5733 20.0013L9.14158 36.5405L20.159 55.6233C20.3719 55.9919 20.2456 56.4634 19.8769 56.6762C19.5082 56.8891 19.0368 56.7628 18.8239 56.3941L7.64681 37.0348C7.54459 36.8578 7.51689 36.6474 7.5698 36.4499L12.0841 19.6023C12.1943 19.191 12.617 18.947 13.0282 19.0572Z" fill="#D4EFFB"/>
<path fill-rule="evenodd" clip-rule="evenodd" d="M7.92928 35.982C8.29796 35.7692 8.7694 35.8955 8.98226 36.2642L10.9093 39.602C11.1222 39.9706 10.9959 40.4421 10.6272 40.6549C10.2585 40.8678 9.78708 40.7415 9.57422 40.3728L7.64714 37.035C7.43428 36.6663 7.5606 36.1949 7.92928 35.982Z" fill="#FAFEFF"/>
<path fill-rule="evenodd" clip-rule="evenodd" d="M27.7492 20.9783C20.3755 25.2355 17.8491 34.6642 22.1063 42.0378C26.3635 49.4115 35.7922 51.9379 43.1658 47.6807C50.5395 43.4235 53.0659 33.9948 48.8087 26.6212C44.5515 19.2475 35.1229 16.7211 27.7492 20.9783ZM20.7712 42.8087C16.0882 34.6976 18.8673 24.3261 26.9783 19.6431C35.0894 14.9602 45.4609 17.7393 50.1439 25.8503C54.8268 33.9614 52.0477 44.3329 43.9367 49.0158C35.8256 53.6988 25.4541 50.9197 20.7712 42.8087Z" fill="#CBE1EB"/>
<path fill-rule="evenodd" clip-rule="evenodd" d="M20.7116 27.606C21.107 27.7638 21.2997 28.2122 21.142 28.6076C19.7091 32.2 19.6341 36.2966 21.1406 40.0516C21.2991 40.4467 21.1073 40.8955 20.7122 41.054C20.317 41.2126 19.8683 41.0208 19.7097 40.6256C18.0511 36.4911 18.1354 31.9843 19.71 28.0364C19.8678 27.641 20.3162 27.4483 20.7116 27.606Z" fill="#E1F7FF"/>
<path d="M49.2917 49.0399C49.611 49.5929 49.4216 50.3001 48.8685 50.6194C48.3155 50.9387 47.6084 50.7492 47.2891 50.1962C46.9698 49.6431 47.1593 48.936 47.7123 48.6167C48.2653 48.2974 48.9725 48.4869 49.2917 49.0399Z" fill="#8DADBA"/>
<path d="M51.3836 46.4968C51.5965 46.8655 51.4702 47.3369 51.1015 47.5498C50.7328 47.7627 50.2614 47.6363 50.0485 47.2677C49.8356 46.899 49.962 46.4275 50.3306 46.2147C50.6993 46.0018 51.1708 46.1281 51.3836 46.4968Z" fill="#8DADBA"/>
<path d="M55.9539 42.0784C56.1668 42.4471 56.0405 42.9185 55.6718 43.1313C55.3031 43.3442 54.8317 43.2179 54.6188 42.8492C54.406 42.4805 54.5323 42.0091 54.901 41.7962C55.2696 41.5834 55.7411 41.7097 55.9539 42.0784Z" fill="#8DADBA"/>
<path d="M52.912 46.0599C53.0185 46.2443 52.9553 46.48 52.771 46.5864C52.5866 46.6929 52.3509 46.6297 52.2445 46.4454C52.138 46.261 52.2012 46.0253 52.3855 45.9189C52.5699 45.8124 52.8056 45.8756 52.912 46.0599Z" fill="#8DADBA"/>
<path d="M49.498 52.4811C49.6044 52.6654 49.5412 52.9011 49.3569 53.0076C49.1726 53.114 48.9368 53.0508 48.8304 52.8665C48.724 52.6822 48.7871 52.4464 48.9715 52.34C49.1558 52.2336 49.3915 52.2967 49.498 52.4811Z" fill="#8DADBA"/>
<path d="M46.3398 51.6346C46.4462 51.819 46.383 52.0547 46.1987 52.1611C46.0143 52.2676 45.7786 52.2044 45.6722 52.0201C45.5658 51.8357 45.6289 51.6 45.8133 51.4936C45.9976 51.3871 46.2333 51.4503 46.3398 51.6346Z" fill="#8DADBA"/>
<path d="M45.1073 54.1259C45.2138 54.3102 45.1506 54.5459 44.9663 54.6523C44.7819 54.7588 44.5462 54.6956 44.4398 54.5113C44.3333 54.3269 44.3965 54.0912 44.5809 53.9848C44.7652 53.8784 45.0009 53.9415 45.1073 54.1259Z" fill="#8DADBA"/>
<path d="M40.2284 53.3827C40.3349 53.567 40.2717 53.8027 40.0874 53.9092C39.903 54.0156 39.6673 53.9524 39.5609 53.7681C39.4544 53.5838 39.5176 53.348 39.7019 53.2416C39.8863 53.1352 40.122 53.1983 40.2284 53.3827Z" fill="#8DADBA"/>
<path d="M55.2997 45.5712C55.4062 45.7555 55.343 45.9912 55.1587 46.0977C54.9743 46.2041 54.7386 46.1409 54.6322 45.9566C54.5257 45.7722 54.5889 45.5365 54.7732 45.4301C54.9576 45.3237 55.1933 45.3868 55.2997 45.5712Z" fill="#8DADBA"/>
<path d="M54.2196 39.0743C54.3261 39.2587 54.2629 39.4944 54.0786 39.6008C53.8942 39.7073 53.6585 39.6441 53.5521 39.4598C53.4457 39.2754 53.5088 39.0397 53.6932 38.9333C53.8775 38.8268 54.1132 38.89 54.2196 39.0743Z" fill="#8DADBA"/>
<path d="M55.9394 38.9711C56.0458 39.1554 55.9826 39.3911 55.7983 39.4976C55.614 39.604 55.3782 39.5408 55.2718 39.3565C55.1654 39.1721 55.2285 38.9364 55.4129 38.83C55.5972 38.7236 55.8329 38.7867 55.9394 38.9711Z" fill="#8DADBA"/>
<path d="M54.3984 36.3009C54.5048 36.4852 54.4416 36.721 54.2573 36.8274C54.0729 36.9338 53.8372 36.8707 53.7308 36.6863C53.6244 36.502 53.6875 36.2663 53.8719 36.1598C54.0562 36.0534 54.2919 36.1166 54.3984 36.3009Z" fill="#8DADBA"/>
<path d="M54.2606 48.3962C54.4734 48.7649 54.3471 49.2364 53.9784 49.4492C53.6097 49.6621 53.1383 49.5358 52.9255 49.1671C52.7126 48.7984 52.8389 48.327 53.2076 48.1141C53.5763 47.9012 54.0477 48.0276 54.2606 48.3962Z" fill="#8DADBA"/>
<path d="M51.9754 50.6055C52.1883 50.9742 52.062 51.4456 51.6933 51.6584C51.3246 51.8713 50.8532 51.745 50.6403 51.3763C50.4274 51.0076 50.5538 50.5362 50.9224 50.3233C51.2911 50.1105 51.7626 50.2368 51.9754 50.6055Z" fill="#8DADBA"/>
<path d="M43.4764 52.8425C43.6893 53.2112 43.5629 53.6826 43.1943 53.8955C42.8256 54.1084 42.3541 53.982 42.1413 53.6134C41.9284 53.2447 42.0547 52.7732 42.4234 52.5604C42.7921 52.3475 43.2635 52.4738 43.4764 52.8425Z" fill="#8DADBA"/>
<path d="M52.8983 42.9526C53.1111 43.3213 52.9848 43.7928 52.6161 44.0056C52.2474 44.2185 51.776 44.0922 51.5632 43.7235C51.3503 43.3548 51.4766 42.8834 51.8453 42.6705C52.214 42.4576 52.6854 42.584 52.8983 42.9526Z" fill="#8DADBA"/>
</g>
<defs>
<clipPath id="clip0_24_2441">
<rect width="74" height="74" fill="white"/>
</clipPath>
</defs>
</svg>
