<svg width="74" height="74" viewBox="0 0 74 74" fill="none" xmlns="http://www.w3.org/2000/svg">
<g clip-path="url(#clip0_9_161)">
<path fill-rule="evenodd" clip-rule="evenodd" d="M22.6281 63.6205C22.2332 63.5147 21.8965 63.2563 21.692 62.9022L9.99727 42.6463C9.79283 42.2922 9.73743 41.8714 9.84325 41.4764L14.5913 23.7565C14.6971 23.3615 14.9555 23.0248 15.3096 22.8204L35.5655 11.1256C35.9196 10.9212 36.3404 10.8658 36.7354 10.9716L54.4553 15.7196C54.8503 15.8255 55.187 16.0838 55.3914 16.4379L67.0862 36.6939C67.2906 37.0479 67.346 37.4688 67.2402 37.8637L62.4922 55.5837C62.3863 55.9786 62.1279 56.3153 61.7739 56.5198L41.5179 68.2145C41.1638 68.419 40.743 68.4744 40.3481 68.3685L22.6281 63.6205ZM45.8646 52.3537C52.8696 48.3094 55.2697 39.3521 51.2254 32.3471C47.1811 25.3422 38.2238 22.9421 31.2188 26.9864C24.2138 31.0307 21.8137 39.988 25.8581 46.993C29.9024 53.998 38.8597 56.3981 45.8646 52.3537Z" fill="#68848F"/>
<path fill-rule="evenodd" clip-rule="evenodd" d="M20.3569 63.6731L8.66214 43.4172C8.25327 42.709 8.14247 41.8674 8.35412 41.0775L13.1022 23.3575C13.3138 22.5676 13.8306 21.8942 14.5388 21.4853L34.7947 9.79056C35.5029 9.38169 36.3445 9.27089 37.1344 9.48254L54.8543 14.2306C55.6442 14.4422 56.3177 14.959 56.7266 15.6672L68.4213 35.9231C68.8302 36.6313 68.941 37.4729 68.7293 38.2628L63.9813 55.9828C63.7696 56.7726 63.2529 57.4461 62.5447 57.855L42.2888 69.5497C41.5806 69.9586 40.739 70.0694 39.9491 69.8578L22.2291 65.1097C21.4392 64.8981 20.7658 64.3813 20.3569 63.6731ZM45.0938 51.0187C51.3614 47.4001 53.5089 39.3857 49.8903 33.1181C46.2716 26.8504 38.2573 24.703 31.9896 28.3216C25.722 31.9402 23.5746 39.9546 27.1932 46.2222C30.8118 52.4899 38.8262 54.6373 45.0938 51.0187ZM21.692 62.9023C21.8965 63.2564 22.2332 63.5147 22.6281 63.6206L40.3481 68.3686C40.743 68.4744 41.1638 68.419 41.5179 68.2146L61.7738 56.5198C62.1279 56.3154 62.3863 55.9787 62.4921 55.5837L67.2402 37.8638C67.346 37.4688 67.2906 37.048 67.0862 36.6939L55.3914 16.438C55.187 16.0839 54.8503 15.8255 54.4553 15.7197L36.7354 10.9717C36.3404 10.8658 35.9196 10.9212 35.5655 11.1257L15.3096 22.8204C14.9555 23.0249 14.6971 23.3616 14.5913 23.7565L9.84325 41.4765C9.73743 41.8715 9.79283 42.2923 9.99727 42.6464L21.692 62.9023ZM51.2254 32.3472C55.2697 39.3522 52.8696 48.3095 45.8646 52.3538C38.8596 56.3981 29.9024 53.9981 25.8581 46.9931C21.8137 39.9881 24.2138 31.0308 31.2188 26.9865C38.2238 22.9421 47.1811 25.3422 51.2254 32.3472Z" fill="#1B343E"/>
<path d="M9.84325 41.4764L14.5913 23.7565C14.6971 23.3615 14.9555 23.0248 15.3096 22.8204L25.4376 16.973L31.2188 26.9864C24.2138 31.0307 21.8137 39.988 25.8581 46.993L9.99727 42.6463C9.79283 42.2922 9.73743 41.8714 9.84325 41.4764Z" fill="#44626D"/>
<path d="M22.0113 63.4552L18.928 58.1147L37.8816 63.1933L40.9649 68.5338L22.0113 63.4552Z" fill="#A7C2CD"/>
<path d="M55.3914 16.4382L67.0862 36.6941C67.2906 37.0482 67.346 37.469 67.2402 37.8639L62.4921 55.5839L53.1888 39.47C53.1579 37.046 52.5237 34.5961 51.2254 32.3474L55.3914 16.4382Z" fill="#44626D"/>
<path fill-rule="evenodd" clip-rule="evenodd" d="M19.5449 58.2799C19.1499 58.1741 18.8132 57.9157 18.6088 57.5616L6.91402 37.3057C6.70958 36.9516 6.65418 36.5308 6.76 36.1359L11.5081 18.4159C11.6139 18.0209 11.8723 17.6842 12.2264 17.4798L32.4823 5.78503C32.8364 5.58059 33.2572 5.52519 33.6521 5.63101L51.3721 10.3791C51.767 10.4849 52.1037 10.7433 52.3082 11.0974L64.0029 31.3533C64.2074 31.7074 64.2628 32.1282 64.1569 32.5231L59.4089 50.2431C59.3031 50.638 59.0447 50.9748 58.6906 51.1792L38.4347 62.8739C38.0806 63.0784 37.6598 63.1338 37.2648 63.028L19.5449 58.2799ZM42.7814 47.0131C49.7864 42.9688 52.1865 34.0116 48.1421 27.0066C44.0978 20.0016 35.1406 17.6015 28.1356 21.6458C21.1306 25.6902 18.7305 34.6474 22.7748 41.6524C26.8191 48.6574 35.7764 51.0575 42.7814 47.0131Z" fill="#A7C2CD"/>
<path fill-rule="evenodd" clip-rule="evenodd" d="M17.2736 58.3325L5.57889 38.0766C5.17002 37.3684 5.05921 36.5268 5.27087 35.7369L10.0189 18.017C10.2306 17.2271 10.7473 16.5536 11.4555 16.1447L31.7114 4.44999C32.4196 4.04111 33.2612 3.93031 34.0511 4.14196L51.7711 8.89001C52.561 9.10166 53.2344 9.61842 53.6433 10.3266L65.3381 30.5825C65.7469 31.2907 65.8577 32.1323 65.6461 32.9222L60.898 50.6422C60.6864 51.4321 60.1696 52.1055 59.4614 52.5144L39.2055 64.2092C38.4973 64.618 37.6557 64.7288 36.8658 64.5172L19.1459 59.7691C18.356 59.5575 17.6825 59.0407 17.2736 58.3325ZM42.0106 45.6781C48.2782 42.0595 50.4256 34.0451 46.807 27.7775C43.1884 21.5099 35.174 19.3624 28.9064 22.981C22.6388 26.5996 20.4913 34.614 24.1099 40.8816C27.7285 47.1493 35.7429 49.2967 42.0106 45.6781ZM18.6088 57.5617C18.8132 57.9158 19.1499 58.1742 19.5449 58.28L37.2648 63.028C37.6598 63.1339 38.0806 63.0785 38.4347 62.874L58.6906 51.1793C59.0447 50.9748 59.3031 50.6381 59.4089 50.2432L64.1569 32.5232C64.2628 32.1283 64.2074 31.7075 64.0029 31.3534L52.3082 11.0974C52.1037 10.7433 51.767 10.485 51.3721 10.3791L33.6521 5.6311C33.2572 5.52527 32.8364 5.58067 32.4823 5.78511L12.2264 17.4799C11.8723 17.6843 11.6139 18.021 11.5081 18.416L6.76 36.1359C6.65418 36.5309 6.70958 36.9517 6.91401 37.3058L18.6088 57.5617ZM48.1421 27.0066C52.1865 34.0116 49.7864 42.9689 42.7814 47.0132C35.7764 51.0576 26.8191 48.6575 22.7748 41.6525C18.7305 34.6475 21.1306 25.6902 28.1356 21.6459C35.1406 17.6016 44.0978 20.0017 48.1421 27.0066Z" fill="#1B343E"/>
<path d="M18.6088 57.5616L6.91401 37.3057C6.70958 36.9516 6.65418 36.5308 6.76 36.1359L11.5081 18.4159C11.6139 18.0209 11.8723 17.6842 12.2264 17.4798L32.4823 5.78503L28.1356 21.6458C21.1306 25.6902 18.7305 34.6474 22.7748 41.6524L18.6088 57.5616Z" fill="#B9D4DF"/>
<path d="M22.533 16.0842C22.7459 16.4529 22.6196 16.9243 22.2509 17.1372C21.8822 17.3501 21.4108 17.2237 21.1979 16.8551C20.9851 16.4864 21.1114 16.0149 21.4801 15.8021C21.8487 15.5892 22.3202 15.7155 22.533 16.0842Z" fill="#D0EBF7"/>
<path d="M24.8455 13.7717C25.0584 14.1404 24.9321 14.6118 24.5634 14.8247C24.1947 15.0376 23.7233 14.9112 23.5104 14.5426C23.2976 14.1739 23.4239 13.7024 23.7926 13.4896C24.1612 13.2767 24.6327 13.403 24.8455 13.7717Z" fill="#D0EBF7"/>
<path d="M28.2697 12.0632C28.4293 12.3397 28.3346 12.6933 28.058 12.8529C27.7815 13.0125 27.428 12.9178 27.2683 12.6413C27.1087 12.3648 27.2034 12.0112 27.4799 11.8516C27.7564 11.6919 28.11 11.7867 28.2697 12.0632Z" fill="#D0EBF7"/>
<path d="M22.1029 14.3757C22.2625 14.6522 22.1678 15.0058 21.8913 15.1654C21.6148 15.325 21.2612 15.2303 21.1016 14.9538C20.9419 14.6773 21.0367 14.3237 21.3132 14.1641C21.5897 14.0044 21.9433 14.0992 22.1029 14.3757Z" fill="#D0EBF7"/>
<path d="M25.5935 17.2791C25.6436 17.466 25.5326 17.6582 25.3457 17.7082C25.1588 17.7583 24.9667 17.6474 24.9166 17.4605C24.8665 17.2736 24.9774 17.0815 25.1644 17.0314C25.3513 16.9813 25.5434 17.0922 25.5935 17.2791Z" fill="#D0EBF7"/>
<path d="M24.6633 15.755C24.7134 15.9419 24.6025 16.134 24.4155 16.1841C24.2286 16.2342 24.0365 16.1232 23.9864 15.9363C23.9364 15.7494 24.0473 15.5573 24.2342 15.5072C24.4211 15.4571 24.6132 15.5681 24.6633 15.755Z" fill="#D0EBF7"/>
<path d="M18.4968 16.526C18.5469 16.7129 18.436 16.905 18.249 16.9551C18.0621 17.0052 17.87 16.8942 17.8199 16.7073C17.7698 16.5204 17.8808 16.3283 18.0677 16.2782C18.2546 16.2281 18.4467 16.3391 18.4968 16.526Z" fill="#D0EBF7"/>
<path d="M20.0383 16.526C20.0884 16.7129 19.9775 16.905 19.7905 16.9551C19.6036 17.0052 19.4115 16.8942 19.3614 16.7073C19.3114 16.5204 19.4223 16.3283 19.6092 16.2782C19.7961 16.2281 19.9882 16.3391 20.0383 16.526Z" fill="#D0EBF7"/>
<path d="M19.2675 18.0675C19.3176 18.2544 19.2067 18.4465 19.0198 18.4966C18.8329 18.5467 18.6408 18.4357 18.5907 18.2488C18.5406 18.0619 18.6515 17.8698 18.8384 17.8197C19.0253 17.7696 19.2175 17.8806 19.2675 18.0675Z" fill="#D0EBF7"/>
<path d="M16.955 17.2967C17.0051 17.4836 16.8942 17.6757 16.7073 17.7258C16.5204 17.7759 16.3283 17.665 16.2782 17.4781C16.2281 17.2912 16.339 17.099 16.5259 17.049C16.7128 16.9989 16.905 17.1098 16.955 17.2967Z" fill="#D0EBF7"/>
<path d="M21.58 18.8385C21.6301 19.0254 21.5192 19.2175 21.3323 19.2676C21.1454 19.3177 20.9533 19.2067 20.9032 19.0198C20.8531 18.8329 20.964 18.6408 21.1509 18.5907C21.3378 18.5406 21.53 18.6516 21.58 18.8385Z" fill="#D0EBF7"/>
<path d="M23.8925 17.2967C23.9426 17.4836 23.8317 17.6757 23.6448 17.7258C23.4579 17.7759 23.2658 17.665 23.2157 17.4781C23.1656 17.2912 23.2765 17.099 23.4634 17.049C23.6503 16.9989 23.8425 17.1098 23.8925 17.2967Z" fill="#D0EBF7"/>
<path d="M26.205 11.13C26.2551 11.3169 26.1442 11.509 25.9573 11.5591C25.7704 11.6092 25.5783 11.4982 25.5282 11.3113C25.4781 11.1244 25.589 10.9323 25.7759 10.8822C25.9628 10.8321 26.155 10.9431 26.205 11.13Z" fill="#D0EBF7"/>
<path d="M28.5175 9.58846C28.5676 9.77537 28.4567 9.96749 28.2698 10.0176C28.0829 10.0677 27.8908 9.95674 27.8407 9.76983C27.7906 9.58292 27.9015 9.3908 28.0884 9.34071C28.2753 9.29063 28.4675 9.40155 28.5175 9.58846Z" fill="#D0EBF7"/>
<path d="M26.9758 14.9842C27.0259 15.1711 26.915 15.3632 26.728 15.4133C26.5411 15.4634 26.349 15.3525 26.2989 15.1656C26.2489 14.9787 26.3598 14.7865 26.5467 14.7365C26.7336 14.6864 26.9257 14.7973 26.9758 14.9842Z" fill="#D0EBF7"/>
<path d="M26.205 12.6717C26.2551 12.8586 26.1442 13.0507 25.9573 13.1008C25.7704 13.1509 25.5783 13.04 25.5282 12.8531C25.4781 12.6662 25.589 12.474 25.7759 12.424C25.9628 12.3739 26.155 12.4848 26.205 12.6717Z" fill="#D0EBF7"/>
<path fill-rule="evenodd" clip-rule="evenodd" d="M57.8878 49.6017C57.4766 49.4916 57.2326 49.0689 57.3428 48.6577L61.7744 32.1184L50.757 13.0357C50.5441 12.667 50.6705 12.1956 51.0391 11.9827C51.4078 11.7698 51.8793 11.8962 52.0921 12.2648L63.2692 31.6241C63.3714 31.8012 63.3991 32.0116 63.3462 32.209L58.8319 49.0567C58.7217 49.4679 58.299 49.7119 57.8878 49.6017Z" fill="#91ACB7"/>
<path fill-rule="evenodd" clip-rule="evenodd" d="M13.0292 19.0572C13.4404 19.1674 13.6844 19.5901 13.5742 20.0013L9.14255 36.5405L20.16 55.6233C20.3729 55.9919 20.2465 56.4634 19.8778 56.6762C19.5092 56.8891 19.0377 56.7628 18.8249 56.3941L7.64779 37.0348C7.54557 36.8578 7.51787 36.6474 7.57078 36.4499L12.0851 19.6023C12.1953 19.191 12.618 18.947 13.0292 19.0572Z" fill="#D4EFFB"/>
<path fill-rule="evenodd" clip-rule="evenodd" d="M7.92977 35.982C8.29845 35.7692 8.76989 35.8955 8.98275 36.2642L10.9098 39.602C11.1227 39.9706 10.9964 40.4421 10.6277 40.6549C10.259 40.8678 9.78757 40.7415 9.57471 40.3728L7.64762 37.035C7.43476 36.6663 7.56108 36.1949 7.92977 35.982Z" fill="#FAFEFF"/>
<path fill-rule="evenodd" clip-rule="evenodd" d="M27.7501 20.9783C20.3765 25.2355 17.8501 34.6642 22.1073 42.0378C26.3645 49.4115 35.7931 51.9379 43.1668 47.6807C50.5405 43.4235 53.0669 33.9948 48.8097 26.6212C44.5525 19.2475 35.1238 16.7211 27.7501 20.9783ZM20.7721 42.8087C16.0892 34.6976 18.8683 24.3261 26.9793 19.6431C35.0904 14.9602 45.4619 17.7393 50.1448 25.8503C54.8277 33.9614 52.0487 44.3329 43.9377 49.0158C35.8266 53.6988 25.4551 50.9197 20.7721 42.8087Z" fill="#CBE1EB"/>
<path fill-rule="evenodd" clip-rule="evenodd" d="M20.7118 27.606C21.1073 27.7638 21.3 28.2122 21.1422 28.6076C19.7094 32.2 19.6344 36.2966 21.1408 40.0516C21.2993 40.4467 21.1075 40.8955 20.7124 41.054C20.3173 41.2126 19.8685 41.0208 19.71 40.6256C18.0513 36.4911 18.1356 31.9843 19.7103 28.0364C19.868 27.641 20.3164 27.4483 20.7118 27.606Z" fill="#E1F7FF"/>
<path d="M49.292 49.0399C49.6113 49.5929 49.4218 50.3001 48.8688 50.6194C48.3157 50.9387 47.6086 50.7492 47.2893 50.1962C46.97 49.6431 47.1595 48.936 47.7125 48.6167C48.2655 48.2974 48.9727 48.4869 49.292 49.0399Z" fill="#8DADBA"/>
<path d="M51.3841 46.4968C51.597 46.8655 51.4707 47.3369 51.102 47.5498C50.7333 47.7627 50.2619 47.6363 50.049 47.2677C49.8361 46.899 49.9625 46.4275 50.3311 46.2147C50.6998 46.0018 51.1713 46.1281 51.3841 46.4968Z" fill="#8DADBA"/>
<path d="M55.9539 42.0784C56.1668 42.4471 56.0405 42.9185 55.6718 43.1313C55.3031 43.3442 54.8317 43.2179 54.6188 42.8492C54.406 42.4805 54.5323 42.0091 54.901 41.7962C55.2696 41.5834 55.7411 41.7097 55.9539 42.0784Z" fill="#8DADBA"/>
<path d="M52.912 46.0599C53.0185 46.2443 52.9553 46.48 52.771 46.5864C52.5866 46.6929 52.3509 46.6297 52.2445 46.4454C52.138 46.261 52.2012 46.0253 52.3855 45.9189C52.5699 45.8124 52.8056 45.8756 52.912 46.0599Z" fill="#8DADBA"/>
<path d="M49.4987 52.4811C49.6051 52.6654 49.542 52.9011 49.3576 53.0076C49.1733 53.114 48.9376 53.0508 48.8311 52.8665C48.7247 52.6822 48.7879 52.4464 48.9722 52.34C49.1566 52.2336 49.3923 52.2967 49.4987 52.4811Z" fill="#8DADBA"/>
<path d="M46.3398 51.6346C46.4462 51.819 46.383 52.0547 46.1987 52.1611C46.0143 52.2676 45.7786 52.2044 45.6722 52.0201C45.5658 51.8357 45.6289 51.6 45.8133 51.4936C45.9976 51.3871 46.2333 51.4503 46.3398 51.6346Z" fill="#8DADBA"/>
<path d="M45.1078 54.1259C45.2143 54.3102 45.1511 54.5459 44.9668 54.6523C44.7824 54.7588 44.5467 54.6956 44.4403 54.5113C44.3338 54.3269 44.397 54.0912 44.5813 53.9848C44.7657 53.8784 45.0014 53.9415 45.1078 54.1259Z" fill="#8DADBA"/>
<path d="M40.2284 53.3827C40.3349 53.567 40.2717 53.8027 40.0874 53.9092C39.903 54.0156 39.6673 53.9524 39.5609 53.7681C39.4544 53.5838 39.5176 53.348 39.7019 53.2416C39.8863 53.1352 40.122 53.1983 40.2284 53.3827Z" fill="#8DADBA"/>
<path d="M55.3002 45.5712C55.4066 45.7555 55.3435 45.9912 55.1591 46.0977C54.9748 46.2041 54.7391 46.1409 54.6326 45.9566C54.5262 45.7722 54.5894 45.5365 54.7737 45.4301C54.9581 45.3237 55.1938 45.3868 55.3002 45.5712Z" fill="#8DADBA"/>
<path d="M54.2194 39.0743C54.3258 39.2587 54.2627 39.4944 54.0783 39.6008C53.894 39.7073 53.6583 39.6441 53.5518 39.4598C53.4454 39.2754 53.5086 39.0397 53.6929 38.9333C53.8773 38.8268 54.113 38.89 54.2194 39.0743Z" fill="#8DADBA"/>
<path d="M55.9401 38.9711C56.0465 39.1554 55.9834 39.3911 55.799 39.4976C55.6147 39.604 55.379 39.5408 55.2725 39.3565C55.1661 39.1721 55.2293 38.9364 55.4136 38.83C55.598 38.7236 55.8337 38.7867 55.9401 38.9711Z" fill="#8DADBA"/>
<path d="M54.3984 36.3009C54.5048 36.4852 54.4416 36.721 54.2573 36.8274C54.0729 36.9338 53.8372 36.8707 53.7308 36.6863C53.6244 36.502 53.6875 36.2663 53.8719 36.1598C54.0562 36.0534 54.2919 36.1166 54.3984 36.3009Z" fill="#8DADBA"/>
<path d="M54.2611 48.3962C54.4739 48.7649 54.3476 49.2364 53.9789 49.4492C53.6102 49.6621 53.1388 49.5358 52.9259 49.1671C52.7131 48.7984 52.8394 48.327 53.2081 48.1141C53.5768 47.9012 54.0482 48.0276 54.2611 48.3962Z" fill="#8DADBA"/>
<path d="M51.9762 50.6055C52.189 50.9742 52.0627 51.4456 51.694 51.6584C51.3253 51.8713 50.8539 51.745 50.641 51.3763C50.4282 51.0076 50.5545 50.5362 50.9232 50.3233C51.2919 50.1105 51.7633 50.2368 51.9762 50.6055Z" fill="#8DADBA"/>
<path d="M43.4766 52.8425C43.6895 53.2112 43.5632 53.6826 43.1945 53.8955C42.8258 54.1084 42.3544 53.982 42.1415 53.6134C41.9287 53.2447 42.055 52.7732 42.4237 52.5604C42.7923 52.3475 43.2638 52.4738 43.4766 52.8425Z" fill="#8DADBA"/>
<path d="M52.8983 42.9526C53.1111 43.3213 52.9848 43.7928 52.6161 44.0056C52.2474 44.2185 51.776 44.0922 51.5632 43.7235C51.3503 43.3548 51.4766 42.8834 51.8453 42.6705C52.214 42.4576 52.6854 42.584 52.8983 42.9526Z" fill="#8DADBA"/>
</g>
<defs>
<clipPath id="clip0_9_161">
<rect width="74" height="74" fill="white"/>
</clipPath>
</defs>
</svg>
