<svg width="75" height="76" viewBox="0 0 75 76" fill="none" xmlns="http://www.w3.org/2000/svg">
<path d="M15.625 25.3333H59.375V26.9166C59.375 28.6655 57.9759 30.0833 56.25 30.0833H18.75C17.0241 30.0833 15.625 28.6655 15.625 26.9166V25.3333Z" fill="#B9D2E7"/>
<path fill-rule="evenodd" clip-rule="evenodd" d="M14.0625 25.3333C14.0625 24.4589 14.7621 23.75 15.625 23.75H59.375C60.2379 23.75 60.9375 24.4589 60.9375 25.3333V26.9167C60.9375 29.54 58.8388 31.6667 56.25 31.6667H18.75C16.1612 31.6667 14.0625 29.54 14.0625 26.9167V25.3333ZM15.625 25.3333V26.9167C15.625 28.6656 17.0241 30.0833 18.75 30.0833H56.25C57.9759 30.0833 59.375 28.6656 59.375 26.9167V25.3333H15.625Z" fill="#0C4667"/>
<path fill-rule="evenodd" clip-rule="evenodd" d="M17.1875 27.7084C17.1875 27.2712 17.5373 26.9167 17.9688 26.9167H37.1094C37.5408 26.9167 37.8906 27.2712 37.8906 27.7084C37.8906 28.1456 37.5408 28.5001 37.1094 28.5001H17.9688C17.5373 28.5001 17.1875 28.1456 17.1875 27.7084Z" fill="#ECF6FF"/>
<path fill-rule="evenodd" clip-rule="evenodd" d="M59.375 25.3333H15.625V26.9166L59.375 26.9166V25.3333Z" fill="#628AAC"/>
<path fill-rule="evenodd" clip-rule="evenodd" d="M14.0625 6.33325C13.1996 6.33325 12.5 7.04213 12.5 7.91659V15.8333V17.4166V20.5833C12.5 22.3322 13.8991 23.7499 15.625 23.7499H59.375C61.1009 23.7499 62.5 22.3322 62.5 20.5833V17.4166V15.8333V7.91659C62.5 7.04213 61.8004 6.33325 60.9375 6.33325H57.8125C56.9496 6.33325 56.25 7.04213 56.25 7.91659V14.2499H51.5625V9.49992C51.5625 8.62547 50.8629 7.91659 50 7.91659H46.875C46.0121 7.91659 45.3125 8.62547 45.3125 9.49992V14.2499H40.625V7.91659C40.625 7.04213 39.9254 6.33325 39.0625 6.33325H35.9375C35.0746 6.33325 34.375 7.04213 34.375 7.91659V14.2499H29.6875V9.49992C29.6875 8.62547 28.9879 7.91659 28.125 7.91659H25C24.1371 7.91659 23.4375 8.62547 23.4375 9.49992V14.2499H18.75V7.91659C18.75 7.04213 18.0504 6.33325 17.1875 6.33325H14.0625Z" fill="#CAE7FE"/>
<path fill-rule="evenodd" clip-rule="evenodd" d="M10.9375 7.91667C10.9375 6.16776 12.3366 4.75 14.0625 4.75H17.1875C18.9134 4.75 20.3125 6.16777 20.3125 7.91667V12.6667H21.875V9.5C21.875 7.7511 23.2741 6.33333 25 6.33333H28.125C29.8509 6.33333 31.25 7.7511 31.25 9.5V12.6667H32.8125V7.91667C32.8125 6.16777 34.2116 4.75 35.9375 4.75H39.0625C40.7884 4.75 42.1875 6.16776 42.1875 7.91667V12.6667H43.75V9.5C43.75 7.7511 45.1491 6.33333 46.875 6.33333H50C51.7259 6.33333 53.125 7.7511 53.125 9.5V12.6667H54.6875V7.91667C54.6875 6.16776 56.0866 4.75 57.8125 4.75H60.9375C62.6634 4.75 64.0625 6.16776 64.0625 7.91667V20.5833C64.0625 23.2067 61.9638 25.3333 59.375 25.3333H15.625C13.0362 25.3333 10.9375 23.2067 10.9375 20.5833V7.91667ZM56.25 7.91667C56.25 7.04222 56.9496 6.33333 57.8125 6.33333H60.9375C61.8004 6.33333 62.5 7.04222 62.5 7.91667V20.5833C62.5 22.3322 61.1009 23.75 59.375 23.75H15.625C13.8991 23.75 12.5 22.3322 12.5 20.5833V7.91667C12.5 7.04222 13.1996 6.33333 14.0625 6.33333H17.1875C18.0504 6.33333 18.75 7.04222 18.75 7.91667V14.25H23.4375V9.5C23.4375 8.62555 24.1371 7.91667 25 7.91667H28.125C28.9879 7.91667 29.6875 8.62555 29.6875 9.5V14.25H34.375V7.91667C34.375 7.04222 35.0746 6.33333 35.9375 6.33333H39.0625C39.9254 6.33333 40.625 7.04222 40.625 7.91667V14.25H45.3125V9.5C45.3125 8.62555 46.0121 7.91667 46.875 7.91667H50C50.8629 7.91667 51.5625 8.62555 51.5625 9.5V14.25H56.25V7.91667Z" fill="#0C4667"/>
<path d="M15.625 68.0833C15.625 67.2089 16.3246 66.5 17.1875 66.5H57.8125C58.6754 66.5 59.375 67.2089 59.375 68.0833C59.375 68.9578 58.6754 69.6667 57.8125 69.6667H17.1875C16.3246 69.6667 15.625 68.9578 15.625 68.0833Z" fill="#B9D2E7"/>
<path fill-rule="evenodd" clip-rule="evenodd" d="M17.1875 64.9167H57.8125C59.5384 64.9167 60.9375 66.3345 60.9375 68.0834C60.9375 69.8323 59.5384 71.2501 57.8125 71.2501H17.1875C15.4616 71.2501 14.0625 69.8323 14.0625 68.0834C14.0625 66.3345 15.4616 64.9167 17.1875 64.9167ZM17.1875 66.5001C16.3246 66.5001 15.625 67.209 15.625 68.0834C15.625 68.9579 16.3246 69.6667 17.1875 69.6667H57.8125C58.6754 69.6667 59.375 68.9579 59.375 68.0834C59.375 67.209 58.6754 66.5001 57.8125 66.5001H17.1875Z" fill="#0C4667"/>
<path fill-rule="evenodd" clip-rule="evenodd" d="M16.4062 67.2917C16.4062 66.8544 16.756 66.5 17.1875 66.5H36.3281C36.7596 66.5 37.1094 66.8544 37.1094 67.2917C37.1094 67.7289 36.7596 68.0833 36.3281 68.0833H17.1875C16.756 68.0833 16.4062 67.7289 16.4062 67.2917Z" fill="#ECF6FF"/>
<path d="M54.6875 31.6667H20.3125V64.9167H54.6875V31.6667Z" fill="#A4C0D7"/>
<path fill-rule="evenodd" clip-rule="evenodd" d="M18.75 31.6666C18.75 30.7921 19.4496 30.0833 20.3125 30.0833H54.6875C55.5504 30.0833 56.25 30.7921 56.25 31.6666V64.9166C56.25 65.791 55.5504 66.4999 54.6875 66.4999H20.3125C19.4496 66.4999 18.75 65.791 18.75 64.9166V31.6666ZM54.6875 64.9166H20.3125V31.6666H54.6875V64.9166Z" fill="#0C4667"/>
<path d="M54.6875 31.6667H20.3125V33.2501H54.6875V31.6667Z" fill="#628BAC"/>
<path d="M31.25 52.2498C31.25 48.752 34.0482 45.9165 37.5 45.9165C40.9518 45.9165 43.75 48.752 43.75 52.2498V64.9165H31.25V52.2498Z" fill="#AF7347"/>
<path fill-rule="evenodd" clip-rule="evenodd" d="M45.3125 66.4999H29.6875V52.2499C29.6875 47.8777 33.1853 44.3333 37.5 44.3333C41.8147 44.3333 45.3125 47.8777 45.3125 52.2499V66.4999ZM37.5 45.9166C34.0482 45.9166 31.25 48.7521 31.25 52.2499V64.9166H43.75V52.2499C43.75 48.7521 40.9518 45.9166 37.5 45.9166Z" fill="#0C4667"/>
<path fill-rule="evenodd" clip-rule="evenodd" d="M32.8125 56.2083C33.244 56.2083 33.5938 56.5627 33.5938 56.9999V63.3332C33.5938 63.7705 33.244 64.1249 32.8125 64.1249C32.381 64.1249 32.0312 63.7705 32.0312 63.3332V56.9999C32.0312 56.5627 32.381 56.2083 32.8125 56.2083Z" fill="#8D5D39"/>
<path fill-rule="evenodd" clip-rule="evenodd" d="M35.9375 54.625C36.369 54.625 36.7188 54.9794 36.7188 55.4167V63.3333C36.7188 63.7706 36.369 64.125 35.9375 64.125C35.506 64.125 35.1562 63.7706 35.1562 63.3333V55.4167C35.1562 54.9794 35.506 54.625 35.9375 54.625Z" fill="#8D5D39"/>
<path fill-rule="evenodd" clip-rule="evenodd" d="M37.5 48.2916C35.2056 48.2916 33.9856 49.941 33.5264 50.9881C33.3511 51.3877 32.8894 51.5676 32.4952 51.39C32.1009 51.2124 31.9233 50.7446 32.0985 50.3451C32.6809 49.0172 34.3255 46.7083 37.5 46.7083C37.9314 46.7083 38.2812 47.0627 38.2812 47.4999C38.2812 47.9371 37.9314 48.2916 37.5 48.2916Z" fill="#D09366"/>
<path fill-rule="evenodd" clip-rule="evenodd" d="M39.0625 54.625C39.494 54.625 39.8438 54.9794 39.8438 55.4167V63.3333C39.8438 63.7706 39.494 64.125 39.0625 64.125C38.631 64.125 38.2812 63.7706 38.2812 63.3333V55.4167C38.2812 54.9794 38.631 54.625 39.0625 54.625Z" fill="#8D5D39"/>
<path fill-rule="evenodd" clip-rule="evenodd" d="M42.1875 56.2083C42.619 56.2083 42.9688 56.5627 42.9688 56.9999V63.3332C42.9688 63.7705 42.619 64.1249 42.1875 64.1249C41.756 64.1249 41.4062 63.7705 41.4062 63.3332V56.9999C41.4062 56.5627 41.756 56.2083 42.1875 56.2083Z" fill="#8D5D39"/>
<path fill-rule="evenodd" clip-rule="evenodd" d="M24.2188 41.1667C24.2188 40.7294 24.5685 40.375 25 40.375H29.6875C30.119 40.375 30.4688 40.7294 30.4688 41.1667C30.4688 41.6039 30.119 41.9583 29.6875 41.9583H25C24.5685 41.9583 24.2188 41.6039 24.2188 41.1667Z" fill="#7A97AD"/>
<path fill-rule="evenodd" clip-rule="evenodd" d="M32.8125 35.6249C32.8125 35.1877 33.1623 34.8333 33.5938 34.8333H38.2812C38.7127 34.8333 39.0625 35.1877 39.0625 35.6249C39.0625 36.0621 38.7127 36.4166 38.2812 36.4166H33.5938C33.1623 36.4166 32.8125 36.0621 32.8125 35.6249Z" fill="#7A97AD"/>
<path fill-rule="evenodd" clip-rule="evenodd" d="M20.3125 34.0417C20.3125 33.6044 20.6623 33.25 21.0938 33.25H25.7812C26.2127 33.25 26.5625 33.6044 26.5625 34.0417C26.5625 34.4789 26.2127 34.8333 25.7812 34.8333H21.0938C20.6623 34.8333 20.3125 34.4789 20.3125 34.0417Z" fill="#7A97AD"/>
<path fill-rule="evenodd" clip-rule="evenodd" d="M39.8438 41.9584C39.8438 41.5212 40.1935 41.1667 40.625 41.1667H45.3125C45.744 41.1667 46.0938 41.5212 46.0938 41.9584C46.0938 42.3956 45.744 42.7501 45.3125 42.7501H40.625C40.1935 42.7501 39.8438 42.3956 39.8438 41.9584Z" fill="#7A97AD"/>
<path fill-rule="evenodd" clip-rule="evenodd" d="M46.875 49.8749C46.875 49.4377 47.2248 49.0833 47.6562 49.0833H52.3438C52.7752 49.0833 53.125 49.4377 53.125 49.8749C53.125 50.3121 52.7752 50.6666 52.3438 50.6666H47.6562C47.2248 50.6666 46.875 50.3121 46.875 49.8749Z" fill="#7A97AD"/>
<path fill-rule="evenodd" clip-rule="evenodd" d="M45.3125 60.1667C45.3125 59.7294 45.6623 59.375 46.0938 59.375H50.7812C51.2127 59.375 51.5625 59.7294 51.5625 60.1667C51.5625 60.6039 51.2127 60.9583 50.7812 60.9583H46.0938C45.6623 60.9583 45.3125 60.6039 45.3125 60.1667Z" fill="#7A97AD"/>
<path fill-rule="evenodd" clip-rule="evenodd" d="M46.875 35.6249C46.875 35.1877 47.2248 34.8333 47.6562 34.8333H52.3438C52.7752 34.8333 53.125 35.1877 53.125 35.6249C53.125 36.0621 52.7752 36.4166 52.3438 36.4166H47.6562C47.2248 36.4166 46.875 36.0621 46.875 35.6249Z" fill="#7A97AD"/>
<path fill-rule="evenodd" clip-rule="evenodd" d="M20.3125 49.8749C20.3125 49.4377 20.6623 49.0833 21.0938 49.0833H25.7812C26.2127 49.0833 26.5625 49.4377 26.5625 49.8749C26.5625 50.3121 26.2127 50.6666 25.7812 50.6666H21.0938C20.6623 50.6666 20.3125 50.3121 20.3125 49.8749Z" fill="#7A97AD"/>
<path fill-rule="evenodd" clip-rule="evenodd" d="M23.4375 54.6249C23.4375 54.1877 23.7873 53.8333 24.2188 53.8333H28.9062C29.3377 53.8333 29.6875 54.1877 29.6875 54.6249C29.6875 55.0621 29.3377 55.4166 28.9062 55.4166H24.2188C23.7873 55.4166 23.4375 55.0621 23.4375 54.6249Z" fill="#7A97AD"/>
<path fill-rule="evenodd" clip-rule="evenodd" d="M20.3125 62.5417C20.3125 62.1044 20.6623 61.75 21.0938 61.75H25.7812C26.2127 61.75 26.5625 62.1044 26.5625 62.5417C26.5625 62.9789 26.2127 63.3333 25.7812 63.3333H21.0938C20.6623 63.3333 20.3125 62.9789 20.3125 62.5417Z" fill="#7A97AD"/>
<path fill-rule="evenodd" clip-rule="evenodd" d="M21.0938 59.375C21.5252 59.375 21.875 59.7294 21.875 60.1667V63.3333C21.875 63.7706 21.5252 64.125 21.0938 64.125C20.6623 64.125 20.3125 63.7706 20.3125 63.3333V60.1667C20.3125 59.7294 20.6623 59.375 21.0938 59.375Z" fill="#7A97AD"/>
<path fill-rule="evenodd" clip-rule="evenodd" d="M26.5625 51.4583C26.994 51.4583 27.3438 51.8127 27.3438 52.2499V55.4166C27.3438 55.8538 26.994 56.2083 26.5625 56.2083C26.131 56.2083 25.7812 55.8538 25.7812 55.4166V52.2499C25.7812 51.8127 26.131 51.4583 26.5625 51.4583Z" fill="#7A97AD"/>
<path fill-rule="evenodd" clip-rule="evenodd" d="M22.6562 47.5C23.0877 47.5 23.4375 47.8544 23.4375 48.2917V51.4583C23.4375 51.8956 23.0877 52.25 22.6562 52.25C22.2248 52.25 21.875 51.8956 21.875 51.4583V48.2917C21.875 47.8544 22.2248 47.5 22.6562 47.5Z" fill="#7A97AD"/>
<path fill-rule="evenodd" clip-rule="evenodd" d="M28.125 39.5833C28.5565 39.5833 28.9062 39.9377 28.9062 40.3749V43.5416C28.9062 43.9788 28.5565 44.3333 28.125 44.3333C27.6935 44.3333 27.3438 43.9788 27.3438 43.5416V40.3749C27.3438 39.9377 27.6935 39.5833 28.125 39.5833Z" fill="#7A97AD"/>
<path fill-rule="evenodd" clip-rule="evenodd" d="M35.1562 34.0417C35.5877 34.0417 35.9375 34.3962 35.9375 34.8334V38.0001C35.9375 38.4373 35.5877 38.7917 35.1562 38.7917C34.7248 38.7917 34.375 38.4373 34.375 38.0001V34.8334C34.375 34.3962 34.7248 34.0417 35.1562 34.0417Z" fill="#7A97AD"/>
<path fill-rule="evenodd" clip-rule="evenodd" d="M43.75 39.5833C44.1815 39.5833 44.5312 39.9377 44.5312 40.3749V43.5416C44.5312 43.9788 44.1815 44.3333 43.75 44.3333C43.3185 44.3333 42.9688 43.9788 42.9688 43.5416V40.3749C42.9688 39.9377 43.3185 39.5833 43.75 39.5833Z" fill="#7A97AD"/>
<path fill-rule="evenodd" clip-rule="evenodd" d="M49.2188 33.25C49.6502 33.25 50 33.6044 50 34.0417V37.2083C50 37.6456 49.6502 38 49.2188 38C48.7873 38 48.4375 37.6456 48.4375 37.2083V34.0417C48.4375 33.6044 48.7873 33.25 49.2188 33.25Z" fill="#7A97AD"/>
<path fill-rule="evenodd" clip-rule="evenodd" d="M48.4375 47.5C48.869 47.5 49.2188 47.8544 49.2188 48.2917V51.4583C49.2188 51.8956 48.869 52.25 48.4375 52.25C48.006 52.25 47.6562 51.8956 47.6562 51.4583V48.2917C47.6562 47.8544 48.006 47.5 48.4375 47.5Z" fill="#7A97AD"/>
<path fill-rule="evenodd" clip-rule="evenodd" d="M50 58.5833C50.4315 58.5833 50.7812 58.9377 50.7812 59.3749V62.5416C50.7812 62.9788 50.4315 63.3333 50 63.3333C49.5685 63.3333 49.2188 62.9788 49.2188 62.5416V59.3749C49.2188 58.9377 49.5685 58.5833 50 58.5833Z" fill="#7A97AD"/>
<path fill-rule="evenodd" clip-rule="evenodd" d="M22.6562 33.25C23.0877 33.25 23.4375 33.6044 23.4375 34.0417V37.2083C23.4375 37.6456 23.0877 38 22.6562 38C22.2248 38 21.875 37.6456 21.875 37.2083V34.0417C21.875 33.6044 22.2248 33.25 22.6562 33.25Z" fill="#7A97AD"/>
<path fill-rule="evenodd" clip-rule="evenodd" d="M14.0625 7.125C14.494 7.125 14.8438 7.47944 14.8438 7.91667V20.5833C14.8438 21.0206 15.1935 21.375 15.625 21.375H33.2031C33.6346 21.375 33.9844 21.7294 33.9844 22.1667C33.9844 22.6039 33.6346 22.9583 33.2031 22.9583H15.625C14.3306 22.9583 13.2812 21.895 13.2812 20.5833V7.91667C13.2812 7.47944 13.631 7.125 14.0625 7.125Z" fill="#F5FDFF"/>
<path fill-rule="evenodd" clip-rule="evenodd" d="M25 8.70825C25.4315 8.70825 25.7812 9.06269 25.7812 9.49992V14.2499C25.7812 14.6871 25.4315 15.0416 25 15.0416C24.5685 15.0416 24.2188 14.6871 24.2188 14.2499V9.49992C24.2188 9.06269 24.5685 8.70825 25 8.70825Z" fill="#F5FDFF"/>
<path fill-rule="evenodd" clip-rule="evenodd" d="M46.875 8.70825C47.3065 8.70825 47.6562 9.06269 47.6562 9.49992V14.2499C47.6562 14.6871 47.3065 15.0416 46.875 15.0416C46.4435 15.0416 46.0938 14.6871 46.0938 14.2499V9.49992C46.0938 9.06269 46.4435 8.70825 46.875 8.70825Z" fill="#F5FDFF"/>
<path fill-rule="evenodd" clip-rule="evenodd" d="M35.9375 7.125C36.369 7.125 36.7188 7.47944 36.7188 7.91667V14.25C36.7188 14.6872 36.369 15.0417 35.9375 15.0417C35.506 15.0417 35.1562 14.6872 35.1562 14.25V7.91667C35.1562 7.47944 35.506 7.125 35.9375 7.125Z" fill="#F5FDFF"/>
<path fill-rule="evenodd" clip-rule="evenodd" d="M57.8125 7.125C58.244 7.125 58.5938 7.47944 58.5938 7.91667V14.25C58.5938 14.6872 58.244 15.0417 57.8125 15.0417C57.381 15.0417 57.0312 14.6872 57.0312 14.25V7.91667C57.0312 7.47944 57.381 7.125 57.8125 7.125Z" fill="#F5FDFF"/>
</svg>
